G04 #@! TF.GenerationSoftware,KiCad,Pcbnew,5.1.3-ffb9f22~84~ubuntu19.04.1*
G04 #@! TF.CreationDate,2019-07-31T13:22:44-04:00*
G04 #@! TF.ProjectId,Rover V6,526f7665-7220-4563-962e-6b696361645f,rev?*
G04 #@! TF.SameCoordinates,Original*
G04 #@! TF.FileFunction,Legend,Bot*
G04 #@! TF.FilePolarity,Positive*
%FSLAX46Y46*%
G04 Gerber Fmt 4.6, Leading zero omitted, Abs format (unit mm)*
G04 Created by KiCad (PCBNEW 5.1.3-ffb9f22~84~ubuntu19.04.1) date 2019-07-31 13:22:44*
%MOMM*%
%LPD*%
G04 APERTURE LIST*
%ADD10C,0.250000*%
%ADD11C,0.100000*%
%ADD12C,0.150000*%
%ADD13C,0.120000*%
G04 APERTURE END LIST*
D10*
X141504857Y-128484571D02*
X140647714Y-128484571D01*
X141076285Y-129984571D02*
X141076285Y-128484571D01*
X139933428Y-129984571D02*
X140076285Y-129913142D01*
X140147714Y-129841714D01*
X140219142Y-129698857D01*
X140219142Y-129270285D01*
X140147714Y-129127428D01*
X140076285Y-129056000D01*
X139933428Y-128984571D01*
X139719142Y-128984571D01*
X139576285Y-129056000D01*
X139504857Y-129127428D01*
X139433428Y-129270285D01*
X139433428Y-129698857D01*
X139504857Y-129841714D01*
X139576285Y-129913142D01*
X139719142Y-129984571D01*
X139933428Y-129984571D01*
X138790571Y-128984571D02*
X138790571Y-130484571D01*
X138790571Y-129056000D02*
X138647714Y-128984571D01*
X138362000Y-128984571D01*
X138219142Y-129056000D01*
X138147714Y-129127428D01*
X138076285Y-129270285D01*
X138076285Y-129698857D01*
X138147714Y-129841714D01*
X138219142Y-129913142D01*
X138362000Y-129984571D01*
X138647714Y-129984571D01*
X138790571Y-129913142D01*
X136504857Y-128484571D02*
X135647714Y-128484571D01*
X136076285Y-129984571D02*
X136076285Y-128484571D01*
X134504857Y-129984571D02*
X134504857Y-129198857D01*
X134576285Y-129056000D01*
X134719142Y-128984571D01*
X135004857Y-128984571D01*
X135147714Y-129056000D01*
X134504857Y-129913142D02*
X134647714Y-129984571D01*
X135004857Y-129984571D01*
X135147714Y-129913142D01*
X135219142Y-129770285D01*
X135219142Y-129627428D01*
X135147714Y-129484571D01*
X135004857Y-129413142D01*
X134647714Y-129413142D01*
X134504857Y-129341714D01*
X133790571Y-129984571D02*
X133790571Y-128484571D01*
X133790571Y-129056000D02*
X133647714Y-128984571D01*
X133362000Y-128984571D01*
X133219142Y-129056000D01*
X133147714Y-129127428D01*
X133076285Y-129270285D01*
X133076285Y-129698857D01*
X133147714Y-129841714D01*
X133219142Y-129913142D01*
X133362000Y-129984571D01*
X133647714Y-129984571D01*
X133790571Y-129913142D01*
X132433428Y-129841714D02*
X132362000Y-129913142D01*
X132433428Y-129984571D01*
X132504857Y-129913142D01*
X132433428Y-129841714D01*
X132433428Y-129984571D01*
X132433428Y-129056000D02*
X132362000Y-129127428D01*
X132433428Y-129198857D01*
X132504857Y-129127428D01*
X132433428Y-129056000D01*
X132433428Y-129198857D01*
X129719142Y-129984571D02*
X130219142Y-129270285D01*
X130576285Y-129984571D02*
X130576285Y-128484571D01*
X130004857Y-128484571D01*
X129862000Y-128556000D01*
X129790571Y-128627428D01*
X129719142Y-128770285D01*
X129719142Y-128984571D01*
X129790571Y-129127428D01*
X129862000Y-129198857D01*
X130004857Y-129270285D01*
X130576285Y-129270285D01*
X129076285Y-129198857D02*
X128576285Y-129198857D01*
X128362000Y-129984571D02*
X129076285Y-129984571D01*
X129076285Y-128484571D01*
X128362000Y-128484571D01*
X127719142Y-129984571D02*
X127719142Y-128484571D01*
X127362000Y-128484571D01*
X127147714Y-128556000D01*
X127004857Y-128698857D01*
X126933428Y-128841714D01*
X126862000Y-129127428D01*
X126862000Y-129341714D01*
X126933428Y-129627428D01*
X127004857Y-129770285D01*
X127147714Y-129913142D01*
X127362000Y-129984571D01*
X127719142Y-129984571D01*
X142754857Y-131698857D02*
X142540571Y-131770285D01*
X142469142Y-131841714D01*
X142397714Y-131984571D01*
X142397714Y-132198857D01*
X142469142Y-132341714D01*
X142540571Y-132413142D01*
X142683428Y-132484571D01*
X143254857Y-132484571D01*
X143254857Y-130984571D01*
X142754857Y-130984571D01*
X142612000Y-131056000D01*
X142540571Y-131127428D01*
X142469142Y-131270285D01*
X142469142Y-131413142D01*
X142540571Y-131556000D01*
X142612000Y-131627428D01*
X142754857Y-131698857D01*
X143254857Y-131698857D01*
X141540571Y-132484571D02*
X141683428Y-132413142D01*
X141754857Y-132341714D01*
X141826285Y-132198857D01*
X141826285Y-131770285D01*
X141754857Y-131627428D01*
X141683428Y-131556000D01*
X141540571Y-131484571D01*
X141326285Y-131484571D01*
X141183428Y-131556000D01*
X141112000Y-131627428D01*
X141040571Y-131770285D01*
X141040571Y-132198857D01*
X141112000Y-132341714D01*
X141183428Y-132413142D01*
X141326285Y-132484571D01*
X141540571Y-132484571D01*
X140612000Y-131484571D02*
X140040571Y-131484571D01*
X140397714Y-130984571D02*
X140397714Y-132270285D01*
X140326285Y-132413142D01*
X140183428Y-132484571D01*
X140040571Y-132484571D01*
X139754857Y-131484571D02*
X139183428Y-131484571D01*
X139540571Y-130984571D02*
X139540571Y-132270285D01*
X139469142Y-132413142D01*
X139326285Y-132484571D01*
X139183428Y-132484571D01*
X138469142Y-132484571D02*
X138612000Y-132413142D01*
X138683428Y-132341714D01*
X138754857Y-132198857D01*
X138754857Y-131770285D01*
X138683428Y-131627428D01*
X138612000Y-131556000D01*
X138469142Y-131484571D01*
X138254857Y-131484571D01*
X138112000Y-131556000D01*
X138040571Y-131627428D01*
X137969142Y-131770285D01*
X137969142Y-132198857D01*
X138040571Y-132341714D01*
X138112000Y-132413142D01*
X138254857Y-132484571D01*
X138469142Y-132484571D01*
X137326285Y-132484571D02*
X137326285Y-131484571D01*
X137326285Y-131627428D02*
X137254857Y-131556000D01*
X137112000Y-131484571D01*
X136897714Y-131484571D01*
X136754857Y-131556000D01*
X136683428Y-131698857D01*
X136683428Y-132484571D01*
X136683428Y-131698857D02*
X136612000Y-131556000D01*
X136469142Y-131484571D01*
X136254857Y-131484571D01*
X136112000Y-131556000D01*
X136040571Y-131698857D01*
X136040571Y-132484571D01*
X134397714Y-130984571D02*
X133540571Y-130984571D01*
X133969142Y-132484571D02*
X133969142Y-130984571D01*
X132397714Y-132484571D02*
X132397714Y-131698857D01*
X132469142Y-131556000D01*
X132612000Y-131484571D01*
X132897714Y-131484571D01*
X133040571Y-131556000D01*
X132397714Y-132413142D02*
X132540571Y-132484571D01*
X132897714Y-132484571D01*
X133040571Y-132413142D01*
X133112000Y-132270285D01*
X133112000Y-132127428D01*
X133040571Y-131984571D01*
X132897714Y-131913142D01*
X132540571Y-131913142D01*
X132397714Y-131841714D01*
X131683428Y-132484571D02*
X131683428Y-130984571D01*
X131683428Y-131556000D02*
X131540571Y-131484571D01*
X131254857Y-131484571D01*
X131112000Y-131556000D01*
X131040571Y-131627428D01*
X130969142Y-131770285D01*
X130969142Y-132198857D01*
X131040571Y-132341714D01*
X131112000Y-132413142D01*
X131254857Y-132484571D01*
X131540571Y-132484571D01*
X131683428Y-132413142D01*
X130326285Y-132341714D02*
X130254857Y-132413142D01*
X130326285Y-132484571D01*
X130397714Y-132413142D01*
X130326285Y-132341714D01*
X130326285Y-132484571D01*
X130326285Y-131556000D02*
X130254857Y-131627428D01*
X130326285Y-131698857D01*
X130397714Y-131627428D01*
X130326285Y-131556000D01*
X130326285Y-131698857D01*
X127969142Y-131698857D02*
X127754857Y-131770285D01*
X127683428Y-131841714D01*
X127612000Y-131984571D01*
X127612000Y-132198857D01*
X127683428Y-132341714D01*
X127754857Y-132413142D01*
X127897714Y-132484571D01*
X128469142Y-132484571D01*
X128469142Y-130984571D01*
X127969142Y-130984571D01*
X127826285Y-131056000D01*
X127754857Y-131127428D01*
X127683428Y-131270285D01*
X127683428Y-131413142D01*
X127754857Y-131556000D01*
X127826285Y-131627428D01*
X127969142Y-131698857D01*
X128469142Y-131698857D01*
X126254857Y-132484571D02*
X126969142Y-132484571D01*
X126969142Y-130984571D01*
X125754857Y-132484571D02*
X125754857Y-130984571D01*
X124897714Y-132484571D02*
X125540571Y-131627428D01*
X124897714Y-130984571D02*
X125754857Y-131841714D01*
X114580857Y-128484571D02*
X113723714Y-128484571D01*
X114152285Y-129984571D02*
X114152285Y-128484571D01*
X113009428Y-129984571D02*
X113152285Y-129913142D01*
X113223714Y-129841714D01*
X113295142Y-129698857D01*
X113295142Y-129270285D01*
X113223714Y-129127428D01*
X113152285Y-129056000D01*
X113009428Y-128984571D01*
X112795142Y-128984571D01*
X112652285Y-129056000D01*
X112580857Y-129127428D01*
X112509428Y-129270285D01*
X112509428Y-129698857D01*
X112580857Y-129841714D01*
X112652285Y-129913142D01*
X112795142Y-129984571D01*
X113009428Y-129984571D01*
X111866571Y-128984571D02*
X111866571Y-130484571D01*
X111866571Y-129056000D02*
X111723714Y-128984571D01*
X111438000Y-128984571D01*
X111295142Y-129056000D01*
X111223714Y-129127428D01*
X111152285Y-129270285D01*
X111152285Y-129698857D01*
X111223714Y-129841714D01*
X111295142Y-129913142D01*
X111438000Y-129984571D01*
X111723714Y-129984571D01*
X111866571Y-129913142D01*
X109580857Y-128484571D02*
X108723714Y-128484571D01*
X109152285Y-129984571D02*
X109152285Y-128484571D01*
X107580857Y-129984571D02*
X107580857Y-129198857D01*
X107652285Y-129056000D01*
X107795142Y-128984571D01*
X108080857Y-128984571D01*
X108223714Y-129056000D01*
X107580857Y-129913142D02*
X107723714Y-129984571D01*
X108080857Y-129984571D01*
X108223714Y-129913142D01*
X108295142Y-129770285D01*
X108295142Y-129627428D01*
X108223714Y-129484571D01*
X108080857Y-129413142D01*
X107723714Y-129413142D01*
X107580857Y-129341714D01*
X106866571Y-129984571D02*
X106866571Y-128484571D01*
X106866571Y-129056000D02*
X106723714Y-128984571D01*
X106438000Y-128984571D01*
X106295142Y-129056000D01*
X106223714Y-129127428D01*
X106152285Y-129270285D01*
X106152285Y-129698857D01*
X106223714Y-129841714D01*
X106295142Y-129913142D01*
X106438000Y-129984571D01*
X106723714Y-129984571D01*
X106866571Y-129913142D01*
X105509428Y-129841714D02*
X105438000Y-129913142D01*
X105509428Y-129984571D01*
X105580857Y-129913142D01*
X105509428Y-129841714D01*
X105509428Y-129984571D01*
X105509428Y-129056000D02*
X105438000Y-129127428D01*
X105509428Y-129198857D01*
X105580857Y-129127428D01*
X105509428Y-129056000D01*
X105509428Y-129198857D01*
X102795142Y-129984571D02*
X103295142Y-129270285D01*
X103652285Y-129984571D02*
X103652285Y-128484571D01*
X103080857Y-128484571D01*
X102938000Y-128556000D01*
X102866571Y-128627428D01*
X102795142Y-128770285D01*
X102795142Y-128984571D01*
X102866571Y-129127428D01*
X102938000Y-129198857D01*
X103080857Y-129270285D01*
X103652285Y-129270285D01*
X102152285Y-129198857D02*
X101652285Y-129198857D01*
X101438000Y-129984571D02*
X102152285Y-129984571D01*
X102152285Y-128484571D01*
X101438000Y-128484571D01*
X100795142Y-129984571D02*
X100795142Y-128484571D01*
X100438000Y-128484571D01*
X100223714Y-128556000D01*
X100080857Y-128698857D01*
X100009428Y-128841714D01*
X99938000Y-129127428D01*
X99938000Y-129341714D01*
X100009428Y-129627428D01*
X100080857Y-129770285D01*
X100223714Y-129913142D01*
X100438000Y-129984571D01*
X100795142Y-129984571D01*
X115830857Y-131698857D02*
X115616571Y-131770285D01*
X115545142Y-131841714D01*
X115473714Y-131984571D01*
X115473714Y-132198857D01*
X115545142Y-132341714D01*
X115616571Y-132413142D01*
X115759428Y-132484571D01*
X116330857Y-132484571D01*
X116330857Y-130984571D01*
X115830857Y-130984571D01*
X115688000Y-131056000D01*
X115616571Y-131127428D01*
X115545142Y-131270285D01*
X115545142Y-131413142D01*
X115616571Y-131556000D01*
X115688000Y-131627428D01*
X115830857Y-131698857D01*
X116330857Y-131698857D01*
X114616571Y-132484571D02*
X114759428Y-132413142D01*
X114830857Y-132341714D01*
X114902285Y-132198857D01*
X114902285Y-131770285D01*
X114830857Y-131627428D01*
X114759428Y-131556000D01*
X114616571Y-131484571D01*
X114402285Y-131484571D01*
X114259428Y-131556000D01*
X114188000Y-131627428D01*
X114116571Y-131770285D01*
X114116571Y-132198857D01*
X114188000Y-132341714D01*
X114259428Y-132413142D01*
X114402285Y-132484571D01*
X114616571Y-132484571D01*
X113688000Y-131484571D02*
X113116571Y-131484571D01*
X113473714Y-130984571D02*
X113473714Y-132270285D01*
X113402285Y-132413142D01*
X113259428Y-132484571D01*
X113116571Y-132484571D01*
X112830857Y-131484571D02*
X112259428Y-131484571D01*
X112616571Y-130984571D02*
X112616571Y-132270285D01*
X112545142Y-132413142D01*
X112402285Y-132484571D01*
X112259428Y-132484571D01*
X111545142Y-132484571D02*
X111688000Y-132413142D01*
X111759428Y-132341714D01*
X111830857Y-132198857D01*
X111830857Y-131770285D01*
X111759428Y-131627428D01*
X111688000Y-131556000D01*
X111545142Y-131484571D01*
X111330857Y-131484571D01*
X111188000Y-131556000D01*
X111116571Y-131627428D01*
X111045142Y-131770285D01*
X111045142Y-132198857D01*
X111116571Y-132341714D01*
X111188000Y-132413142D01*
X111330857Y-132484571D01*
X111545142Y-132484571D01*
X110402285Y-132484571D02*
X110402285Y-131484571D01*
X110402285Y-131627428D02*
X110330857Y-131556000D01*
X110188000Y-131484571D01*
X109973714Y-131484571D01*
X109830857Y-131556000D01*
X109759428Y-131698857D01*
X109759428Y-132484571D01*
X109759428Y-131698857D02*
X109688000Y-131556000D01*
X109545142Y-131484571D01*
X109330857Y-131484571D01*
X109188000Y-131556000D01*
X109116571Y-131698857D01*
X109116571Y-132484571D01*
X107473714Y-130984571D02*
X106616571Y-130984571D01*
X107045142Y-132484571D02*
X107045142Y-130984571D01*
X105473714Y-132484571D02*
X105473714Y-131698857D01*
X105545142Y-131556000D01*
X105688000Y-131484571D01*
X105973714Y-131484571D01*
X106116571Y-131556000D01*
X105473714Y-132413142D02*
X105616571Y-132484571D01*
X105973714Y-132484571D01*
X106116571Y-132413142D01*
X106188000Y-132270285D01*
X106188000Y-132127428D01*
X106116571Y-131984571D01*
X105973714Y-131913142D01*
X105616571Y-131913142D01*
X105473714Y-131841714D01*
X104759428Y-132484571D02*
X104759428Y-130984571D01*
X104759428Y-131556000D02*
X104616571Y-131484571D01*
X104330857Y-131484571D01*
X104188000Y-131556000D01*
X104116571Y-131627428D01*
X104045142Y-131770285D01*
X104045142Y-132198857D01*
X104116571Y-132341714D01*
X104188000Y-132413142D01*
X104330857Y-132484571D01*
X104616571Y-132484571D01*
X104759428Y-132413142D01*
X103402285Y-132341714D02*
X103330857Y-132413142D01*
X103402285Y-132484571D01*
X103473714Y-132413142D01*
X103402285Y-132341714D01*
X103402285Y-132484571D01*
X103402285Y-131556000D02*
X103330857Y-131627428D01*
X103402285Y-131698857D01*
X103473714Y-131627428D01*
X103402285Y-131556000D01*
X103402285Y-131698857D01*
X101045142Y-131698857D02*
X100830857Y-131770285D01*
X100759428Y-131841714D01*
X100688000Y-131984571D01*
X100688000Y-132198857D01*
X100759428Y-132341714D01*
X100830857Y-132413142D01*
X100973714Y-132484571D01*
X101545142Y-132484571D01*
X101545142Y-130984571D01*
X101045142Y-130984571D01*
X100902285Y-131056000D01*
X100830857Y-131127428D01*
X100759428Y-131270285D01*
X100759428Y-131413142D01*
X100830857Y-131556000D01*
X100902285Y-131627428D01*
X101045142Y-131698857D01*
X101545142Y-131698857D01*
X99330857Y-132484571D02*
X100045142Y-132484571D01*
X100045142Y-130984571D01*
X98830857Y-132484571D02*
X98830857Y-130984571D01*
X97973714Y-132484571D02*
X98616571Y-131627428D01*
X97973714Y-130984571D02*
X98830857Y-131841714D01*
X160762000Y-131464857D02*
X160547714Y-131536285D01*
X160476285Y-131607714D01*
X160404857Y-131750571D01*
X160404857Y-131964857D01*
X160476285Y-132107714D01*
X160547714Y-132179142D01*
X160690571Y-132250571D01*
X161262000Y-132250571D01*
X161262000Y-130750571D01*
X160762000Y-130750571D01*
X160619142Y-130822000D01*
X160547714Y-130893428D01*
X160476285Y-131036285D01*
X160476285Y-131179142D01*
X160547714Y-131322000D01*
X160619142Y-131393428D01*
X160762000Y-131464857D01*
X161262000Y-131464857D01*
X159047714Y-132250571D02*
X159762000Y-132250571D01*
X159762000Y-130750571D01*
X158547714Y-132250571D02*
X158547714Y-130750571D01*
X157690571Y-132250571D02*
X158333428Y-131393428D01*
X157690571Y-130750571D02*
X158547714Y-131607714D01*
X148792285Y-132250571D02*
X149292285Y-131536285D01*
X149649428Y-132250571D02*
X149649428Y-130750571D01*
X149078000Y-130750571D01*
X148935142Y-130822000D01*
X148863714Y-130893428D01*
X148792285Y-131036285D01*
X148792285Y-131250571D01*
X148863714Y-131393428D01*
X148935142Y-131464857D01*
X149078000Y-131536285D01*
X149649428Y-131536285D01*
X148149428Y-131464857D02*
X147649428Y-131464857D01*
X147435142Y-132250571D02*
X148149428Y-132250571D01*
X148149428Y-130750571D01*
X147435142Y-130750571D01*
X146792285Y-132250571D02*
X146792285Y-130750571D01*
X146435142Y-130750571D01*
X146220857Y-130822000D01*
X146078000Y-130964857D01*
X146006571Y-131107714D01*
X145935142Y-131393428D01*
X145935142Y-131607714D01*
X146006571Y-131893428D01*
X146078000Y-132036285D01*
X146220857Y-132179142D01*
X146435142Y-132250571D01*
X146792285Y-132250571D01*
X83768285Y-132250571D02*
X84268285Y-131536285D01*
X84625428Y-132250571D02*
X84625428Y-130750571D01*
X84054000Y-130750571D01*
X83911142Y-130822000D01*
X83839714Y-130893428D01*
X83768285Y-131036285D01*
X83768285Y-131250571D01*
X83839714Y-131393428D01*
X83911142Y-131464857D01*
X84054000Y-131536285D01*
X84625428Y-131536285D01*
X83125428Y-131464857D02*
X82625428Y-131464857D01*
X82411142Y-132250571D02*
X83125428Y-132250571D01*
X83125428Y-130750571D01*
X82411142Y-130750571D01*
X81768285Y-132250571D02*
X81768285Y-130750571D01*
X81411142Y-130750571D01*
X81196857Y-130822000D01*
X81054000Y-130964857D01*
X80982571Y-131107714D01*
X80911142Y-131393428D01*
X80911142Y-131607714D01*
X80982571Y-131893428D01*
X81054000Y-132036285D01*
X81196857Y-132179142D01*
X81411142Y-132250571D01*
X81768285Y-132250571D01*
X95230000Y-131464857D02*
X95015714Y-131536285D01*
X94944285Y-131607714D01*
X94872857Y-131750571D01*
X94872857Y-131964857D01*
X94944285Y-132107714D01*
X95015714Y-132179142D01*
X95158571Y-132250571D01*
X95730000Y-132250571D01*
X95730000Y-130750571D01*
X95230000Y-130750571D01*
X95087142Y-130822000D01*
X95015714Y-130893428D01*
X94944285Y-131036285D01*
X94944285Y-131179142D01*
X95015714Y-131322000D01*
X95087142Y-131393428D01*
X95230000Y-131464857D01*
X95730000Y-131464857D01*
X93515714Y-132250571D02*
X94230000Y-132250571D01*
X94230000Y-130750571D01*
X93015714Y-132250571D02*
X93015714Y-130750571D01*
X92158571Y-132250571D02*
X92801428Y-131393428D01*
X92158571Y-130750571D02*
X93015714Y-131607714D01*
D11*
G36*
X149860000Y-56896000D02*
G01*
X94488000Y-56896000D01*
X94488000Y-45720000D01*
X149860000Y-45720000D01*
X149860000Y-56896000D01*
G37*
X149860000Y-56896000D02*
X94488000Y-56896000D01*
X94488000Y-45720000D01*
X149860000Y-45720000D01*
X149860000Y-56896000D01*
D10*
X149268285Y-44874571D02*
X149268285Y-43374571D01*
X148411142Y-44874571D01*
X148411142Y-43374571D01*
X147768285Y-44446000D02*
X147054000Y-44446000D01*
X147911142Y-44874571D02*
X147411142Y-43374571D01*
X146911142Y-44874571D01*
X146411142Y-44874571D02*
X146411142Y-43374571D01*
X145911142Y-44446000D01*
X145411142Y-43374571D01*
X145411142Y-44874571D01*
X144696857Y-44088857D02*
X144196857Y-44088857D01*
X143982571Y-44874571D02*
X144696857Y-44874571D01*
X144696857Y-43374571D01*
X143982571Y-43374571D01*
X143339714Y-44731714D02*
X143268285Y-44803142D01*
X143339714Y-44874571D01*
X143411142Y-44803142D01*
X143339714Y-44731714D01*
X143339714Y-44874571D01*
X143339714Y-43946000D02*
X143268285Y-44017428D01*
X143339714Y-44088857D01*
X143411142Y-44017428D01*
X143339714Y-43946000D01*
X143339714Y-44088857D01*
D12*
X98552000Y-64262000D02*
X98552000Y-129032000D01*
X78232000Y-64262000D02*
X98552000Y-64262000D01*
X78232000Y-129032000D02*
X78232000Y-64262000D01*
X98552000Y-129032000D02*
X78232000Y-129032000D01*
D13*
X91392000Y-110032000D02*
X84392000Y-110032000D01*
X84392000Y-110032000D02*
X84392000Y-105032000D01*
X84392000Y-105032000D02*
X84392000Y-103032000D01*
X84392000Y-103032000D02*
X92392000Y-103032000D01*
X92392000Y-103032000D02*
X92392000Y-110032000D01*
X92392000Y-110032000D02*
X91392000Y-110032000D01*
X84392000Y-108032000D02*
X92392000Y-108032000D01*
X92392000Y-103032000D02*
X93392000Y-103032000D01*
X93392000Y-103032000D02*
X93392000Y-89032000D01*
X93392000Y-89032000D02*
X83392000Y-89032000D01*
X83392000Y-89032000D02*
X83392000Y-103032000D01*
X83392000Y-103032000D02*
X84392000Y-103032000D01*
X83392000Y-98032000D02*
X82392000Y-98032000D01*
X82392000Y-98032000D02*
X82392000Y-97032000D01*
X82392000Y-97032000D02*
X83392000Y-97032000D01*
X83392000Y-95032000D02*
X81392000Y-95032000D01*
X81392000Y-95032000D02*
X81392000Y-93032000D01*
X81392000Y-93032000D02*
X83392000Y-93032000D01*
X93392000Y-93032000D02*
X95392000Y-93032000D01*
X95392000Y-93032000D02*
X95392000Y-95032000D01*
X95392000Y-95032000D02*
X93392000Y-95032000D01*
X80892000Y-99032000D02*
X80892000Y-97532000D01*
X80892000Y-97532000D02*
X81892000Y-97532000D01*
X81892000Y-97532000D02*
X81692000Y-97832000D01*
X81892000Y-97532000D02*
X81692000Y-97232000D01*
D12*
X143891000Y-64262000D02*
X143891000Y-129032000D01*
X164211000Y-64262000D02*
X143891000Y-64262000D01*
X164211000Y-129032000D02*
X164211000Y-64262000D01*
X143891000Y-129032000D02*
X164211000Y-129032000D01*
D13*
X161051000Y-94932000D02*
X159051000Y-94932000D01*
X159051000Y-92932000D02*
X161051000Y-92932000D01*
X147051000Y-92932000D02*
X149051000Y-92932000D01*
X161051000Y-92932000D02*
X161051000Y-94932000D01*
X149051000Y-94932000D02*
X147051000Y-94932000D01*
X147051000Y-94932000D02*
X147051000Y-92932000D01*
X149051000Y-102932000D02*
X150051000Y-102932000D01*
X149051000Y-88932000D02*
X149051000Y-102932000D01*
X159051000Y-88932000D02*
X149051000Y-88932000D01*
X159051000Y-102932000D02*
X159051000Y-88932000D01*
X158051000Y-102932000D02*
X159051000Y-102932000D01*
X150051000Y-102932000D02*
X158051000Y-102932000D01*
X150051000Y-104932000D02*
X150051000Y-102932000D01*
X158051000Y-102932000D02*
X158051000Y-109932000D01*
X150051000Y-109932000D02*
X150051000Y-104932000D01*
X150051000Y-107932000D02*
X158051000Y-107932000D01*
X157051000Y-109932000D02*
X150051000Y-109932000D01*
X158051000Y-109932000D02*
X157051000Y-109932000D01*
X159051000Y-96032000D02*
X160051000Y-96032000D01*
X160051000Y-96032000D02*
X160051000Y-97032000D01*
X160051000Y-97032000D02*
X159051000Y-97032000D01*
X160551000Y-96532000D02*
X160751000Y-96832000D01*
X160551000Y-96532000D02*
X160751000Y-96232000D01*
X160551000Y-96532000D02*
X161551000Y-96532000D01*
X161551000Y-96532000D02*
X161551000Y-98032000D01*
D12*
X81396761Y-99617714D02*
X81444380Y-99760571D01*
X81444380Y-99998666D01*
X81396761Y-100093904D01*
X81349142Y-100141523D01*
X81253904Y-100189142D01*
X81158666Y-100189142D01*
X81063428Y-100141523D01*
X81015809Y-100093904D01*
X80968190Y-99998666D01*
X80920571Y-99808190D01*
X80872952Y-99712952D01*
X80825333Y-99665333D01*
X80730095Y-99617714D01*
X80634857Y-99617714D01*
X80539619Y-99665333D01*
X80492000Y-99712952D01*
X80444380Y-99808190D01*
X80444380Y-100046285D01*
X80492000Y-100189142D01*
X81444380Y-100617714D02*
X80777714Y-100617714D01*
X80872952Y-100617714D02*
X80825333Y-100665333D01*
X80777714Y-100760571D01*
X80777714Y-100903428D01*
X80825333Y-100998666D01*
X80920571Y-101046285D01*
X81444380Y-101046285D01*
X80920571Y-101046285D02*
X80825333Y-101093904D01*
X80777714Y-101189142D01*
X80777714Y-101332000D01*
X80825333Y-101427238D01*
X80920571Y-101474857D01*
X81444380Y-101474857D01*
X81444380Y-102379619D02*
X80920571Y-102379619D01*
X80825333Y-102332000D01*
X80777714Y-102236761D01*
X80777714Y-102046285D01*
X80825333Y-101951047D01*
X81396761Y-102379619D02*
X81444380Y-102284380D01*
X81444380Y-102046285D01*
X81396761Y-101951047D01*
X81301523Y-101903428D01*
X81206285Y-101903428D01*
X81111047Y-101951047D01*
X81063428Y-102046285D01*
X81063428Y-102284380D01*
X81015809Y-102379619D01*
X81444380Y-102998666D02*
X81396761Y-102903428D01*
X81301523Y-102855809D01*
X80444380Y-102855809D01*
X81444380Y-103522476D02*
X81396761Y-103427238D01*
X81301523Y-103379619D01*
X80444380Y-103379619D01*
X80920571Y-104998666D02*
X80968190Y-105141523D01*
X81015809Y-105189142D01*
X81111047Y-105236761D01*
X81253904Y-105236761D01*
X81349142Y-105189142D01*
X81396761Y-105141523D01*
X81444380Y-105046285D01*
X81444380Y-104665333D01*
X80444380Y-104665333D01*
X80444380Y-104998666D01*
X80492000Y-105093904D01*
X80539619Y-105141523D01*
X80634857Y-105189142D01*
X80730095Y-105189142D01*
X80825333Y-105141523D01*
X80872952Y-105093904D01*
X80920571Y-104998666D01*
X80920571Y-104665333D01*
X80777714Y-106093904D02*
X81444380Y-106093904D01*
X80777714Y-105665333D02*
X81301523Y-105665333D01*
X81396761Y-105712952D01*
X81444380Y-105808190D01*
X81444380Y-105951047D01*
X81396761Y-106046285D01*
X81349142Y-106093904D01*
X81444380Y-106570095D02*
X80777714Y-106570095D01*
X80872952Y-106570095D02*
X80825333Y-106617714D01*
X80777714Y-106712952D01*
X80777714Y-106855809D01*
X80825333Y-106951047D01*
X80920571Y-106998666D01*
X81444380Y-106998666D01*
X80920571Y-106998666D02*
X80825333Y-107046285D01*
X80777714Y-107141523D01*
X80777714Y-107284380D01*
X80825333Y-107379619D01*
X80920571Y-107427238D01*
X81444380Y-107427238D01*
X80777714Y-107903428D02*
X81777714Y-107903428D01*
X80825333Y-107903428D02*
X80777714Y-107998666D01*
X80777714Y-108189142D01*
X80825333Y-108284380D01*
X80872952Y-108332000D01*
X80968190Y-108379619D01*
X81253904Y-108379619D01*
X81349142Y-108332000D01*
X81396761Y-108284380D01*
X81444380Y-108189142D01*
X81444380Y-107998666D01*
X81396761Y-107903428D01*
X81444380Y-109712952D02*
X81396761Y-109617714D01*
X81349142Y-109570095D01*
X81253904Y-109522476D01*
X80968190Y-109522476D01*
X80872952Y-109570095D01*
X80825333Y-109617714D01*
X80777714Y-109712952D01*
X80777714Y-109855809D01*
X80825333Y-109951047D01*
X80872952Y-109998666D01*
X80968190Y-110046285D01*
X81253904Y-110046285D01*
X81349142Y-109998666D01*
X81396761Y-109951047D01*
X81444380Y-109855809D01*
X81444380Y-109712952D01*
X80777714Y-110474857D02*
X81444380Y-110474857D01*
X80872952Y-110474857D02*
X80825333Y-110522476D01*
X80777714Y-110617714D01*
X80777714Y-110760571D01*
X80825333Y-110855809D01*
X80920571Y-110903428D01*
X81444380Y-110903428D01*
X81444380Y-112141523D02*
X80777714Y-112141523D01*
X80872952Y-112141523D02*
X80825333Y-112189142D01*
X80777714Y-112284380D01*
X80777714Y-112427238D01*
X80825333Y-112522476D01*
X80920571Y-112570095D01*
X81444380Y-112570095D01*
X80920571Y-112570095D02*
X80825333Y-112617714D01*
X80777714Y-112712952D01*
X80777714Y-112855809D01*
X80825333Y-112951047D01*
X80920571Y-112998666D01*
X81444380Y-112998666D01*
X81444380Y-113617714D02*
X81396761Y-113522476D01*
X81349142Y-113474857D01*
X81253904Y-113427238D01*
X80968190Y-113427238D01*
X80872952Y-113474857D01*
X80825333Y-113522476D01*
X80777714Y-113617714D01*
X80777714Y-113760571D01*
X80825333Y-113855809D01*
X80872952Y-113903428D01*
X80968190Y-113951047D01*
X81253904Y-113951047D01*
X81349142Y-113903428D01*
X81396761Y-113855809D01*
X81444380Y-113760571D01*
X81444380Y-113617714D01*
X80777714Y-114236761D02*
X80777714Y-114617714D01*
X80444380Y-114379619D02*
X81301523Y-114379619D01*
X81396761Y-114427238D01*
X81444380Y-114522476D01*
X81444380Y-114617714D01*
X81444380Y-115093904D02*
X81396761Y-114998666D01*
X81349142Y-114951047D01*
X81253904Y-114903428D01*
X80968190Y-114903428D01*
X80872952Y-114951047D01*
X80825333Y-114998666D01*
X80777714Y-115093904D01*
X80777714Y-115236761D01*
X80825333Y-115332000D01*
X80872952Y-115379619D01*
X80968190Y-115427238D01*
X81253904Y-115427238D01*
X81349142Y-115379619D01*
X81396761Y-115332000D01*
X81444380Y-115236761D01*
X81444380Y-115093904D01*
X81444380Y-115855809D02*
X80777714Y-115855809D01*
X80968190Y-115855809D02*
X80872952Y-115903428D01*
X80825333Y-115951047D01*
X80777714Y-116046285D01*
X80777714Y-116141523D01*
X162155761Y-98617714D02*
X162203380Y-98760571D01*
X162203380Y-98998666D01*
X162155761Y-99093904D01*
X162108142Y-99141523D01*
X162012904Y-99189142D01*
X161917666Y-99189142D01*
X161822428Y-99141523D01*
X161774809Y-99093904D01*
X161727190Y-98998666D01*
X161679571Y-98808190D01*
X161631952Y-98712952D01*
X161584333Y-98665333D01*
X161489095Y-98617714D01*
X161393857Y-98617714D01*
X161298619Y-98665333D01*
X161251000Y-98712952D01*
X161203380Y-98808190D01*
X161203380Y-99046285D01*
X161251000Y-99189142D01*
X162203380Y-99617714D02*
X161536714Y-99617714D01*
X161631952Y-99617714D02*
X161584333Y-99665333D01*
X161536714Y-99760571D01*
X161536714Y-99903428D01*
X161584333Y-99998666D01*
X161679571Y-100046285D01*
X162203380Y-100046285D01*
X161679571Y-100046285D02*
X161584333Y-100093904D01*
X161536714Y-100189142D01*
X161536714Y-100332000D01*
X161584333Y-100427238D01*
X161679571Y-100474857D01*
X162203380Y-100474857D01*
X162203380Y-101379619D02*
X161679571Y-101379619D01*
X161584333Y-101332000D01*
X161536714Y-101236761D01*
X161536714Y-101046285D01*
X161584333Y-100951047D01*
X162155761Y-101379619D02*
X162203380Y-101284380D01*
X162203380Y-101046285D01*
X162155761Y-100951047D01*
X162060523Y-100903428D01*
X161965285Y-100903428D01*
X161870047Y-100951047D01*
X161822428Y-101046285D01*
X161822428Y-101284380D01*
X161774809Y-101379619D01*
X162203380Y-101998666D02*
X162155761Y-101903428D01*
X162060523Y-101855809D01*
X161203380Y-101855809D01*
X162203380Y-102522476D02*
X162155761Y-102427238D01*
X162060523Y-102379619D01*
X161203380Y-102379619D01*
X161679571Y-103998666D02*
X161727190Y-104141523D01*
X161774809Y-104189142D01*
X161870047Y-104236761D01*
X162012904Y-104236761D01*
X162108142Y-104189142D01*
X162155761Y-104141523D01*
X162203380Y-104046285D01*
X162203380Y-103665333D01*
X161203380Y-103665333D01*
X161203380Y-103998666D01*
X161251000Y-104093904D01*
X161298619Y-104141523D01*
X161393857Y-104189142D01*
X161489095Y-104189142D01*
X161584333Y-104141523D01*
X161631952Y-104093904D01*
X161679571Y-103998666D01*
X161679571Y-103665333D01*
X161536714Y-105093904D02*
X162203380Y-105093904D01*
X161536714Y-104665333D02*
X162060523Y-104665333D01*
X162155761Y-104712952D01*
X162203380Y-104808190D01*
X162203380Y-104951047D01*
X162155761Y-105046285D01*
X162108142Y-105093904D01*
X162203380Y-105570095D02*
X161536714Y-105570095D01*
X161631952Y-105570095D02*
X161584333Y-105617714D01*
X161536714Y-105712952D01*
X161536714Y-105855809D01*
X161584333Y-105951047D01*
X161679571Y-105998666D01*
X162203380Y-105998666D01*
X161679571Y-105998666D02*
X161584333Y-106046285D01*
X161536714Y-106141523D01*
X161536714Y-106284380D01*
X161584333Y-106379619D01*
X161679571Y-106427238D01*
X162203380Y-106427238D01*
X161536714Y-106903428D02*
X162536714Y-106903428D01*
X161584333Y-106903428D02*
X161536714Y-106998666D01*
X161536714Y-107189142D01*
X161584333Y-107284380D01*
X161631952Y-107332000D01*
X161727190Y-107379619D01*
X162012904Y-107379619D01*
X162108142Y-107332000D01*
X162155761Y-107284380D01*
X162203380Y-107189142D01*
X162203380Y-106998666D01*
X162155761Y-106903428D01*
X162203380Y-108712952D02*
X162155761Y-108617714D01*
X162108142Y-108570095D01*
X162012904Y-108522476D01*
X161727190Y-108522476D01*
X161631952Y-108570095D01*
X161584333Y-108617714D01*
X161536714Y-108712952D01*
X161536714Y-108855809D01*
X161584333Y-108951047D01*
X161631952Y-108998666D01*
X161727190Y-109046285D01*
X162012904Y-109046285D01*
X162108142Y-108998666D01*
X162155761Y-108951047D01*
X162203380Y-108855809D01*
X162203380Y-108712952D01*
X161536714Y-109474857D02*
X162203380Y-109474857D01*
X161631952Y-109474857D02*
X161584333Y-109522476D01*
X161536714Y-109617714D01*
X161536714Y-109760571D01*
X161584333Y-109855809D01*
X161679571Y-109903428D01*
X162203380Y-109903428D01*
X162203380Y-111141523D02*
X161536714Y-111141523D01*
X161631952Y-111141523D02*
X161584333Y-111189142D01*
X161536714Y-111284380D01*
X161536714Y-111427238D01*
X161584333Y-111522476D01*
X161679571Y-111570095D01*
X162203380Y-111570095D01*
X161679571Y-111570095D02*
X161584333Y-111617714D01*
X161536714Y-111712952D01*
X161536714Y-111855809D01*
X161584333Y-111951047D01*
X161679571Y-111998666D01*
X162203380Y-111998666D01*
X162203380Y-112617714D02*
X162155761Y-112522476D01*
X162108142Y-112474857D01*
X162012904Y-112427238D01*
X161727190Y-112427238D01*
X161631952Y-112474857D01*
X161584333Y-112522476D01*
X161536714Y-112617714D01*
X161536714Y-112760571D01*
X161584333Y-112855809D01*
X161631952Y-112903428D01*
X161727190Y-112951047D01*
X162012904Y-112951047D01*
X162108142Y-112903428D01*
X162155761Y-112855809D01*
X162203380Y-112760571D01*
X162203380Y-112617714D01*
X161536714Y-113236761D02*
X161536714Y-113617714D01*
X161203380Y-113379619D02*
X162060523Y-113379619D01*
X162155761Y-113427238D01*
X162203380Y-113522476D01*
X162203380Y-113617714D01*
X162203380Y-114093904D02*
X162155761Y-113998666D01*
X162108142Y-113951047D01*
X162012904Y-113903428D01*
X161727190Y-113903428D01*
X161631952Y-113951047D01*
X161584333Y-113998666D01*
X161536714Y-114093904D01*
X161536714Y-114236761D01*
X161584333Y-114332000D01*
X161631952Y-114379619D01*
X161727190Y-114427238D01*
X162012904Y-114427238D01*
X162108142Y-114379619D01*
X162155761Y-114332000D01*
X162203380Y-114236761D01*
X162203380Y-114093904D01*
X162203380Y-114855809D02*
X161536714Y-114855809D01*
X161727190Y-114855809D02*
X161631952Y-114903428D01*
X161584333Y-114951047D01*
X161536714Y-115046285D01*
X161536714Y-115141523D01*
M02*
