G04 #@! TF.GenerationSoftware,KiCad,Pcbnew,5.1.3-ffb9f22~84~ubuntu19.04.1*
G04 #@! TF.CreationDate,2019-07-31T13:22:44-04:00*
G04 #@! TF.ProjectId,Rover V6,526f7665-7220-4563-962e-6b696361645f,rev?*
G04 #@! TF.SameCoordinates,Original*
G04 #@! TF.FileFunction,Soldermask,Top*
G04 #@! TF.FilePolarity,Negative*
%FSLAX46Y46*%
G04 Gerber Fmt 4.6, Leading zero omitted, Abs format (unit mm)*
G04 Created by KiCad (PCBNEW 5.1.3-ffb9f22~84~ubuntu19.04.1) date 2019-07-31 13:22:44*
%MOMM*%
%LPD*%
G04 APERTURE LIST*
%ADD10C,0.100000*%
G04 APERTURE END LIST*
D10*
G36*
X121670903Y-179213213D02*
G01*
X121893177Y-179257426D01*
X122311932Y-179430880D01*
X122688802Y-179682696D01*
X123009304Y-180003198D01*
X123261120Y-180380068D01*
X123434574Y-180798823D01*
X123523000Y-181243371D01*
X123523000Y-181696629D01*
X123434574Y-182141177D01*
X123261120Y-182559932D01*
X123009304Y-182936802D01*
X122688802Y-183257304D01*
X122311932Y-183509120D01*
X121893177Y-183682574D01*
X121670903Y-183726787D01*
X121448630Y-183771000D01*
X120995370Y-183771000D01*
X120773097Y-183726787D01*
X120550823Y-183682574D01*
X120132068Y-183509120D01*
X119755198Y-183257304D01*
X119434696Y-182936802D01*
X119182880Y-182559932D01*
X119009426Y-182141177D01*
X118921000Y-181696629D01*
X118921000Y-181243371D01*
X119009426Y-180798823D01*
X119182880Y-180380068D01*
X119434696Y-180003198D01*
X119755198Y-179682696D01*
X120132068Y-179430880D01*
X120550823Y-179257426D01*
X120773097Y-179213213D01*
X120995370Y-179169000D01*
X121448630Y-179169000D01*
X121670903Y-179213213D01*
X121670903Y-179213213D01*
G37*
G36*
X135746031Y-175375207D02*
G01*
X135944145Y-175435305D01*
X135944148Y-175435306D01*
X136010030Y-175470521D01*
X136126729Y-175532897D01*
X136286765Y-175664235D01*
X136418103Y-175824271D01*
X136418104Y-175824273D01*
X136515694Y-176006851D01*
X136515694Y-176006852D01*
X136515695Y-176006854D01*
X136575793Y-176204968D01*
X136591000Y-176359370D01*
X136591000Y-177462630D01*
X136575793Y-177617032D01*
X136515695Y-177815146D01*
X136515694Y-177815149D01*
X136463939Y-177911975D01*
X136418103Y-177997729D01*
X136286765Y-178157765D01*
X136126729Y-178289103D01*
X136040975Y-178334939D01*
X135944149Y-178386694D01*
X135944146Y-178386695D01*
X135746032Y-178446793D01*
X135540000Y-178467085D01*
X135333969Y-178446793D01*
X135135855Y-178386695D01*
X135135852Y-178386694D01*
X135039026Y-178334939D01*
X134953272Y-178289103D01*
X134793236Y-178157765D01*
X134661898Y-177997729D01*
X134639184Y-177955234D01*
X134564305Y-177815147D01*
X134504207Y-177617030D01*
X134489000Y-177462631D01*
X134489000Y-176359370D01*
X134504207Y-176204971D01*
X134504207Y-176204969D01*
X134564305Y-176006855D01*
X134564306Y-176006852D01*
X134627235Y-175889120D01*
X134661897Y-175824271D01*
X134793235Y-175664235D01*
X134953271Y-175532897D01*
X135039025Y-175487061D01*
X135135851Y-175435306D01*
X135135854Y-175435305D01*
X135333968Y-175375207D01*
X135540000Y-175354915D01*
X135746031Y-175375207D01*
X135746031Y-175375207D01*
G37*
G36*
X134051000Y-178462000D02*
G01*
X131949000Y-178462000D01*
X131949000Y-175360000D01*
X134051000Y-175360000D01*
X134051000Y-178462000D01*
X134051000Y-178462000D01*
G37*
G36*
X106666032Y-174464207D02*
G01*
X106853831Y-174521176D01*
X106864149Y-174524306D01*
X106960975Y-174576061D01*
X107046729Y-174621897D01*
X107206765Y-174753235D01*
X107338103Y-174913271D01*
X107383939Y-174999025D01*
X107435694Y-175095851D01*
X107435695Y-175095854D01*
X107495793Y-175293968D01*
X107511000Y-175448370D01*
X107511000Y-176551630D01*
X107495793Y-176706032D01*
X107435695Y-176904145D01*
X107435694Y-176904149D01*
X107383939Y-177000975D01*
X107338103Y-177086729D01*
X107206765Y-177246765D01*
X107046729Y-177378103D01*
X106930030Y-177440479D01*
X106864148Y-177475694D01*
X106864145Y-177475695D01*
X106666031Y-177535793D01*
X106460000Y-177556085D01*
X106253968Y-177535793D01*
X106055854Y-177475695D01*
X106055851Y-177475694D01*
X105959025Y-177423939D01*
X105873271Y-177378103D01*
X105713235Y-177246765D01*
X105581897Y-177086729D01*
X105484307Y-176904149D01*
X105484306Y-176904148D01*
X105484305Y-176904145D01*
X105424207Y-176706031D01*
X105409000Y-176551629D01*
X105409000Y-175448370D01*
X105417704Y-175360000D01*
X105424207Y-175293970D01*
X105484305Y-175095853D01*
X105559184Y-174955765D01*
X105581898Y-174913271D01*
X105713236Y-174753235D01*
X105873272Y-174621897D01*
X105959026Y-174576061D01*
X106055852Y-174524306D01*
X106066170Y-174521176D01*
X106253969Y-174464207D01*
X106460000Y-174443915D01*
X106666032Y-174464207D01*
X106666032Y-174464207D01*
G37*
G36*
X110051000Y-177551000D02*
G01*
X107949000Y-177551000D01*
X107949000Y-174449000D01*
X110051000Y-174449000D01*
X110051000Y-177551000D01*
X110051000Y-177551000D01*
G37*
G36*
X124210903Y-171593213D02*
G01*
X124433177Y-171637426D01*
X124851932Y-171810880D01*
X125228802Y-172062696D01*
X125549304Y-172383198D01*
X125801120Y-172760068D01*
X125974574Y-173178823D01*
X126063000Y-173623371D01*
X126063000Y-174076629D01*
X125974574Y-174521177D01*
X125801120Y-174939932D01*
X125549304Y-175316802D01*
X125228802Y-175637304D01*
X124851932Y-175889120D01*
X124433177Y-176062574D01*
X124210903Y-176106787D01*
X123988630Y-176151000D01*
X123535370Y-176151000D01*
X123313097Y-176106787D01*
X123090823Y-176062574D01*
X122672068Y-175889120D01*
X122295198Y-175637304D01*
X121974696Y-175316802D01*
X121722880Y-174939932D01*
X121549426Y-174521177D01*
X121461000Y-174076629D01*
X121461000Y-173623371D01*
X121549426Y-173178823D01*
X121722880Y-172760068D01*
X121974696Y-172383198D01*
X122295198Y-172062696D01*
X122672068Y-171810880D01*
X123090823Y-171637426D01*
X123313097Y-171593213D01*
X123535370Y-171549000D01*
X123988630Y-171549000D01*
X124210903Y-171593213D01*
X124210903Y-171593213D01*
G37*
G36*
X119130903Y-171593213D02*
G01*
X119353177Y-171637426D01*
X119771932Y-171810880D01*
X120148802Y-172062696D01*
X120469304Y-172383198D01*
X120721120Y-172760068D01*
X120894574Y-173178823D01*
X120983000Y-173623371D01*
X120983000Y-174076629D01*
X120894574Y-174521177D01*
X120721120Y-174939932D01*
X120469304Y-175316802D01*
X120148802Y-175637304D01*
X119771932Y-175889120D01*
X119353177Y-176062574D01*
X119130903Y-176106787D01*
X118908630Y-176151000D01*
X118455370Y-176151000D01*
X118233097Y-176106787D01*
X118010823Y-176062574D01*
X117592068Y-175889120D01*
X117215198Y-175637304D01*
X116894696Y-175316802D01*
X116642880Y-174939932D01*
X116469426Y-174521177D01*
X116381000Y-174076629D01*
X116381000Y-173623371D01*
X116469426Y-173178823D01*
X116642880Y-172760068D01*
X116894696Y-172383198D01*
X117215198Y-172062696D01*
X117592068Y-171810880D01*
X118010823Y-171637426D01*
X118233097Y-171593213D01*
X118455370Y-171549000D01*
X118908630Y-171549000D01*
X119130903Y-171593213D01*
X119130903Y-171593213D01*
G37*
G36*
X141814412Y-164129135D02*
G01*
X142046346Y-164175269D01*
X142483300Y-164356262D01*
X142876548Y-164619022D01*
X143210978Y-164953452D01*
X143473738Y-165346700D01*
X143654731Y-165783654D01*
X143747000Y-166247522D01*
X143747000Y-166720478D01*
X143654731Y-167184346D01*
X143473738Y-167621300D01*
X143210978Y-168014548D01*
X142876548Y-168348978D01*
X142483300Y-168611738D01*
X142046346Y-168792731D01*
X141814412Y-168838865D01*
X141582479Y-168885000D01*
X141109521Y-168885000D01*
X140877588Y-168838865D01*
X140645654Y-168792731D01*
X140208700Y-168611738D01*
X139815452Y-168348978D01*
X139481022Y-168014548D01*
X139218262Y-167621300D01*
X139037269Y-167184346D01*
X138945000Y-166720478D01*
X138945000Y-166247522D01*
X139037269Y-165783654D01*
X139218262Y-165346700D01*
X139481022Y-164953452D01*
X139815452Y-164619022D01*
X140208700Y-164356262D01*
X140645654Y-164175269D01*
X140877588Y-164129135D01*
X141109521Y-164083000D01*
X141582479Y-164083000D01*
X141814412Y-164129135D01*
X141814412Y-164129135D01*
G37*
G36*
X101814412Y-164129135D02*
G01*
X102046346Y-164175269D01*
X102483300Y-164356262D01*
X102876548Y-164619022D01*
X103210978Y-164953452D01*
X103473738Y-165346700D01*
X103654731Y-165783654D01*
X103747000Y-166247522D01*
X103747000Y-166720478D01*
X103654731Y-167184346D01*
X103473738Y-167621300D01*
X103210978Y-168014548D01*
X102876548Y-168348978D01*
X102483300Y-168611738D01*
X102046346Y-168792731D01*
X101814412Y-168838865D01*
X101582479Y-168885000D01*
X101109521Y-168885000D01*
X100877588Y-168838865D01*
X100645654Y-168792731D01*
X100208700Y-168611738D01*
X99815452Y-168348978D01*
X99481022Y-168014548D01*
X99218262Y-167621300D01*
X99037269Y-167184346D01*
X98945000Y-166720478D01*
X98945000Y-166247522D01*
X99037269Y-165783654D01*
X99218262Y-165346700D01*
X99481022Y-164953452D01*
X99815452Y-164619022D01*
X100208700Y-164356262D01*
X100645654Y-164175269D01*
X100877588Y-164129135D01*
X101109521Y-164083000D01*
X101582479Y-164083000D01*
X101814412Y-164129135D01*
X101814412Y-164129135D01*
G37*
G36*
X152077256Y-164621298D02*
G01*
X152183579Y-164642447D01*
X152484042Y-164766903D01*
X152754451Y-164947585D01*
X152984415Y-165177549D01*
X153165097Y-165447958D01*
X153289553Y-165748421D01*
X153353000Y-166067391D01*
X153353000Y-166392609D01*
X153289553Y-166711579D01*
X153165097Y-167012042D01*
X152984415Y-167282451D01*
X152754451Y-167512415D01*
X152484042Y-167693097D01*
X152183579Y-167817553D01*
X152077256Y-167838702D01*
X151864611Y-167881000D01*
X151539389Y-167881000D01*
X151326744Y-167838702D01*
X151220421Y-167817553D01*
X150919958Y-167693097D01*
X150649549Y-167512415D01*
X150419585Y-167282451D01*
X150238903Y-167012042D01*
X150114447Y-166711579D01*
X150051000Y-166392609D01*
X150051000Y-166067391D01*
X150114447Y-165748421D01*
X150238903Y-165447958D01*
X150419585Y-165177549D01*
X150649549Y-164947585D01*
X150919958Y-164766903D01*
X151220421Y-164642447D01*
X151326744Y-164621298D01*
X151539389Y-164579000D01*
X151864611Y-164579000D01*
X152077256Y-164621298D01*
X152077256Y-164621298D01*
G37*
G36*
X91116756Y-164621298D02*
G01*
X91223079Y-164642447D01*
X91523542Y-164766903D01*
X91793951Y-164947585D01*
X92023915Y-165177549D01*
X92204597Y-165447958D01*
X92329053Y-165748421D01*
X92392500Y-166067391D01*
X92392500Y-166392609D01*
X92329053Y-166711579D01*
X92204597Y-167012042D01*
X92023915Y-167282451D01*
X91793951Y-167512415D01*
X91523542Y-167693097D01*
X91223079Y-167817553D01*
X91116756Y-167838702D01*
X90904111Y-167881000D01*
X90578889Y-167881000D01*
X90366244Y-167838702D01*
X90259921Y-167817553D01*
X89959458Y-167693097D01*
X89689049Y-167512415D01*
X89459085Y-167282451D01*
X89278403Y-167012042D01*
X89153947Y-166711579D01*
X89090500Y-166392609D01*
X89090500Y-166067391D01*
X89153947Y-165748421D01*
X89278403Y-165447958D01*
X89459085Y-165177549D01*
X89689049Y-164947585D01*
X89959458Y-164766903D01*
X90259921Y-164642447D01*
X90366244Y-164621298D01*
X90578889Y-164579000D01*
X90904111Y-164579000D01*
X91116756Y-164621298D01*
X91116756Y-164621298D01*
G37*
G36*
X136466098Y-158767033D02*
G01*
X136930350Y-158959332D01*
X136930352Y-158959333D01*
X137348168Y-159238509D01*
X137703491Y-159593832D01*
X137982667Y-160011648D01*
X137982668Y-160011650D01*
X138174967Y-160475902D01*
X138273000Y-160968747D01*
X138273000Y-161471253D01*
X138174967Y-161964098D01*
X137982668Y-162428350D01*
X137982667Y-162428352D01*
X137703491Y-162846168D01*
X137348168Y-163201491D01*
X136930352Y-163480667D01*
X136930351Y-163480668D01*
X136930350Y-163480668D01*
X136466098Y-163672967D01*
X135973253Y-163771000D01*
X135470747Y-163771000D01*
X134977902Y-163672967D01*
X134513650Y-163480668D01*
X134513649Y-163480668D01*
X134513648Y-163480667D01*
X134095832Y-163201491D01*
X133740509Y-162846168D01*
X133461333Y-162428352D01*
X133461332Y-162428350D01*
X133269033Y-161964098D01*
X133171000Y-161471253D01*
X133171000Y-160968747D01*
X133269033Y-160475902D01*
X133461332Y-160011650D01*
X133461333Y-160011648D01*
X133740509Y-159593832D01*
X134095832Y-159238509D01*
X134513648Y-158959333D01*
X134513650Y-158959332D01*
X134977902Y-158767033D01*
X135470747Y-158669000D01*
X135973253Y-158669000D01*
X136466098Y-158767033D01*
X136466098Y-158767033D01*
G37*
G36*
X107466098Y-158767033D02*
G01*
X107930350Y-158959332D01*
X107930352Y-158959333D01*
X108348168Y-159238509D01*
X108703491Y-159593832D01*
X108982667Y-160011648D01*
X108982668Y-160011650D01*
X109174967Y-160475902D01*
X109273000Y-160968747D01*
X109273000Y-161471253D01*
X109174967Y-161964098D01*
X108982668Y-162428350D01*
X108982667Y-162428352D01*
X108703491Y-162846168D01*
X108348168Y-163201491D01*
X107930352Y-163480667D01*
X107930351Y-163480668D01*
X107930350Y-163480668D01*
X107466098Y-163672967D01*
X106973253Y-163771000D01*
X106470747Y-163771000D01*
X105977902Y-163672967D01*
X105513650Y-163480668D01*
X105513649Y-163480668D01*
X105513648Y-163480667D01*
X105095832Y-163201491D01*
X104740509Y-162846168D01*
X104461333Y-162428352D01*
X104461332Y-162428350D01*
X104269033Y-161964098D01*
X104171000Y-161471253D01*
X104171000Y-160968747D01*
X104269033Y-160475902D01*
X104461332Y-160011650D01*
X104461333Y-160011648D01*
X104740509Y-159593832D01*
X105095832Y-159238509D01*
X105513648Y-158959333D01*
X105513650Y-158959332D01*
X105977902Y-158767033D01*
X106470747Y-158669000D01*
X106973253Y-158669000D01*
X107466098Y-158767033D01*
X107466098Y-158767033D01*
G37*
G36*
X85402823Y-156260313D02*
G01*
X85563242Y-156308976D01*
X85695906Y-156379886D01*
X85711078Y-156387996D01*
X85840659Y-156494341D01*
X85947004Y-156623922D01*
X85947005Y-156623924D01*
X86026024Y-156771758D01*
X86074687Y-156932177D01*
X86091117Y-157099000D01*
X86074687Y-157265823D01*
X86026024Y-157426242D01*
X86005433Y-157464765D01*
X85947004Y-157574078D01*
X85840659Y-157703659D01*
X85711078Y-157810004D01*
X85711076Y-157810005D01*
X85563242Y-157889024D01*
X85402823Y-157937687D01*
X85277804Y-157950000D01*
X84394196Y-157950000D01*
X84269177Y-157937687D01*
X84108758Y-157889024D01*
X83960924Y-157810005D01*
X83960922Y-157810004D01*
X83831341Y-157703659D01*
X83724996Y-157574078D01*
X83666567Y-157464765D01*
X83645976Y-157426242D01*
X83597313Y-157265823D01*
X83580883Y-157099000D01*
X83597313Y-156932177D01*
X83645976Y-156771758D01*
X83724995Y-156623924D01*
X83724996Y-156623922D01*
X83831341Y-156494341D01*
X83960922Y-156387996D01*
X83976094Y-156379886D01*
X84108758Y-156308976D01*
X84269177Y-156260313D01*
X84394196Y-156248000D01*
X85277804Y-156248000D01*
X85402823Y-156260313D01*
X85402823Y-156260313D01*
G37*
G36*
X93022823Y-156260313D02*
G01*
X93183242Y-156308976D01*
X93315906Y-156379886D01*
X93331078Y-156387996D01*
X93460659Y-156494341D01*
X93567004Y-156623922D01*
X93567005Y-156623924D01*
X93646024Y-156771758D01*
X93694687Y-156932177D01*
X93711117Y-157099000D01*
X93694687Y-157265823D01*
X93646024Y-157426242D01*
X93625433Y-157464765D01*
X93567004Y-157574078D01*
X93460659Y-157703659D01*
X93331078Y-157810004D01*
X93331076Y-157810005D01*
X93183242Y-157889024D01*
X93022823Y-157937687D01*
X92897804Y-157950000D01*
X92014196Y-157950000D01*
X91889177Y-157937687D01*
X91728758Y-157889024D01*
X91580924Y-157810005D01*
X91580922Y-157810004D01*
X91451341Y-157703659D01*
X91344996Y-157574078D01*
X91286567Y-157464765D01*
X91265976Y-157426242D01*
X91217313Y-157265823D01*
X91200883Y-157099000D01*
X91217313Y-156932177D01*
X91265976Y-156771758D01*
X91344995Y-156623924D01*
X91344996Y-156623922D01*
X91451341Y-156494341D01*
X91580922Y-156387996D01*
X91596094Y-156379886D01*
X91728758Y-156308976D01*
X91889177Y-156260313D01*
X92014196Y-156248000D01*
X92897804Y-156248000D01*
X93022823Y-156260313D01*
X93022823Y-156260313D01*
G37*
G36*
X160174000Y-157769000D02*
G01*
X157072000Y-157769000D01*
X157072000Y-155667000D01*
X160174000Y-155667000D01*
X160174000Y-157769000D01*
X160174000Y-157769000D01*
G37*
G36*
X136226097Y-155672069D02*
G01*
X136329032Y-155682207D01*
X136527146Y-155742305D01*
X136527149Y-155742306D01*
X136599596Y-155781030D01*
X136709729Y-155839897D01*
X136869765Y-155971235D01*
X137001103Y-156131271D01*
X137017382Y-156161728D01*
X137098694Y-156313851D01*
X137098695Y-156313854D01*
X137158793Y-156511968D01*
X137179085Y-156718000D01*
X137158793Y-156924032D01*
X137156322Y-156932177D01*
X137098694Y-157122149D01*
X137046939Y-157218975D01*
X137001103Y-157304729D01*
X136869765Y-157464765D01*
X136709729Y-157596103D01*
X136623975Y-157641939D01*
X136527149Y-157693694D01*
X136527146Y-157693695D01*
X136329032Y-157753793D01*
X136226097Y-157763931D01*
X136174631Y-157769000D01*
X135071369Y-157769000D01*
X135019903Y-157763931D01*
X134916968Y-157753793D01*
X134718854Y-157693695D01*
X134718851Y-157693694D01*
X134622025Y-157641939D01*
X134536271Y-157596103D01*
X134376235Y-157464765D01*
X134244897Y-157304729D01*
X134199061Y-157218975D01*
X134147306Y-157122149D01*
X134089678Y-156932177D01*
X134087207Y-156924032D01*
X134066915Y-156718000D01*
X134087207Y-156511968D01*
X134147305Y-156313854D01*
X134147306Y-156313851D01*
X134228618Y-156161728D01*
X134244897Y-156131271D01*
X134376235Y-155971235D01*
X134536271Y-155839897D01*
X134646404Y-155781030D01*
X134718851Y-155742306D01*
X134718854Y-155742305D01*
X134916968Y-155682207D01*
X135019903Y-155672069D01*
X135071369Y-155667000D01*
X136174631Y-155667000D01*
X136226097Y-155672069D01*
X136226097Y-155672069D01*
G37*
G36*
X100298097Y-154529069D02*
G01*
X100401032Y-154539207D01*
X100599146Y-154599305D01*
X100599149Y-154599306D01*
X100695975Y-154651061D01*
X100781729Y-154696897D01*
X100941765Y-154828235D01*
X101073103Y-154988271D01*
X101097586Y-155034076D01*
X101170694Y-155170851D01*
X101170695Y-155170854D01*
X101230793Y-155368968D01*
X101251085Y-155575000D01*
X101230793Y-155781032D01*
X101212936Y-155839897D01*
X101170694Y-155979149D01*
X101118939Y-156075975D01*
X101073103Y-156161729D01*
X100941765Y-156321765D01*
X100781729Y-156453103D01*
X100704578Y-156494341D01*
X100599149Y-156550694D01*
X100599146Y-156550695D01*
X100401032Y-156610793D01*
X100298097Y-156620931D01*
X100246631Y-156626000D01*
X99143369Y-156626000D01*
X99091903Y-156620931D01*
X98988968Y-156610793D01*
X98790854Y-156550695D01*
X98790851Y-156550694D01*
X98685422Y-156494341D01*
X98608271Y-156453103D01*
X98448235Y-156321765D01*
X98316897Y-156161729D01*
X98271061Y-156075975D01*
X98219306Y-155979149D01*
X98177064Y-155839897D01*
X98159207Y-155781032D01*
X98138915Y-155575000D01*
X98159207Y-155368968D01*
X98219305Y-155170854D01*
X98219306Y-155170851D01*
X98292414Y-155034076D01*
X98316897Y-154988271D01*
X98448235Y-154828235D01*
X98608271Y-154696897D01*
X98694025Y-154651061D01*
X98790851Y-154599306D01*
X98790854Y-154599305D01*
X98988968Y-154539207D01*
X99091903Y-154529069D01*
X99143369Y-154524000D01*
X100246631Y-154524000D01*
X100298097Y-154529069D01*
X100298097Y-154529069D01*
G37*
G36*
X85402823Y-153720313D02*
G01*
X85563242Y-153768976D01*
X85695906Y-153839886D01*
X85711078Y-153847996D01*
X85840659Y-153954341D01*
X85947004Y-154083922D01*
X85947005Y-154083924D01*
X86026024Y-154231758D01*
X86074687Y-154392177D01*
X86091117Y-154559000D01*
X86074687Y-154725823D01*
X86026024Y-154886242D01*
X86005433Y-154924765D01*
X85947004Y-155034078D01*
X85840659Y-155163659D01*
X85711078Y-155270004D01*
X85711076Y-155270005D01*
X85563242Y-155349024D01*
X85402823Y-155397687D01*
X85277804Y-155410000D01*
X84394196Y-155410000D01*
X84269177Y-155397687D01*
X84108758Y-155349024D01*
X83960924Y-155270005D01*
X83960922Y-155270004D01*
X83831341Y-155163659D01*
X83724996Y-155034078D01*
X83666567Y-154924765D01*
X83645976Y-154886242D01*
X83597313Y-154725823D01*
X83580883Y-154559000D01*
X83597313Y-154392177D01*
X83645976Y-154231758D01*
X83724995Y-154083924D01*
X83724996Y-154083922D01*
X83831341Y-153954341D01*
X83960922Y-153847996D01*
X83976094Y-153839886D01*
X84108758Y-153768976D01*
X84269177Y-153720313D01*
X84394196Y-153708000D01*
X85277804Y-153708000D01*
X85402823Y-153720313D01*
X85402823Y-153720313D01*
G37*
G36*
X93022823Y-153720313D02*
G01*
X93183242Y-153768976D01*
X93315906Y-153839886D01*
X93331078Y-153847996D01*
X93460659Y-153954341D01*
X93567004Y-154083922D01*
X93567005Y-154083924D01*
X93646024Y-154231758D01*
X93694687Y-154392177D01*
X93711117Y-154559000D01*
X93694687Y-154725823D01*
X93646024Y-154886242D01*
X93625433Y-154924765D01*
X93567004Y-155034078D01*
X93460659Y-155163659D01*
X93331078Y-155270004D01*
X93331076Y-155270005D01*
X93183242Y-155349024D01*
X93022823Y-155397687D01*
X92897804Y-155410000D01*
X92014196Y-155410000D01*
X91889177Y-155397687D01*
X91728758Y-155349024D01*
X91580924Y-155270005D01*
X91580922Y-155270004D01*
X91451341Y-155163659D01*
X91344996Y-155034078D01*
X91286567Y-154924765D01*
X91265976Y-154886242D01*
X91217313Y-154725823D01*
X91200883Y-154559000D01*
X91217313Y-154392177D01*
X91265976Y-154231758D01*
X91344995Y-154083924D01*
X91344996Y-154083922D01*
X91451341Y-153954341D01*
X91580922Y-153847996D01*
X91596094Y-153839886D01*
X91728758Y-153768976D01*
X91889177Y-153720313D01*
X92014196Y-153708000D01*
X92897804Y-153708000D01*
X93022823Y-153720313D01*
X93022823Y-153720313D01*
G37*
G36*
X136226097Y-153132069D02*
G01*
X136329032Y-153142207D01*
X136527146Y-153202305D01*
X136527149Y-153202306D01*
X136623975Y-153254061D01*
X136709729Y-153299897D01*
X136869765Y-153431235D01*
X137001103Y-153591271D01*
X137046939Y-153677025D01*
X137098694Y-153773851D01*
X137098695Y-153773854D01*
X137158793Y-153971968D01*
X137179085Y-154178000D01*
X137158793Y-154384032D01*
X137105716Y-154559000D01*
X137098694Y-154582149D01*
X137089523Y-154599306D01*
X137001103Y-154764729D01*
X136869765Y-154924765D01*
X136709729Y-155056103D01*
X136623975Y-155101939D01*
X136527149Y-155153694D01*
X136527146Y-155153695D01*
X136329032Y-155213793D01*
X136226097Y-155223931D01*
X136174631Y-155229000D01*
X135071369Y-155229000D01*
X135019903Y-155223931D01*
X134916968Y-155213793D01*
X134718854Y-155153695D01*
X134718851Y-155153694D01*
X134622025Y-155101939D01*
X134536271Y-155056103D01*
X134376235Y-154924765D01*
X134244897Y-154764729D01*
X134156477Y-154599306D01*
X134147306Y-154582149D01*
X134140284Y-154559000D01*
X134087207Y-154384032D01*
X134066915Y-154178000D01*
X134087207Y-153971968D01*
X134147305Y-153773854D01*
X134147306Y-153773851D01*
X134199061Y-153677025D01*
X134244897Y-153591271D01*
X134376235Y-153431235D01*
X134536271Y-153299897D01*
X134622025Y-153254061D01*
X134718851Y-153202306D01*
X134718854Y-153202305D01*
X134916968Y-153142207D01*
X135019903Y-153132069D01*
X135071369Y-153127000D01*
X136174631Y-153127000D01*
X136226097Y-153132069D01*
X136226097Y-153132069D01*
G37*
G36*
X93022823Y-151180313D02*
G01*
X93183242Y-151228976D01*
X93315906Y-151299886D01*
X93331078Y-151307996D01*
X93460659Y-151414341D01*
X93567004Y-151543922D01*
X93567005Y-151543924D01*
X93646024Y-151691758D01*
X93694687Y-151852177D01*
X93711117Y-152019000D01*
X93694687Y-152185823D01*
X93646024Y-152346242D01*
X93575114Y-152478906D01*
X93567004Y-152494078D01*
X93460659Y-152623659D01*
X93331078Y-152730004D01*
X93331076Y-152730005D01*
X93183242Y-152809024D01*
X93022823Y-152857687D01*
X92897804Y-152870000D01*
X92014196Y-152870000D01*
X91889177Y-152857687D01*
X91728758Y-152809024D01*
X91580924Y-152730005D01*
X91580922Y-152730004D01*
X91451341Y-152623659D01*
X91344996Y-152494078D01*
X91336886Y-152478906D01*
X91265976Y-152346242D01*
X91217313Y-152185823D01*
X91200883Y-152019000D01*
X91217313Y-151852177D01*
X91265976Y-151691758D01*
X91344995Y-151543924D01*
X91344996Y-151543922D01*
X91451341Y-151414341D01*
X91580922Y-151307996D01*
X91596094Y-151299886D01*
X91728758Y-151228976D01*
X91889177Y-151180313D01*
X92014196Y-151168000D01*
X92897804Y-151168000D01*
X93022823Y-151180313D01*
X93022823Y-151180313D01*
G37*
G36*
X85402823Y-151180313D02*
G01*
X85563242Y-151228976D01*
X85695906Y-151299886D01*
X85711078Y-151307996D01*
X85840659Y-151414341D01*
X85947004Y-151543922D01*
X85947005Y-151543924D01*
X86026024Y-151691758D01*
X86074687Y-151852177D01*
X86091117Y-152019000D01*
X86074687Y-152185823D01*
X86026024Y-152346242D01*
X85955114Y-152478906D01*
X85947004Y-152494078D01*
X85840659Y-152623659D01*
X85711078Y-152730004D01*
X85711076Y-152730005D01*
X85563242Y-152809024D01*
X85402823Y-152857687D01*
X85277804Y-152870000D01*
X84394196Y-152870000D01*
X84269177Y-152857687D01*
X84108758Y-152809024D01*
X83960924Y-152730005D01*
X83960922Y-152730004D01*
X83831341Y-152623659D01*
X83724996Y-152494078D01*
X83716886Y-152478906D01*
X83645976Y-152346242D01*
X83597313Y-152185823D01*
X83580883Y-152019000D01*
X83597313Y-151852177D01*
X83645976Y-151691758D01*
X83724995Y-151543924D01*
X83724996Y-151543922D01*
X83831341Y-151414341D01*
X83960922Y-151307996D01*
X83976094Y-151299886D01*
X84108758Y-151228976D01*
X84269177Y-151180313D01*
X84394196Y-151168000D01*
X85277804Y-151168000D01*
X85402823Y-151180313D01*
X85402823Y-151180313D01*
G37*
G36*
X100298097Y-149529069D02*
G01*
X100401032Y-149539207D01*
X100599146Y-149599305D01*
X100599149Y-149599306D01*
X100686176Y-149645823D01*
X100781729Y-149696897D01*
X100941765Y-149828235D01*
X101073103Y-149988271D01*
X101118939Y-150074025D01*
X101170694Y-150170851D01*
X101170695Y-150170854D01*
X101230793Y-150368968D01*
X101251085Y-150575000D01*
X101230793Y-150781032D01*
X101170695Y-150979146D01*
X101170694Y-150979149D01*
X101118939Y-151075975D01*
X101073103Y-151161729D01*
X100941765Y-151321765D01*
X100781729Y-151453103D01*
X100695975Y-151498939D01*
X100599149Y-151550694D01*
X100599146Y-151550695D01*
X100401032Y-151610793D01*
X100298097Y-151620931D01*
X100246631Y-151626000D01*
X99143369Y-151626000D01*
X99091903Y-151620931D01*
X98988968Y-151610793D01*
X98790854Y-151550695D01*
X98790851Y-151550694D01*
X98694025Y-151498939D01*
X98608271Y-151453103D01*
X98448235Y-151321765D01*
X98316897Y-151161729D01*
X98271061Y-151075975D01*
X98219306Y-150979149D01*
X98219305Y-150979146D01*
X98159207Y-150781032D01*
X98138915Y-150575000D01*
X98159207Y-150368968D01*
X98219305Y-150170854D01*
X98219306Y-150170851D01*
X98271061Y-150074025D01*
X98316897Y-149988271D01*
X98448235Y-149828235D01*
X98608271Y-149696897D01*
X98703824Y-149645823D01*
X98790851Y-149599306D01*
X98790854Y-149599305D01*
X98988968Y-149539207D01*
X99091903Y-149529069D01*
X99143369Y-149524000D01*
X100246631Y-149524000D01*
X100298097Y-149529069D01*
X100298097Y-149529069D01*
G37*
G36*
X93022823Y-148640313D02*
G01*
X93183242Y-148688976D01*
X93315906Y-148759886D01*
X93331078Y-148767996D01*
X93460659Y-148874341D01*
X93567004Y-149003922D01*
X93567005Y-149003924D01*
X93646024Y-149151758D01*
X93694687Y-149312177D01*
X93711117Y-149479000D01*
X93694687Y-149645823D01*
X93646024Y-149806242D01*
X93634268Y-149828235D01*
X93567004Y-149954078D01*
X93460659Y-150083659D01*
X93331078Y-150190004D01*
X93331076Y-150190005D01*
X93183242Y-150269024D01*
X93022823Y-150317687D01*
X92897804Y-150330000D01*
X92014196Y-150330000D01*
X91889177Y-150317687D01*
X91728758Y-150269024D01*
X91580924Y-150190005D01*
X91580922Y-150190004D01*
X91451341Y-150083659D01*
X91344996Y-149954078D01*
X91277732Y-149828235D01*
X91265976Y-149806242D01*
X91217313Y-149645823D01*
X91200883Y-149479000D01*
X91217313Y-149312177D01*
X91265976Y-149151758D01*
X91344995Y-149003924D01*
X91344996Y-149003922D01*
X91451341Y-148874341D01*
X91580922Y-148767996D01*
X91596094Y-148759886D01*
X91728758Y-148688976D01*
X91889177Y-148640313D01*
X92014196Y-148628000D01*
X92897804Y-148628000D01*
X93022823Y-148640313D01*
X93022823Y-148640313D01*
G37*
G36*
X85402823Y-148640313D02*
G01*
X85563242Y-148688976D01*
X85695906Y-148759886D01*
X85711078Y-148767996D01*
X85840659Y-148874341D01*
X85947004Y-149003922D01*
X85947005Y-149003924D01*
X86026024Y-149151758D01*
X86074687Y-149312177D01*
X86091117Y-149479000D01*
X86074687Y-149645823D01*
X86026024Y-149806242D01*
X86014268Y-149828235D01*
X85947004Y-149954078D01*
X85840659Y-150083659D01*
X85711078Y-150190004D01*
X85711076Y-150190005D01*
X85563242Y-150269024D01*
X85402823Y-150317687D01*
X85277804Y-150330000D01*
X84394196Y-150330000D01*
X84269177Y-150317687D01*
X84108758Y-150269024D01*
X83960924Y-150190005D01*
X83960922Y-150190004D01*
X83831341Y-150083659D01*
X83724996Y-149954078D01*
X83657732Y-149828235D01*
X83645976Y-149806242D01*
X83597313Y-149645823D01*
X83580883Y-149479000D01*
X83597313Y-149312177D01*
X83645976Y-149151758D01*
X83724995Y-149003924D01*
X83724996Y-149003922D01*
X83831341Y-148874341D01*
X83960922Y-148767996D01*
X83976094Y-148759886D01*
X84108758Y-148688976D01*
X84269177Y-148640313D01*
X84394196Y-148628000D01*
X85277804Y-148628000D01*
X85402823Y-148640313D01*
X85402823Y-148640313D01*
G37*
G36*
X85402823Y-146100313D02*
G01*
X85563242Y-146148976D01*
X85695906Y-146219886D01*
X85711078Y-146227996D01*
X85840659Y-146334341D01*
X85947004Y-146463922D01*
X85947005Y-146463924D01*
X86026024Y-146611758D01*
X86074687Y-146772177D01*
X86091117Y-146939000D01*
X86074687Y-147105823D01*
X86026024Y-147266242D01*
X85955114Y-147398906D01*
X85947004Y-147414078D01*
X85840659Y-147543659D01*
X85711078Y-147650004D01*
X85711076Y-147650005D01*
X85563242Y-147729024D01*
X85402823Y-147777687D01*
X85277804Y-147790000D01*
X84394196Y-147790000D01*
X84269177Y-147777687D01*
X84108758Y-147729024D01*
X83960924Y-147650005D01*
X83960922Y-147650004D01*
X83831341Y-147543659D01*
X83724996Y-147414078D01*
X83716886Y-147398906D01*
X83645976Y-147266242D01*
X83597313Y-147105823D01*
X83580883Y-146939000D01*
X83597313Y-146772177D01*
X83645976Y-146611758D01*
X83724995Y-146463924D01*
X83724996Y-146463922D01*
X83831341Y-146334341D01*
X83960922Y-146227996D01*
X83976094Y-146219886D01*
X84108758Y-146148976D01*
X84269177Y-146100313D01*
X84394196Y-146088000D01*
X85277804Y-146088000D01*
X85402823Y-146100313D01*
X85402823Y-146100313D01*
G37*
G36*
X93022823Y-146100313D02*
G01*
X93183242Y-146148976D01*
X93315906Y-146219886D01*
X93331078Y-146227996D01*
X93460659Y-146334341D01*
X93567004Y-146463922D01*
X93567005Y-146463924D01*
X93646024Y-146611758D01*
X93694687Y-146772177D01*
X93711117Y-146939000D01*
X93694687Y-147105823D01*
X93646024Y-147266242D01*
X93575114Y-147398906D01*
X93567004Y-147414078D01*
X93460659Y-147543659D01*
X93331078Y-147650004D01*
X93331076Y-147650005D01*
X93183242Y-147729024D01*
X93022823Y-147777687D01*
X92897804Y-147790000D01*
X92014196Y-147790000D01*
X91889177Y-147777687D01*
X91728758Y-147729024D01*
X91580924Y-147650005D01*
X91580922Y-147650004D01*
X91451341Y-147543659D01*
X91344996Y-147414078D01*
X91336886Y-147398906D01*
X91265976Y-147266242D01*
X91217313Y-147105823D01*
X91200883Y-146939000D01*
X91217313Y-146772177D01*
X91265976Y-146611758D01*
X91344995Y-146463924D01*
X91344996Y-146463922D01*
X91451341Y-146334341D01*
X91580922Y-146227996D01*
X91596094Y-146219886D01*
X91728758Y-146148976D01*
X91889177Y-146100313D01*
X92014196Y-146088000D01*
X92897804Y-146088000D01*
X93022823Y-146100313D01*
X93022823Y-146100313D01*
G37*
G36*
X136226097Y-144212069D02*
G01*
X136329032Y-144222207D01*
X136527146Y-144282305D01*
X136527149Y-144282306D01*
X136598176Y-144320271D01*
X136709729Y-144379897D01*
X136869765Y-144511235D01*
X137001103Y-144671271D01*
X137016976Y-144700968D01*
X137098694Y-144853851D01*
X137098695Y-144853854D01*
X137158793Y-145051968D01*
X137179085Y-145258000D01*
X137158793Y-145464032D01*
X137149784Y-145493729D01*
X137098694Y-145662149D01*
X137046939Y-145758975D01*
X137001103Y-145844729D01*
X136869765Y-146004765D01*
X136709729Y-146136103D01*
X136623975Y-146181939D01*
X136527149Y-146233694D01*
X136527146Y-146233695D01*
X136329032Y-146293793D01*
X136226097Y-146303931D01*
X136174631Y-146309000D01*
X135071369Y-146309000D01*
X135019903Y-146303931D01*
X134916968Y-146293793D01*
X134718854Y-146233695D01*
X134718851Y-146233694D01*
X134622025Y-146181939D01*
X134536271Y-146136103D01*
X134376235Y-146004765D01*
X134244897Y-145844729D01*
X134199061Y-145758975D01*
X134147306Y-145662149D01*
X134096216Y-145493729D01*
X134087207Y-145464032D01*
X134066915Y-145258000D01*
X134087207Y-145051968D01*
X134147305Y-144853854D01*
X134147306Y-144853851D01*
X134229024Y-144700968D01*
X134244897Y-144671271D01*
X134376235Y-144511235D01*
X134536271Y-144379897D01*
X134647824Y-144320271D01*
X134718851Y-144282306D01*
X134718854Y-144282305D01*
X134916968Y-144222207D01*
X135019903Y-144212069D01*
X135071369Y-144207000D01*
X136174631Y-144207000D01*
X136226097Y-144212069D01*
X136226097Y-144212069D01*
G37*
G36*
X100298097Y-143861069D02*
G01*
X100401032Y-143871207D01*
X100574814Y-143923924D01*
X100599149Y-143931306D01*
X100695975Y-143983061D01*
X100781729Y-144028897D01*
X100941765Y-144160235D01*
X101073103Y-144320271D01*
X101115184Y-144399000D01*
X101170694Y-144502851D01*
X101170695Y-144502854D01*
X101230793Y-144700968D01*
X101251085Y-144907000D01*
X101230793Y-145113032D01*
X101186817Y-145258000D01*
X101170694Y-145311149D01*
X101118939Y-145407975D01*
X101073103Y-145493729D01*
X100941765Y-145653765D01*
X100781729Y-145785103D01*
X100695975Y-145830939D01*
X100599149Y-145882694D01*
X100599146Y-145882695D01*
X100401032Y-145942793D01*
X100298097Y-145952931D01*
X100246631Y-145958000D01*
X99143369Y-145958000D01*
X99091903Y-145952931D01*
X98988968Y-145942793D01*
X98790854Y-145882695D01*
X98790851Y-145882694D01*
X98694025Y-145830939D01*
X98608271Y-145785103D01*
X98448235Y-145653765D01*
X98316897Y-145493729D01*
X98271061Y-145407975D01*
X98219306Y-145311149D01*
X98203183Y-145258000D01*
X98159207Y-145113032D01*
X98138915Y-144907000D01*
X98159207Y-144700968D01*
X98219305Y-144502854D01*
X98219306Y-144502851D01*
X98274816Y-144399000D01*
X98316897Y-144320271D01*
X98448235Y-144160235D01*
X98608271Y-144028897D01*
X98694025Y-143983061D01*
X98790851Y-143931306D01*
X98815186Y-143923924D01*
X98988968Y-143871207D01*
X99091903Y-143861069D01*
X99143369Y-143856000D01*
X100246631Y-143856000D01*
X100298097Y-143861069D01*
X100298097Y-143861069D01*
G37*
G36*
X93022823Y-143560313D02*
G01*
X93183242Y-143608976D01*
X93315906Y-143679886D01*
X93331078Y-143687996D01*
X93460659Y-143794341D01*
X93567004Y-143923922D01*
X93567005Y-143923924D01*
X93646024Y-144071758D01*
X93694687Y-144232177D01*
X93711117Y-144399000D01*
X93694687Y-144565823D01*
X93646024Y-144726242D01*
X93577815Y-144853851D01*
X93567004Y-144874078D01*
X93460659Y-145003659D01*
X93331078Y-145110004D01*
X93331076Y-145110005D01*
X93183242Y-145189024D01*
X93022823Y-145237687D01*
X92897804Y-145250000D01*
X92014196Y-145250000D01*
X91889177Y-145237687D01*
X91728758Y-145189024D01*
X91580924Y-145110005D01*
X91580922Y-145110004D01*
X91451341Y-145003659D01*
X91344996Y-144874078D01*
X91334185Y-144853851D01*
X91265976Y-144726242D01*
X91217313Y-144565823D01*
X91200883Y-144399000D01*
X91217313Y-144232177D01*
X91265976Y-144071758D01*
X91344995Y-143923924D01*
X91344996Y-143923922D01*
X91451341Y-143794341D01*
X91580922Y-143687996D01*
X91596094Y-143679886D01*
X91728758Y-143608976D01*
X91889177Y-143560313D01*
X92014196Y-143548000D01*
X92897804Y-143548000D01*
X93022823Y-143560313D01*
X93022823Y-143560313D01*
G37*
G36*
X85402823Y-143560313D02*
G01*
X85563242Y-143608976D01*
X85695906Y-143679886D01*
X85711078Y-143687996D01*
X85840659Y-143794341D01*
X85947004Y-143923922D01*
X85947005Y-143923924D01*
X86026024Y-144071758D01*
X86074687Y-144232177D01*
X86091117Y-144399000D01*
X86074687Y-144565823D01*
X86026024Y-144726242D01*
X85957815Y-144853851D01*
X85947004Y-144874078D01*
X85840659Y-145003659D01*
X85711078Y-145110004D01*
X85711076Y-145110005D01*
X85563242Y-145189024D01*
X85402823Y-145237687D01*
X85277804Y-145250000D01*
X84394196Y-145250000D01*
X84269177Y-145237687D01*
X84108758Y-145189024D01*
X83960924Y-145110005D01*
X83960922Y-145110004D01*
X83831341Y-145003659D01*
X83724996Y-144874078D01*
X83714185Y-144853851D01*
X83645976Y-144726242D01*
X83597313Y-144565823D01*
X83580883Y-144399000D01*
X83597313Y-144232177D01*
X83645976Y-144071758D01*
X83724995Y-143923924D01*
X83724996Y-143923922D01*
X83831341Y-143794341D01*
X83960922Y-143687996D01*
X83976094Y-143679886D01*
X84108758Y-143608976D01*
X84269177Y-143560313D01*
X84394196Y-143548000D01*
X85277804Y-143548000D01*
X85402823Y-143560313D01*
X85402823Y-143560313D01*
G37*
G36*
X159226097Y-141672069D02*
G01*
X159329032Y-141682207D01*
X159527146Y-141742305D01*
X159527149Y-141742306D01*
X159623975Y-141794061D01*
X159709729Y-141839897D01*
X159869765Y-141971235D01*
X160001103Y-142131271D01*
X160030484Y-142186239D01*
X160098694Y-142313851D01*
X160098695Y-142313854D01*
X160158793Y-142511968D01*
X160179085Y-142718000D01*
X160158793Y-142924032D01*
X160098695Y-143122146D01*
X160098694Y-143122149D01*
X160046939Y-143218975D01*
X160001103Y-143304729D01*
X159869765Y-143464765D01*
X159709729Y-143596103D01*
X159623975Y-143641939D01*
X159527149Y-143693694D01*
X159527146Y-143693695D01*
X159329032Y-143753793D01*
X159226097Y-143763931D01*
X159174631Y-143769000D01*
X158071369Y-143769000D01*
X158019903Y-143763931D01*
X157916968Y-143753793D01*
X157718854Y-143693695D01*
X157718851Y-143693694D01*
X157622025Y-143641939D01*
X157536271Y-143596103D01*
X157376235Y-143464765D01*
X157244897Y-143304729D01*
X157199061Y-143218975D01*
X157147306Y-143122149D01*
X157147305Y-143122146D01*
X157087207Y-142924032D01*
X157066915Y-142718000D01*
X157087207Y-142511968D01*
X157147305Y-142313854D01*
X157147306Y-142313851D01*
X157215516Y-142186239D01*
X157244897Y-142131271D01*
X157376235Y-141971235D01*
X157536271Y-141839897D01*
X157622025Y-141794061D01*
X157718851Y-141742306D01*
X157718854Y-141742305D01*
X157916968Y-141682207D01*
X158019903Y-141672069D01*
X158071369Y-141667000D01*
X159174631Y-141667000D01*
X159226097Y-141672069D01*
X159226097Y-141672069D01*
G37*
G36*
X136226097Y-141672069D02*
G01*
X136329032Y-141682207D01*
X136527146Y-141742305D01*
X136527149Y-141742306D01*
X136623975Y-141794061D01*
X136709729Y-141839897D01*
X136869765Y-141971235D01*
X137001103Y-142131271D01*
X137030484Y-142186239D01*
X137098694Y-142313851D01*
X137098695Y-142313854D01*
X137158793Y-142511968D01*
X137179085Y-142718000D01*
X137158793Y-142924032D01*
X137098695Y-143122146D01*
X137098694Y-143122149D01*
X137046939Y-143218975D01*
X137001103Y-143304729D01*
X136869765Y-143464765D01*
X136709729Y-143596103D01*
X136623975Y-143641939D01*
X136527149Y-143693694D01*
X136527146Y-143693695D01*
X136329032Y-143753793D01*
X136226097Y-143763931D01*
X136174631Y-143769000D01*
X135071369Y-143769000D01*
X135019903Y-143763931D01*
X134916968Y-143753793D01*
X134718854Y-143693695D01*
X134718851Y-143693694D01*
X134622025Y-143641939D01*
X134536271Y-143596103D01*
X134376235Y-143464765D01*
X134244897Y-143304729D01*
X134199061Y-143218975D01*
X134147306Y-143122149D01*
X134147305Y-143122146D01*
X134087207Y-142924032D01*
X134066915Y-142718000D01*
X134087207Y-142511968D01*
X134147305Y-142313854D01*
X134147306Y-142313851D01*
X134215516Y-142186239D01*
X134244897Y-142131271D01*
X134376235Y-141971235D01*
X134536271Y-141839897D01*
X134622025Y-141794061D01*
X134718851Y-141742306D01*
X134718854Y-141742305D01*
X134916968Y-141682207D01*
X135019903Y-141672069D01*
X135071369Y-141667000D01*
X136174631Y-141667000D01*
X136226097Y-141672069D01*
X136226097Y-141672069D01*
G37*
G36*
X100596000Y-143513000D02*
G01*
X98794000Y-143513000D01*
X98794000Y-141411000D01*
X100596000Y-141411000D01*
X100596000Y-143513000D01*
X100596000Y-143513000D01*
G37*
G36*
X85402823Y-141020313D02*
G01*
X85563242Y-141068976D01*
X85695906Y-141139886D01*
X85711078Y-141147996D01*
X85840659Y-141254341D01*
X85947004Y-141383922D01*
X85947005Y-141383924D01*
X86026024Y-141531758D01*
X86074687Y-141692177D01*
X86091117Y-141859000D01*
X86074687Y-142025823D01*
X86026024Y-142186242D01*
X85957815Y-142313851D01*
X85947004Y-142334078D01*
X85840659Y-142463659D01*
X85711078Y-142570004D01*
X85711076Y-142570005D01*
X85563242Y-142649024D01*
X85402823Y-142697687D01*
X85277804Y-142710000D01*
X84394196Y-142710000D01*
X84269177Y-142697687D01*
X84108758Y-142649024D01*
X83960924Y-142570005D01*
X83960922Y-142570004D01*
X83831341Y-142463659D01*
X83724996Y-142334078D01*
X83714185Y-142313851D01*
X83645976Y-142186242D01*
X83597313Y-142025823D01*
X83580883Y-141859000D01*
X83597313Y-141692177D01*
X83645976Y-141531758D01*
X83724995Y-141383924D01*
X83724996Y-141383922D01*
X83831341Y-141254341D01*
X83960922Y-141147996D01*
X83976094Y-141139886D01*
X84108758Y-141068976D01*
X84269177Y-141020313D01*
X84394196Y-141008000D01*
X85277804Y-141008000D01*
X85402823Y-141020313D01*
X85402823Y-141020313D01*
G37*
G36*
X93022823Y-141020313D02*
G01*
X93183242Y-141068976D01*
X93315906Y-141139886D01*
X93331078Y-141147996D01*
X93460659Y-141254341D01*
X93567004Y-141383922D01*
X93567005Y-141383924D01*
X93646024Y-141531758D01*
X93694687Y-141692177D01*
X93711117Y-141859000D01*
X93694687Y-142025823D01*
X93646024Y-142186242D01*
X93577815Y-142313851D01*
X93567004Y-142334078D01*
X93460659Y-142463659D01*
X93331078Y-142570004D01*
X93331076Y-142570005D01*
X93183242Y-142649024D01*
X93022823Y-142697687D01*
X92897804Y-142710000D01*
X92014196Y-142710000D01*
X91889177Y-142697687D01*
X91728758Y-142649024D01*
X91580924Y-142570005D01*
X91580922Y-142570004D01*
X91451341Y-142463659D01*
X91344996Y-142334078D01*
X91334185Y-142313851D01*
X91265976Y-142186242D01*
X91217313Y-142025823D01*
X91200883Y-141859000D01*
X91217313Y-141692177D01*
X91265976Y-141531758D01*
X91344995Y-141383924D01*
X91344996Y-141383922D01*
X91451341Y-141254341D01*
X91580922Y-141147996D01*
X91596094Y-141139886D01*
X91728758Y-141068976D01*
X91889177Y-141020313D01*
X92014196Y-141008000D01*
X92897804Y-141008000D01*
X93022823Y-141020313D01*
X93022823Y-141020313D01*
G37*
G36*
X136466098Y-135767033D02*
G01*
X136930350Y-135959332D01*
X136930352Y-135959333D01*
X137348168Y-136238509D01*
X137703491Y-136593832D01*
X137882923Y-136862371D01*
X137982668Y-137011650D01*
X138174967Y-137475902D01*
X138273000Y-137968747D01*
X138273000Y-138471253D01*
X138174967Y-138964098D01*
X137982668Y-139428350D01*
X137982667Y-139428352D01*
X137703491Y-139846168D01*
X137348168Y-140201491D01*
X136930352Y-140480667D01*
X136930351Y-140480668D01*
X136930350Y-140480668D01*
X136466098Y-140672967D01*
X135973253Y-140771000D01*
X135470747Y-140771000D01*
X134977902Y-140672967D01*
X134513650Y-140480668D01*
X134513649Y-140480668D01*
X134513648Y-140480667D01*
X134095832Y-140201491D01*
X133740509Y-139846168D01*
X133461333Y-139428352D01*
X133461332Y-139428350D01*
X133269033Y-138964098D01*
X133171000Y-138471253D01*
X133171000Y-137968747D01*
X133269033Y-137475902D01*
X133461332Y-137011650D01*
X133561077Y-136862371D01*
X133740509Y-136593832D01*
X134095832Y-136238509D01*
X134513648Y-135959333D01*
X134513650Y-135959332D01*
X134977902Y-135767033D01*
X135470747Y-135669000D01*
X135973253Y-135669000D01*
X136466098Y-135767033D01*
X136466098Y-135767033D01*
G37*
G36*
X107466098Y-135767033D02*
G01*
X107930350Y-135959332D01*
X107930352Y-135959333D01*
X108348168Y-136238509D01*
X108703491Y-136593832D01*
X108882923Y-136862371D01*
X108982668Y-137011650D01*
X109174967Y-137475902D01*
X109273000Y-137968747D01*
X109273000Y-138471253D01*
X109174967Y-138964098D01*
X108982668Y-139428350D01*
X108982667Y-139428352D01*
X108703491Y-139846168D01*
X108348168Y-140201491D01*
X107930352Y-140480667D01*
X107930351Y-140480668D01*
X107930350Y-140480668D01*
X107466098Y-140672967D01*
X106973253Y-140771000D01*
X106470747Y-140771000D01*
X105977902Y-140672967D01*
X105513650Y-140480668D01*
X105513649Y-140480668D01*
X105513648Y-140480667D01*
X105095832Y-140201491D01*
X104740509Y-139846168D01*
X104461333Y-139428352D01*
X104461332Y-139428350D01*
X104269033Y-138964098D01*
X104171000Y-138471253D01*
X104171000Y-137968747D01*
X104269033Y-137475902D01*
X104461332Y-137011650D01*
X104561077Y-136862371D01*
X104740509Y-136593832D01*
X105095832Y-136238509D01*
X105513648Y-135959333D01*
X105513650Y-135959332D01*
X105977902Y-135767033D01*
X106470747Y-135669000D01*
X106973253Y-135669000D01*
X107466098Y-135767033D01*
X107466098Y-135767033D01*
G37*
G36*
X86087000Y-140170000D02*
G01*
X83585000Y-140170000D01*
X83585000Y-138468000D01*
X86087000Y-138468000D01*
X86087000Y-140170000D01*
X86087000Y-140170000D01*
G37*
G36*
X93022823Y-138480313D02*
G01*
X93183242Y-138528976D01*
X93315906Y-138599886D01*
X93331078Y-138607996D01*
X93460659Y-138714341D01*
X93567004Y-138843922D01*
X93567005Y-138843924D01*
X93646024Y-138991758D01*
X93694687Y-139152177D01*
X93711117Y-139319000D01*
X93694687Y-139485823D01*
X93646024Y-139646242D01*
X93641877Y-139654000D01*
X93567004Y-139794078D01*
X93460659Y-139923659D01*
X93331078Y-140030004D01*
X93331076Y-140030005D01*
X93183242Y-140109024D01*
X93022823Y-140157687D01*
X92897804Y-140170000D01*
X92014196Y-140170000D01*
X91889177Y-140157687D01*
X91728758Y-140109024D01*
X91580924Y-140030005D01*
X91580922Y-140030004D01*
X91451341Y-139923659D01*
X91344996Y-139794078D01*
X91270123Y-139654000D01*
X91265976Y-139646242D01*
X91217313Y-139485823D01*
X91200883Y-139319000D01*
X91217313Y-139152177D01*
X91265976Y-138991758D01*
X91344995Y-138843924D01*
X91344996Y-138843922D01*
X91451341Y-138714341D01*
X91580922Y-138607996D01*
X91596094Y-138599886D01*
X91728758Y-138528976D01*
X91889177Y-138480313D01*
X92014196Y-138468000D01*
X92897804Y-138468000D01*
X93022823Y-138480313D01*
X93022823Y-138480313D01*
G37*
G36*
X142333000Y-139654000D02*
G01*
X141131000Y-139654000D01*
X141131000Y-137752000D01*
X142333000Y-137752000D01*
X142333000Y-139654000D01*
X142333000Y-139654000D01*
G37*
G36*
X144681315Y-137757166D02*
G01*
X144725843Y-137770674D01*
X144766892Y-137792615D01*
X144802864Y-137822136D01*
X144832385Y-137858108D01*
X144854326Y-137899157D01*
X144867834Y-137943685D01*
X144873000Y-137996140D01*
X144873000Y-139409860D01*
X144867834Y-139462315D01*
X144854326Y-139506843D01*
X144832385Y-139547892D01*
X144802864Y-139583864D01*
X144766892Y-139613385D01*
X144725843Y-139635326D01*
X144681315Y-139648834D01*
X144628860Y-139654000D01*
X143915140Y-139654000D01*
X143862685Y-139648834D01*
X143818157Y-139635326D01*
X143777108Y-139613385D01*
X143741136Y-139583864D01*
X143711615Y-139547892D01*
X143689674Y-139506843D01*
X143676166Y-139462315D01*
X143671000Y-139409860D01*
X143671000Y-137996140D01*
X143676166Y-137943685D01*
X143689674Y-137899157D01*
X143711615Y-137858108D01*
X143741136Y-137822136D01*
X143777108Y-137792615D01*
X143818157Y-137770674D01*
X143862685Y-137757166D01*
X143915140Y-137752000D01*
X144628860Y-137752000D01*
X144681315Y-137757166D01*
X144681315Y-137757166D01*
G37*
G36*
X100596000Y-139513000D02*
G01*
X98794000Y-139513000D01*
X98794000Y-137411000D01*
X100596000Y-137411000D01*
X100596000Y-139513000D01*
X100596000Y-139513000D01*
G37*
G36*
X150828031Y-135878207D02*
G01*
X151026145Y-135938305D01*
X151026148Y-135938306D01*
X151092030Y-135973521D01*
X151208729Y-136035897D01*
X151368765Y-136167235D01*
X151500103Y-136327271D01*
X151500104Y-136327273D01*
X151597694Y-136509851D01*
X151597694Y-136509852D01*
X151597695Y-136509854D01*
X151657793Y-136707968D01*
X151673000Y-136862370D01*
X151673000Y-137965630D01*
X151657793Y-138120032D01*
X151598649Y-138315000D01*
X151597694Y-138318149D01*
X151545939Y-138414975D01*
X151500103Y-138500729D01*
X151368765Y-138660765D01*
X151208729Y-138792103D01*
X151122975Y-138837939D01*
X151026149Y-138889694D01*
X151026146Y-138889695D01*
X150828032Y-138949793D01*
X150622000Y-138970085D01*
X150415969Y-138949793D01*
X150217855Y-138889695D01*
X150217852Y-138889694D01*
X150121026Y-138837939D01*
X150035272Y-138792103D01*
X149875236Y-138660765D01*
X149743898Y-138500729D01*
X149721184Y-138458234D01*
X149646305Y-138318147D01*
X149586207Y-138120030D01*
X149571000Y-137965631D01*
X149571000Y-136862370D01*
X149586207Y-136707971D01*
X149586207Y-136707969D01*
X149646305Y-136509855D01*
X149646306Y-136509852D01*
X149693719Y-136421149D01*
X149743897Y-136327271D01*
X149875235Y-136167235D01*
X150035271Y-136035897D01*
X150135170Y-135982500D01*
X150217851Y-135938306D01*
X150217854Y-135938305D01*
X150415968Y-135878207D01*
X150622000Y-135857915D01*
X150828031Y-135878207D01*
X150828031Y-135878207D01*
G37*
G36*
X159718031Y-135878207D02*
G01*
X159916145Y-135938305D01*
X159916148Y-135938306D01*
X159982030Y-135973521D01*
X160098729Y-136035897D01*
X160258765Y-136167235D01*
X160390103Y-136327271D01*
X160390104Y-136327273D01*
X160487694Y-136509851D01*
X160487694Y-136509852D01*
X160487695Y-136509854D01*
X160547793Y-136707968D01*
X160563000Y-136862370D01*
X160563000Y-137965630D01*
X160547793Y-138120032D01*
X160488649Y-138315000D01*
X160487694Y-138318149D01*
X160435939Y-138414975D01*
X160390103Y-138500729D01*
X160258765Y-138660765D01*
X160098729Y-138792103D01*
X160012975Y-138837939D01*
X159916149Y-138889694D01*
X159916146Y-138889695D01*
X159718032Y-138949793D01*
X159512000Y-138970085D01*
X159305969Y-138949793D01*
X159107855Y-138889695D01*
X159107852Y-138889694D01*
X159011026Y-138837939D01*
X158925272Y-138792103D01*
X158765236Y-138660765D01*
X158633898Y-138500729D01*
X158611184Y-138458234D01*
X158536305Y-138318147D01*
X158476207Y-138120030D01*
X158461000Y-137965631D01*
X158461000Y-136862370D01*
X158476207Y-136707971D01*
X158476207Y-136707969D01*
X158536305Y-136509855D01*
X158536306Y-136509852D01*
X158583719Y-136421149D01*
X158633897Y-136327271D01*
X158765235Y-136167235D01*
X158925271Y-136035897D01*
X159025170Y-135982500D01*
X159107851Y-135938306D01*
X159107854Y-135938305D01*
X159305968Y-135878207D01*
X159512000Y-135857915D01*
X159718031Y-135878207D01*
X159718031Y-135878207D01*
G37*
G36*
X158118000Y-138315000D02*
G01*
X156016000Y-138315000D01*
X156016000Y-136513000D01*
X158118000Y-136513000D01*
X158118000Y-138315000D01*
X158118000Y-138315000D01*
G37*
G36*
X154118000Y-138315000D02*
G01*
X152016000Y-138315000D01*
X152016000Y-136513000D01*
X154118000Y-136513000D01*
X154118000Y-138315000D01*
X154118000Y-138315000D01*
G37*
G36*
X143411315Y-135687166D02*
G01*
X143455843Y-135700674D01*
X143496892Y-135722615D01*
X143532864Y-135752136D01*
X143562385Y-135788108D01*
X143584326Y-135829157D01*
X143597834Y-135873685D01*
X143603000Y-135926140D01*
X143603000Y-137339860D01*
X143597834Y-137392315D01*
X143584326Y-137436843D01*
X143562385Y-137477892D01*
X143532864Y-137513864D01*
X143496892Y-137543385D01*
X143455843Y-137565326D01*
X143411315Y-137578834D01*
X143358860Y-137584000D01*
X142645140Y-137584000D01*
X142592685Y-137578834D01*
X142548153Y-137565325D01*
X142516923Y-137548632D01*
X142502320Y-137542583D01*
X142491256Y-137530376D01*
X142471136Y-137513864D01*
X142441615Y-137477892D01*
X142419674Y-137436843D01*
X142406166Y-137392315D01*
X142401000Y-137339860D01*
X142401000Y-135926140D01*
X142406166Y-135873685D01*
X142419674Y-135829157D01*
X142441615Y-135788108D01*
X142471136Y-135752136D01*
X142507108Y-135722615D01*
X142548157Y-135700674D01*
X142592685Y-135687166D01*
X142645140Y-135682000D01*
X143358860Y-135682000D01*
X143411315Y-135687166D01*
X143411315Y-135687166D01*
G37*
G36*
X100298097Y-134971069D02*
G01*
X100401032Y-134981207D01*
X100599146Y-135041305D01*
X100599149Y-135041306D01*
X100695975Y-135093061D01*
X100781729Y-135138897D01*
X100941765Y-135270235D01*
X101073103Y-135430271D01*
X101118939Y-135516025D01*
X101170694Y-135612851D01*
X101170695Y-135612854D01*
X101230793Y-135810968D01*
X101251085Y-136017000D01*
X101230793Y-136223032D01*
X101199171Y-136327273D01*
X101170694Y-136421149D01*
X101123282Y-136509851D01*
X101073103Y-136603729D01*
X100941765Y-136763765D01*
X100781729Y-136895103D01*
X100695975Y-136940939D01*
X100599149Y-136992694D01*
X100599146Y-136992695D01*
X100401032Y-137052793D01*
X100298097Y-137062931D01*
X100246631Y-137068000D01*
X99143369Y-137068000D01*
X99091903Y-137062931D01*
X98988968Y-137052793D01*
X98790854Y-136992695D01*
X98790851Y-136992694D01*
X98694025Y-136940939D01*
X98608271Y-136895103D01*
X98448235Y-136763765D01*
X98316897Y-136603729D01*
X98266718Y-136509851D01*
X98219306Y-136421149D01*
X98190829Y-136327273D01*
X98159207Y-136223032D01*
X98138915Y-136017000D01*
X98159207Y-135810968D01*
X98219305Y-135612854D01*
X98219306Y-135612851D01*
X98271061Y-135516025D01*
X98316897Y-135430271D01*
X98448235Y-135270235D01*
X98608271Y-135138897D01*
X98694025Y-135093061D01*
X98790851Y-135041306D01*
X98790854Y-135041305D01*
X98988968Y-134981207D01*
X99091903Y-134971069D01*
X99143369Y-134966000D01*
X100246631Y-134966000D01*
X100298097Y-134971069D01*
X100298097Y-134971069D01*
G37*
G36*
X87298627Y-130034037D02*
G01*
X87468466Y-130085557D01*
X87624991Y-130169222D01*
X87660729Y-130198552D01*
X87762186Y-130281814D01*
X87845448Y-130383271D01*
X87874778Y-130419009D01*
X87958443Y-130575534D01*
X88009963Y-130745373D01*
X88023000Y-130877742D01*
X88023000Y-132266258D01*
X88009963Y-132398627D01*
X87958443Y-132568466D01*
X87874778Y-132724991D01*
X87845448Y-132760729D01*
X87762186Y-132862186D01*
X87624989Y-132974779D01*
X87468467Y-133058442D01*
X87468465Y-133058443D01*
X87298626Y-133109963D01*
X87122000Y-133127359D01*
X86945373Y-133109963D01*
X86775534Y-133058443D01*
X86619009Y-132974778D01*
X86583271Y-132945448D01*
X86481814Y-132862186D01*
X86369221Y-132724989D01*
X86285558Y-132568467D01*
X86285557Y-132568465D01*
X86234037Y-132398626D01*
X86221000Y-132266257D01*
X86221001Y-130877742D01*
X86234038Y-130745373D01*
X86285558Y-130575534D01*
X86369223Y-130419009D01*
X86398553Y-130383271D01*
X86481815Y-130281814D01*
X86583272Y-130198552D01*
X86619010Y-130169222D01*
X86775535Y-130085557D01*
X86945374Y-130034037D01*
X87122000Y-130016641D01*
X87298627Y-130034037D01*
X87298627Y-130034037D01*
G37*
G36*
X152957627Y-130034037D02*
G01*
X153127466Y-130085557D01*
X153283991Y-130169222D01*
X153319729Y-130198552D01*
X153421186Y-130281814D01*
X153504448Y-130383271D01*
X153533778Y-130419009D01*
X153617443Y-130575534D01*
X153668963Y-130745373D01*
X153682000Y-130877742D01*
X153682000Y-132266258D01*
X153668963Y-132398627D01*
X153617443Y-132568466D01*
X153533778Y-132724991D01*
X153504448Y-132760729D01*
X153421186Y-132862186D01*
X153283989Y-132974779D01*
X153127467Y-133058442D01*
X153127465Y-133058443D01*
X152957626Y-133109963D01*
X152781000Y-133127359D01*
X152604373Y-133109963D01*
X152434534Y-133058443D01*
X152278009Y-132974778D01*
X152242271Y-132945448D01*
X152140814Y-132862186D01*
X152028221Y-132724989D01*
X151944558Y-132568467D01*
X151944557Y-132568465D01*
X151893037Y-132398626D01*
X151880000Y-132266257D01*
X151880001Y-130877742D01*
X151893038Y-130745373D01*
X151944558Y-130575534D01*
X152028223Y-130419009D01*
X152057553Y-130383271D01*
X152140815Y-130281814D01*
X152242272Y-130198552D01*
X152278010Y-130169222D01*
X152434535Y-130085557D01*
X152604374Y-130034037D01*
X152781000Y-130016641D01*
X152957627Y-130034037D01*
X152957627Y-130034037D01*
G37*
G36*
X90563000Y-133123000D02*
G01*
X88761000Y-133123000D01*
X88761000Y-130021000D01*
X90563000Y-130021000D01*
X90563000Y-133123000D01*
X90563000Y-133123000D01*
G37*
G36*
X156222000Y-133123000D02*
G01*
X154420000Y-133123000D01*
X154420000Y-130021000D01*
X156222000Y-130021000D01*
X156222000Y-133123000D01*
X156222000Y-133123000D01*
G37*
G36*
X119130903Y-123333213D02*
G01*
X119353177Y-123377426D01*
X119771932Y-123550880D01*
X120148802Y-123802696D01*
X120469304Y-124123198D01*
X120721120Y-124500068D01*
X120894574Y-124918823D01*
X120983000Y-125363371D01*
X120983000Y-125816629D01*
X120894574Y-126261177D01*
X120721120Y-126679932D01*
X120469304Y-127056802D01*
X120148802Y-127377304D01*
X119771932Y-127629120D01*
X119353177Y-127802574D01*
X119130903Y-127846787D01*
X118908630Y-127891000D01*
X118455370Y-127891000D01*
X118233097Y-127846787D01*
X118010823Y-127802574D01*
X117592068Y-127629120D01*
X117215198Y-127377304D01*
X116894696Y-127056802D01*
X116642880Y-126679932D01*
X116469426Y-126261177D01*
X116381000Y-125816629D01*
X116381000Y-125363371D01*
X116469426Y-124918823D01*
X116642880Y-124500068D01*
X116894696Y-124123198D01*
X117215198Y-123802696D01*
X117592068Y-123550880D01*
X118010823Y-123377426D01*
X118233097Y-123333213D01*
X118455370Y-123289000D01*
X118908630Y-123289000D01*
X119130903Y-123333213D01*
X119130903Y-123333213D01*
G37*
G36*
X124210903Y-123333213D02*
G01*
X124433177Y-123377426D01*
X124851932Y-123550880D01*
X125228802Y-123802696D01*
X125549304Y-124123198D01*
X125801120Y-124500068D01*
X125974574Y-124918823D01*
X126063000Y-125363371D01*
X126063000Y-125816629D01*
X125974574Y-126261177D01*
X125801120Y-126679932D01*
X125549304Y-127056802D01*
X125228802Y-127377304D01*
X124851932Y-127629120D01*
X124433177Y-127802574D01*
X124210903Y-127846787D01*
X123988630Y-127891000D01*
X123535370Y-127891000D01*
X123313097Y-127846787D01*
X123090823Y-127802574D01*
X122672068Y-127629120D01*
X122295198Y-127377304D01*
X121974696Y-127056802D01*
X121722880Y-126679932D01*
X121549426Y-126261177D01*
X121461000Y-125816629D01*
X121461000Y-125363371D01*
X121549426Y-124918823D01*
X121722880Y-124500068D01*
X121974696Y-124123198D01*
X122295198Y-123802696D01*
X122672068Y-123550880D01*
X123090823Y-123377426D01*
X123313097Y-123333213D01*
X123535370Y-123289000D01*
X123988630Y-123289000D01*
X124210903Y-123333213D01*
X124210903Y-123333213D01*
G37*
G36*
X121670903Y-115713213D02*
G01*
X121893177Y-115757426D01*
X122311932Y-115930880D01*
X122688802Y-116182696D01*
X123009304Y-116503198D01*
X123261120Y-116880068D01*
X123434574Y-117298823D01*
X123523000Y-117743371D01*
X123523000Y-118196629D01*
X123434574Y-118641177D01*
X123261120Y-119059932D01*
X123009304Y-119436802D01*
X122688802Y-119757304D01*
X122311932Y-120009120D01*
X121893177Y-120182574D01*
X121670903Y-120226787D01*
X121448630Y-120271000D01*
X120995370Y-120271000D01*
X120773097Y-120226787D01*
X120550823Y-120182574D01*
X120132068Y-120009120D01*
X119755198Y-119757304D01*
X119434696Y-119436802D01*
X119182880Y-119059932D01*
X119009426Y-118641177D01*
X118921000Y-118196629D01*
X118921000Y-117743371D01*
X119009426Y-117298823D01*
X119182880Y-116880068D01*
X119434696Y-116503198D01*
X119755198Y-116182696D01*
X120132068Y-115930880D01*
X120550823Y-115757426D01*
X120773097Y-115713213D01*
X120995370Y-115669000D01*
X121448630Y-115669000D01*
X121670903Y-115713213D01*
X121670903Y-115713213D01*
G37*
G36*
X101445058Y-111017059D02*
G01*
X101784548Y-111120042D01*
X101784550Y-111120043D01*
X102097422Y-111287277D01*
X102097424Y-111287278D01*
X102097423Y-111287278D01*
X102371661Y-111512339D01*
X102596722Y-111786577D01*
X102763958Y-112099452D01*
X102866941Y-112438942D01*
X102893000Y-112703525D01*
X102893000Y-114880475D01*
X102866941Y-115145058D01*
X102763958Y-115484547D01*
X102763957Y-115484550D01*
X102596723Y-115797422D01*
X102371661Y-116071661D01*
X102097423Y-116296723D01*
X101784549Y-116463957D01*
X101784547Y-116463958D01*
X101445057Y-116566941D01*
X101092000Y-116601714D01*
X100738942Y-116566941D01*
X100399452Y-116463958D01*
X100399450Y-116463957D01*
X100086578Y-116296723D01*
X99812339Y-116071661D01*
X99587277Y-115797423D01*
X99420043Y-115484549D01*
X99420042Y-115484547D01*
X99317059Y-115145057D01*
X99291000Y-114880474D01*
X99291001Y-112703525D01*
X99317060Y-112438942D01*
X99420043Y-112099452D01*
X99587279Y-111786577D01*
X99812340Y-111512339D01*
X100086578Y-111287278D01*
X100086577Y-111287278D01*
X100086579Y-111287277D01*
X100399451Y-111120043D01*
X100399453Y-111120042D01*
X100738943Y-111017059D01*
X101092000Y-110982286D01*
X101445058Y-111017059D01*
X101445058Y-111017059D01*
G37*
G36*
X141704058Y-111017059D02*
G01*
X142043548Y-111120042D01*
X142043550Y-111120043D01*
X142356422Y-111287277D01*
X142356424Y-111287278D01*
X142356423Y-111287278D01*
X142630661Y-111512339D01*
X142855722Y-111786577D01*
X143022958Y-112099452D01*
X143125941Y-112438942D01*
X143152000Y-112703525D01*
X143152000Y-114880475D01*
X143125941Y-115145058D01*
X143022958Y-115484547D01*
X143022957Y-115484550D01*
X142855723Y-115797422D01*
X142630661Y-116071661D01*
X142356423Y-116296723D01*
X142043549Y-116463957D01*
X142043547Y-116463958D01*
X141704057Y-116566941D01*
X141351000Y-116601714D01*
X140997942Y-116566941D01*
X140658452Y-116463958D01*
X140658450Y-116463957D01*
X140345578Y-116296723D01*
X140071339Y-116071661D01*
X139846277Y-115797423D01*
X139679043Y-115484549D01*
X139679042Y-115484547D01*
X139576059Y-115145057D01*
X139550000Y-114880474D01*
X139550001Y-112703525D01*
X139576060Y-112438942D01*
X139679043Y-112099452D01*
X139846279Y-111786577D01*
X140071340Y-111512339D01*
X140345578Y-111287278D01*
X140345577Y-111287278D01*
X140345579Y-111287277D01*
X140658451Y-111120043D01*
X140658453Y-111120042D01*
X140997943Y-111017059D01*
X141351000Y-110982286D01*
X141704058Y-111017059D01*
X141704058Y-111017059D01*
G37*
G36*
X151051000Y-106051000D02*
G01*
X148949000Y-106051000D01*
X148949000Y-103949000D01*
X151051000Y-103949000D01*
X151051000Y-106051000D01*
X151051000Y-106051000D01*
G37*
G36*
X161051000Y-106051000D02*
G01*
X158949000Y-106051000D01*
X158949000Y-103949000D01*
X161051000Y-103949000D01*
X161051000Y-106051000D01*
X161051000Y-106051000D01*
G37*
G36*
X119498895Y-101209546D02*
G01*
X119671966Y-101281234D01*
X119671967Y-101281235D01*
X119827727Y-101385310D01*
X119960190Y-101517773D01*
X119960191Y-101517775D01*
X120064266Y-101673534D01*
X120106016Y-101774328D01*
X120117567Y-101795938D01*
X120133112Y-101814880D01*
X120152054Y-101830426D01*
X120173665Y-101841977D01*
X120197114Y-101849090D01*
X120221500Y-101851492D01*
X120245886Y-101849090D01*
X120269335Y-101841977D01*
X120290945Y-101830426D01*
X120309887Y-101814881D01*
X120325433Y-101795939D01*
X120336984Y-101774328D01*
X120378734Y-101673534D01*
X120482809Y-101517775D01*
X120482810Y-101517773D01*
X120615273Y-101385310D01*
X120771033Y-101281235D01*
X120771034Y-101281234D01*
X120944105Y-101209546D01*
X121127833Y-101173000D01*
X121315167Y-101173000D01*
X121498895Y-101209546D01*
X121671966Y-101281234D01*
X121671967Y-101281235D01*
X121827727Y-101385310D01*
X121960190Y-101517773D01*
X121960191Y-101517775D01*
X122064266Y-101673534D01*
X122106016Y-101774328D01*
X122117567Y-101795938D01*
X122133112Y-101814880D01*
X122152054Y-101830426D01*
X122173665Y-101841977D01*
X122197114Y-101849090D01*
X122221500Y-101851492D01*
X122245886Y-101849090D01*
X122269335Y-101841977D01*
X122290945Y-101830426D01*
X122309887Y-101814881D01*
X122325433Y-101795939D01*
X122336984Y-101774328D01*
X122378734Y-101673534D01*
X122482809Y-101517775D01*
X122482810Y-101517773D01*
X122615273Y-101385310D01*
X122771033Y-101281235D01*
X122771034Y-101281234D01*
X122944105Y-101209546D01*
X123127833Y-101173000D01*
X123315167Y-101173000D01*
X123498895Y-101209546D01*
X123671966Y-101281234D01*
X123671967Y-101281235D01*
X123827727Y-101385310D01*
X123960190Y-101517773D01*
X123960191Y-101517775D01*
X124064266Y-101673534D01*
X124135954Y-101846605D01*
X124172500Y-102030333D01*
X124172500Y-102217667D01*
X124135954Y-102401395D01*
X124064266Y-102574466D01*
X124064265Y-102574467D01*
X123960190Y-102730227D01*
X123827727Y-102862690D01*
X123749318Y-102915081D01*
X123671966Y-102966766D01*
X123571172Y-103008516D01*
X123549562Y-103020067D01*
X123530620Y-103035612D01*
X123515074Y-103054554D01*
X123503523Y-103076165D01*
X123496410Y-103099614D01*
X123494008Y-103124000D01*
X123496410Y-103148386D01*
X123503523Y-103171835D01*
X123515074Y-103193445D01*
X123530619Y-103212387D01*
X123549561Y-103227933D01*
X123571172Y-103239484D01*
X123671966Y-103281234D01*
X123671967Y-103281235D01*
X123827727Y-103385310D01*
X123960190Y-103517773D01*
X123960191Y-103517775D01*
X124064266Y-103673534D01*
X124135954Y-103846605D01*
X124172500Y-104030333D01*
X124172500Y-104217667D01*
X124135954Y-104401395D01*
X124064266Y-104574466D01*
X124064265Y-104574467D01*
X123960190Y-104730227D01*
X123827727Y-104862690D01*
X123749318Y-104915081D01*
X123671966Y-104966766D01*
X123498895Y-105038454D01*
X123315167Y-105075000D01*
X123127833Y-105075000D01*
X122944105Y-105038454D01*
X122771034Y-104966766D01*
X122693682Y-104915081D01*
X122615273Y-104862690D01*
X122482810Y-104730227D01*
X122378735Y-104574467D01*
X122378734Y-104574466D01*
X122336984Y-104473672D01*
X122325433Y-104452062D01*
X122309888Y-104433120D01*
X122290946Y-104417574D01*
X122269335Y-104406023D01*
X122245886Y-104398910D01*
X122221500Y-104396508D01*
X122197114Y-104398910D01*
X122173665Y-104406023D01*
X122152055Y-104417574D01*
X122133113Y-104433119D01*
X122117567Y-104452061D01*
X122106016Y-104473672D01*
X122064266Y-104574466D01*
X122064265Y-104574467D01*
X121960190Y-104730227D01*
X121827727Y-104862690D01*
X121749318Y-104915081D01*
X121671966Y-104966766D01*
X121498895Y-105038454D01*
X121315167Y-105075000D01*
X121127833Y-105075000D01*
X120944105Y-105038454D01*
X120771034Y-104966766D01*
X120693682Y-104915081D01*
X120615273Y-104862690D01*
X120482810Y-104730227D01*
X120378735Y-104574467D01*
X120378734Y-104574466D01*
X120336984Y-104473672D01*
X120325433Y-104452062D01*
X120309888Y-104433120D01*
X120290946Y-104417574D01*
X120269335Y-104406023D01*
X120245886Y-104398910D01*
X120221500Y-104396508D01*
X120197114Y-104398910D01*
X120173665Y-104406023D01*
X120152055Y-104417574D01*
X120133113Y-104433119D01*
X120117567Y-104452061D01*
X120106016Y-104473672D01*
X120064266Y-104574466D01*
X120064265Y-104574467D01*
X119960190Y-104730227D01*
X119827727Y-104862690D01*
X119749318Y-104915081D01*
X119671966Y-104966766D01*
X119498895Y-105038454D01*
X119315167Y-105075000D01*
X119127833Y-105075000D01*
X118944105Y-105038454D01*
X118771034Y-104966766D01*
X118693682Y-104915081D01*
X118615273Y-104862690D01*
X118482810Y-104730227D01*
X118378735Y-104574467D01*
X118378734Y-104574466D01*
X118307046Y-104401395D01*
X118270500Y-104217667D01*
X118270500Y-104030333D01*
X118307046Y-103846605D01*
X118378734Y-103673534D01*
X118482809Y-103517775D01*
X118482810Y-103517773D01*
X118615273Y-103385310D01*
X118771033Y-103281235D01*
X118771034Y-103281234D01*
X118871828Y-103239484D01*
X118893438Y-103227933D01*
X118912380Y-103212388D01*
X118927926Y-103193446D01*
X118939477Y-103171835D01*
X118946590Y-103148386D01*
X118948992Y-103124000D01*
X119494008Y-103124000D01*
X119496410Y-103148386D01*
X119503523Y-103171835D01*
X119515074Y-103193445D01*
X119530619Y-103212387D01*
X119549561Y-103227933D01*
X119571172Y-103239484D01*
X119671966Y-103281234D01*
X119671967Y-103281235D01*
X119827727Y-103385310D01*
X119960190Y-103517773D01*
X119960191Y-103517775D01*
X120064266Y-103673534D01*
X120106016Y-103774328D01*
X120117567Y-103795938D01*
X120133112Y-103814880D01*
X120152054Y-103830426D01*
X120173665Y-103841977D01*
X120197114Y-103849090D01*
X120221500Y-103851492D01*
X120245886Y-103849090D01*
X120269335Y-103841977D01*
X120290945Y-103830426D01*
X120309887Y-103814881D01*
X120325433Y-103795939D01*
X120336984Y-103774328D01*
X120378734Y-103673534D01*
X120482809Y-103517775D01*
X120482810Y-103517773D01*
X120615273Y-103385310D01*
X120771033Y-103281235D01*
X120771034Y-103281234D01*
X120871828Y-103239484D01*
X120893438Y-103227933D01*
X120912380Y-103212388D01*
X120927926Y-103193446D01*
X120939477Y-103171835D01*
X120946590Y-103148386D01*
X120948992Y-103124000D01*
X121494008Y-103124000D01*
X121496410Y-103148386D01*
X121503523Y-103171835D01*
X121515074Y-103193445D01*
X121530619Y-103212387D01*
X121549561Y-103227933D01*
X121571172Y-103239484D01*
X121671966Y-103281234D01*
X121671967Y-103281235D01*
X121827727Y-103385310D01*
X121960190Y-103517773D01*
X121960191Y-103517775D01*
X122064266Y-103673534D01*
X122106016Y-103774328D01*
X122117567Y-103795938D01*
X122133112Y-103814880D01*
X122152054Y-103830426D01*
X122173665Y-103841977D01*
X122197114Y-103849090D01*
X122221500Y-103851492D01*
X122245886Y-103849090D01*
X122269335Y-103841977D01*
X122290945Y-103830426D01*
X122309887Y-103814881D01*
X122325433Y-103795939D01*
X122336984Y-103774328D01*
X122378734Y-103673534D01*
X122482809Y-103517775D01*
X122482810Y-103517773D01*
X122615273Y-103385310D01*
X122771033Y-103281235D01*
X122771034Y-103281234D01*
X122871828Y-103239484D01*
X122893438Y-103227933D01*
X122912380Y-103212388D01*
X122927926Y-103193446D01*
X122939477Y-103171835D01*
X122946590Y-103148386D01*
X122948992Y-103124000D01*
X122946590Y-103099614D01*
X122939477Y-103076165D01*
X122927926Y-103054555D01*
X122912381Y-103035613D01*
X122893439Y-103020067D01*
X122871828Y-103008516D01*
X122771034Y-102966766D01*
X122693682Y-102915081D01*
X122615273Y-102862690D01*
X122482810Y-102730227D01*
X122378735Y-102574467D01*
X122378734Y-102574466D01*
X122336984Y-102473672D01*
X122325433Y-102452062D01*
X122309888Y-102433120D01*
X122290946Y-102417574D01*
X122269335Y-102406023D01*
X122245886Y-102398910D01*
X122221500Y-102396508D01*
X122197114Y-102398910D01*
X122173665Y-102406023D01*
X122152055Y-102417574D01*
X122133113Y-102433119D01*
X122117567Y-102452061D01*
X122106016Y-102473672D01*
X122064266Y-102574466D01*
X122064265Y-102574467D01*
X121960190Y-102730227D01*
X121827727Y-102862690D01*
X121749318Y-102915081D01*
X121671966Y-102966766D01*
X121571172Y-103008516D01*
X121549562Y-103020067D01*
X121530620Y-103035612D01*
X121515074Y-103054554D01*
X121503523Y-103076165D01*
X121496410Y-103099614D01*
X121494008Y-103124000D01*
X120948992Y-103124000D01*
X120946590Y-103099614D01*
X120939477Y-103076165D01*
X120927926Y-103054555D01*
X120912381Y-103035613D01*
X120893439Y-103020067D01*
X120871828Y-103008516D01*
X120771034Y-102966766D01*
X120693682Y-102915081D01*
X120615273Y-102862690D01*
X120482810Y-102730227D01*
X120378735Y-102574467D01*
X120378734Y-102574466D01*
X120336984Y-102473672D01*
X120325433Y-102452062D01*
X120309888Y-102433120D01*
X120290946Y-102417574D01*
X120269335Y-102406023D01*
X120245886Y-102398910D01*
X120221500Y-102396508D01*
X120197114Y-102398910D01*
X120173665Y-102406023D01*
X120152055Y-102417574D01*
X120133113Y-102433119D01*
X120117567Y-102452061D01*
X120106016Y-102473672D01*
X120064266Y-102574466D01*
X120064265Y-102574467D01*
X119960190Y-102730227D01*
X119827727Y-102862690D01*
X119749318Y-102915081D01*
X119671966Y-102966766D01*
X119571172Y-103008516D01*
X119549562Y-103020067D01*
X119530620Y-103035612D01*
X119515074Y-103054554D01*
X119503523Y-103076165D01*
X119496410Y-103099614D01*
X119494008Y-103124000D01*
X118948992Y-103124000D01*
X118946590Y-103099614D01*
X118939477Y-103076165D01*
X118927926Y-103054555D01*
X118912381Y-103035613D01*
X118893439Y-103020067D01*
X118871828Y-103008516D01*
X118771034Y-102966766D01*
X118693682Y-102915081D01*
X118615273Y-102862690D01*
X118482810Y-102730227D01*
X118378735Y-102574467D01*
X118378734Y-102574466D01*
X118307046Y-102401395D01*
X118270500Y-102217667D01*
X118270500Y-102030333D01*
X118307046Y-101846605D01*
X118378734Y-101673534D01*
X118482809Y-101517775D01*
X118482810Y-101517773D01*
X118615273Y-101385310D01*
X118771033Y-101281235D01*
X118771034Y-101281234D01*
X118944105Y-101209546D01*
X119127833Y-101173000D01*
X119315167Y-101173000D01*
X119498895Y-101209546D01*
X119498895Y-101209546D01*
G37*
G36*
X116627531Y-101588207D02*
G01*
X116825645Y-101648305D01*
X116825648Y-101648306D01*
X116872844Y-101673533D01*
X117008229Y-101745897D01*
X117168265Y-101877235D01*
X117299603Y-102037271D01*
X117299604Y-102037273D01*
X117397194Y-102219851D01*
X117397194Y-102219852D01*
X117397195Y-102219854D01*
X117457293Y-102417968D01*
X117472500Y-102572370D01*
X117472500Y-103675630D01*
X117457293Y-103830032D01*
X117450783Y-103851492D01*
X117397194Y-104028149D01*
X117345439Y-104124975D01*
X117299603Y-104210729D01*
X117168265Y-104370765D01*
X117008229Y-104502103D01*
X116922475Y-104547939D01*
X116825649Y-104599694D01*
X116825646Y-104599695D01*
X116627532Y-104659793D01*
X116421500Y-104680085D01*
X116215469Y-104659793D01*
X116017355Y-104599695D01*
X116017352Y-104599694D01*
X115920526Y-104547939D01*
X115834772Y-104502103D01*
X115674736Y-104370765D01*
X115543398Y-104210729D01*
X115520684Y-104168234D01*
X115445805Y-104028147D01*
X115385707Y-103830030D01*
X115370500Y-103675631D01*
X115370500Y-102572370D01*
X115385707Y-102417971D01*
X115385707Y-102417969D01*
X115445805Y-102219855D01*
X115445806Y-102219852D01*
X115481021Y-102153970D01*
X115543397Y-102037271D01*
X115674735Y-101877235D01*
X115834771Y-101745897D01*
X115920525Y-101700061D01*
X116017351Y-101648306D01*
X116017354Y-101648305D01*
X116215468Y-101588207D01*
X116421500Y-101567915D01*
X116627531Y-101588207D01*
X116627531Y-101588207D01*
G37*
G36*
X126227531Y-101588207D02*
G01*
X126425645Y-101648305D01*
X126425648Y-101648306D01*
X126472844Y-101673533D01*
X126608229Y-101745897D01*
X126768265Y-101877235D01*
X126899603Y-102037271D01*
X126899604Y-102037273D01*
X126997194Y-102219851D01*
X126997194Y-102219852D01*
X126997195Y-102219854D01*
X127057293Y-102417968D01*
X127072500Y-102572370D01*
X127072500Y-103675630D01*
X127057293Y-103830032D01*
X127050783Y-103851492D01*
X126997194Y-104028149D01*
X126945439Y-104124975D01*
X126899603Y-104210729D01*
X126768265Y-104370765D01*
X126608229Y-104502103D01*
X126522475Y-104547939D01*
X126425649Y-104599694D01*
X126425646Y-104599695D01*
X126227532Y-104659793D01*
X126021500Y-104680085D01*
X125815469Y-104659793D01*
X125617355Y-104599695D01*
X125617352Y-104599694D01*
X125520526Y-104547939D01*
X125434772Y-104502103D01*
X125274736Y-104370765D01*
X125143398Y-104210729D01*
X125120684Y-104168234D01*
X125045805Y-104028147D01*
X124985707Y-103830030D01*
X124970500Y-103675631D01*
X124970500Y-102572370D01*
X124985707Y-102417971D01*
X124985707Y-102417969D01*
X125045805Y-102219855D01*
X125045806Y-102219852D01*
X125081021Y-102153970D01*
X125143397Y-102037271D01*
X125274735Y-101877235D01*
X125434771Y-101745897D01*
X125520525Y-101700061D01*
X125617351Y-101648306D01*
X125617354Y-101648305D01*
X125815468Y-101588207D01*
X126021500Y-101567915D01*
X126227531Y-101588207D01*
X126227531Y-101588207D01*
G37*
G36*
X156051000Y-99051000D02*
G01*
X153949000Y-99051000D01*
X153949000Y-96949000D01*
X156051000Y-96949000D01*
X156051000Y-99051000D01*
X156051000Y-99051000D01*
G37*
G36*
X126042823Y-92633313D02*
G01*
X126203242Y-92681976D01*
X126335906Y-92752886D01*
X126351078Y-92760996D01*
X126480659Y-92867341D01*
X126587004Y-92996922D01*
X126587005Y-92996924D01*
X126666024Y-93144758D01*
X126714687Y-93305177D01*
X126731117Y-93472000D01*
X126714687Y-93638823D01*
X126666024Y-93799242D01*
X126595114Y-93931906D01*
X126587004Y-93947078D01*
X126480659Y-94076659D01*
X126351078Y-94183004D01*
X126351076Y-94183005D01*
X126203242Y-94262024D01*
X126042823Y-94310687D01*
X125917804Y-94323000D01*
X125034196Y-94323000D01*
X124909177Y-94310687D01*
X124748758Y-94262024D01*
X124600924Y-94183005D01*
X124600922Y-94183004D01*
X124471341Y-94076659D01*
X124364996Y-93947078D01*
X124356886Y-93931906D01*
X124285976Y-93799242D01*
X124237313Y-93638823D01*
X124220883Y-93472000D01*
X124237313Y-93305177D01*
X124285976Y-93144758D01*
X124364995Y-92996924D01*
X124364996Y-92996922D01*
X124471341Y-92867341D01*
X124600922Y-92760996D01*
X124616094Y-92752886D01*
X124748758Y-92681976D01*
X124909177Y-92633313D01*
X125034196Y-92621000D01*
X125917804Y-92621000D01*
X126042823Y-92633313D01*
X126042823Y-92633313D01*
G37*
G36*
X118422823Y-92633313D02*
G01*
X118583242Y-92681976D01*
X118715906Y-92752886D01*
X118731078Y-92760996D01*
X118860659Y-92867341D01*
X118967004Y-92996922D01*
X118967005Y-92996924D01*
X119046024Y-93144758D01*
X119094687Y-93305177D01*
X119111117Y-93472000D01*
X119094687Y-93638823D01*
X119046024Y-93799242D01*
X118975114Y-93931906D01*
X118967004Y-93947078D01*
X118860659Y-94076659D01*
X118731078Y-94183004D01*
X118731076Y-94183005D01*
X118583242Y-94262024D01*
X118422823Y-94310687D01*
X118297804Y-94323000D01*
X117414196Y-94323000D01*
X117289177Y-94310687D01*
X117128758Y-94262024D01*
X116980924Y-94183005D01*
X116980922Y-94183004D01*
X116851341Y-94076659D01*
X116744996Y-93947078D01*
X116736886Y-93931906D01*
X116665976Y-93799242D01*
X116617313Y-93638823D01*
X116600883Y-93472000D01*
X116617313Y-93305177D01*
X116665976Y-93144758D01*
X116744995Y-92996924D01*
X116744996Y-92996922D01*
X116851341Y-92867341D01*
X116980922Y-92760996D01*
X116996094Y-92752886D01*
X117128758Y-92681976D01*
X117289177Y-92633313D01*
X117414196Y-92621000D01*
X118297804Y-92621000D01*
X118422823Y-92633313D01*
X118422823Y-92633313D01*
G37*
G36*
X144128142Y-91520242D02*
G01*
X144276101Y-91581529D01*
X144409255Y-91670499D01*
X144522501Y-91783745D01*
X144611471Y-91916899D01*
X144672758Y-92064858D01*
X144704000Y-92221925D01*
X144704000Y-92382075D01*
X144672758Y-92539142D01*
X144611471Y-92687101D01*
X144522501Y-92820255D01*
X144409255Y-92933501D01*
X144276101Y-93022471D01*
X144128142Y-93083758D01*
X143971075Y-93115000D01*
X143810925Y-93115000D01*
X143653858Y-93083758D01*
X143505899Y-93022471D01*
X143372745Y-92933501D01*
X143259499Y-92820255D01*
X143170529Y-92687101D01*
X143109242Y-92539142D01*
X143078000Y-92382075D01*
X143078000Y-92221925D01*
X143109242Y-92064858D01*
X143170529Y-91916899D01*
X143259499Y-91783745D01*
X143372745Y-91670499D01*
X143505899Y-91581529D01*
X143653858Y-91520242D01*
X143810925Y-91489000D01*
X143971075Y-91489000D01*
X144128142Y-91520242D01*
X144128142Y-91520242D01*
G37*
G36*
X80339142Y-91520242D02*
G01*
X80487101Y-91581529D01*
X80620255Y-91670499D01*
X80733501Y-91783745D01*
X80822471Y-91916899D01*
X80883758Y-92064858D01*
X80915000Y-92221925D01*
X80915000Y-92382075D01*
X80883758Y-92539142D01*
X80822471Y-92687101D01*
X80733501Y-92820255D01*
X80620255Y-92933501D01*
X80487101Y-93022471D01*
X80339142Y-93083758D01*
X80182075Y-93115000D01*
X80021925Y-93115000D01*
X79864858Y-93083758D01*
X79716899Y-93022471D01*
X79583745Y-92933501D01*
X79470499Y-92820255D01*
X79381529Y-92687101D01*
X79320242Y-92539142D01*
X79289000Y-92382075D01*
X79289000Y-92221925D01*
X79320242Y-92064858D01*
X79381529Y-91916899D01*
X79470499Y-91783745D01*
X79583745Y-91670499D01*
X79716899Y-91581529D01*
X79864858Y-91520242D01*
X80021925Y-91489000D01*
X80182075Y-91489000D01*
X80339142Y-91520242D01*
X80339142Y-91520242D01*
G37*
G36*
X98789142Y-91520242D02*
G01*
X98937101Y-91581529D01*
X99070255Y-91670499D01*
X99183501Y-91783745D01*
X99272471Y-91916899D01*
X99333758Y-92064858D01*
X99365000Y-92221925D01*
X99365000Y-92382075D01*
X99333758Y-92539142D01*
X99272471Y-92687101D01*
X99183501Y-92820255D01*
X99070255Y-92933501D01*
X98937101Y-93022471D01*
X98789142Y-93083758D01*
X98632075Y-93115000D01*
X98471925Y-93115000D01*
X98314858Y-93083758D01*
X98166899Y-93022471D01*
X98033745Y-92933501D01*
X97920499Y-92820255D01*
X97831529Y-92687101D01*
X97770242Y-92539142D01*
X97739000Y-92382075D01*
X97739000Y-92221925D01*
X97770242Y-92064858D01*
X97831529Y-91916899D01*
X97920499Y-91783745D01*
X98033745Y-91670499D01*
X98166899Y-91581529D01*
X98314858Y-91520242D01*
X98471925Y-91489000D01*
X98632075Y-91489000D01*
X98789142Y-91520242D01*
X98789142Y-91520242D01*
G37*
G36*
X162578142Y-91520242D02*
G01*
X162726101Y-91581529D01*
X162859255Y-91670499D01*
X162972501Y-91783745D01*
X163061471Y-91916899D01*
X163122758Y-92064858D01*
X163154000Y-92221925D01*
X163154000Y-92382075D01*
X163122758Y-92539142D01*
X163061471Y-92687101D01*
X162972501Y-92820255D01*
X162859255Y-92933501D01*
X162726101Y-93022471D01*
X162578142Y-93083758D01*
X162421075Y-93115000D01*
X162260925Y-93115000D01*
X162103858Y-93083758D01*
X161955899Y-93022471D01*
X161822745Y-92933501D01*
X161709499Y-92820255D01*
X161620529Y-92687101D01*
X161559242Y-92539142D01*
X161528000Y-92382075D01*
X161528000Y-92221925D01*
X161559242Y-92064858D01*
X161620529Y-91916899D01*
X161709499Y-91783745D01*
X161822745Y-91670499D01*
X161955899Y-91581529D01*
X162103858Y-91520242D01*
X162260925Y-91489000D01*
X162421075Y-91489000D01*
X162578142Y-91520242D01*
X162578142Y-91520242D01*
G37*
G36*
X118422823Y-90093313D02*
G01*
X118583242Y-90141976D01*
X118715906Y-90212886D01*
X118731078Y-90220996D01*
X118860659Y-90327341D01*
X118967004Y-90456922D01*
X118967005Y-90456924D01*
X119046024Y-90604758D01*
X119094687Y-90765177D01*
X119111117Y-90932000D01*
X119094687Y-91098823D01*
X119046024Y-91259242D01*
X118975114Y-91391906D01*
X118967004Y-91407078D01*
X118860659Y-91536659D01*
X118731078Y-91643004D01*
X118731076Y-91643005D01*
X118583242Y-91722024D01*
X118422823Y-91770687D01*
X118297804Y-91783000D01*
X117414196Y-91783000D01*
X117289177Y-91770687D01*
X117128758Y-91722024D01*
X116980924Y-91643005D01*
X116980922Y-91643004D01*
X116851341Y-91536659D01*
X116744996Y-91407078D01*
X116736886Y-91391906D01*
X116665976Y-91259242D01*
X116617313Y-91098823D01*
X116600883Y-90932000D01*
X116617313Y-90765177D01*
X116665976Y-90604758D01*
X116744995Y-90456924D01*
X116744996Y-90456922D01*
X116851341Y-90327341D01*
X116980922Y-90220996D01*
X116996094Y-90212886D01*
X117128758Y-90141976D01*
X117289177Y-90093313D01*
X117414196Y-90081000D01*
X118297804Y-90081000D01*
X118422823Y-90093313D01*
X118422823Y-90093313D01*
G37*
G36*
X126042823Y-90093313D02*
G01*
X126203242Y-90141976D01*
X126335906Y-90212886D01*
X126351078Y-90220996D01*
X126480659Y-90327341D01*
X126587004Y-90456922D01*
X126587005Y-90456924D01*
X126666024Y-90604758D01*
X126714687Y-90765177D01*
X126731117Y-90932000D01*
X126714687Y-91098823D01*
X126666024Y-91259242D01*
X126595114Y-91391906D01*
X126587004Y-91407078D01*
X126480659Y-91536659D01*
X126351078Y-91643004D01*
X126351076Y-91643005D01*
X126203242Y-91722024D01*
X126042823Y-91770687D01*
X125917804Y-91783000D01*
X125034196Y-91783000D01*
X124909177Y-91770687D01*
X124748758Y-91722024D01*
X124600924Y-91643005D01*
X124600922Y-91643004D01*
X124471341Y-91536659D01*
X124364996Y-91407078D01*
X124356886Y-91391906D01*
X124285976Y-91259242D01*
X124237313Y-91098823D01*
X124220883Y-90932000D01*
X124237313Y-90765177D01*
X124285976Y-90604758D01*
X124364995Y-90456924D01*
X124364996Y-90456922D01*
X124471341Y-90327341D01*
X124600922Y-90220996D01*
X124616094Y-90212886D01*
X124748758Y-90141976D01*
X124909177Y-90093313D01*
X125034196Y-90081000D01*
X125917804Y-90081000D01*
X126042823Y-90093313D01*
X126042823Y-90093313D01*
G37*
G36*
X141704058Y-85617059D02*
G01*
X142043548Y-85720042D01*
X142043550Y-85720043D01*
X142356422Y-85887277D01*
X142630661Y-86112339D01*
X142855723Y-86386578D01*
X143018273Y-86690687D01*
X143022958Y-86699452D01*
X143125941Y-87038942D01*
X143152000Y-87303525D01*
X143152000Y-89480475D01*
X143125941Y-89745058D01*
X143024034Y-90081000D01*
X143022957Y-90084550D01*
X142855723Y-90397422D01*
X142630661Y-90671661D01*
X142356423Y-90896723D01*
X142043549Y-91063957D01*
X142043547Y-91063958D01*
X141704057Y-91166941D01*
X141351000Y-91201714D01*
X140997942Y-91166941D01*
X140658452Y-91063958D01*
X140658450Y-91063957D01*
X140345578Y-90896723D01*
X140071339Y-90671661D01*
X139846277Y-90397423D01*
X139679043Y-90084549D01*
X139677966Y-90081000D01*
X139576059Y-89745057D01*
X139550000Y-89480474D01*
X139550001Y-87303525D01*
X139576060Y-87038942D01*
X139679043Y-86699452D01*
X139683728Y-86690687D01*
X139846278Y-86386578D01*
X140071340Y-86112339D01*
X140345579Y-85887277D01*
X140658451Y-85720043D01*
X140658453Y-85720042D01*
X140997943Y-85617059D01*
X141351000Y-85582286D01*
X141704058Y-85617059D01*
X141704058Y-85617059D01*
G37*
G36*
X101445058Y-85617059D02*
G01*
X101784548Y-85720042D01*
X101784550Y-85720043D01*
X102097422Y-85887277D01*
X102371661Y-86112339D01*
X102596723Y-86386578D01*
X102759273Y-86690687D01*
X102763958Y-86699452D01*
X102866941Y-87038942D01*
X102893000Y-87303525D01*
X102893000Y-89480475D01*
X102866941Y-89745058D01*
X102765034Y-90081000D01*
X102763957Y-90084550D01*
X102596723Y-90397422D01*
X102371661Y-90671661D01*
X102097423Y-90896723D01*
X101784549Y-91063957D01*
X101784547Y-91063958D01*
X101445057Y-91166941D01*
X101092000Y-91201714D01*
X100738942Y-91166941D01*
X100399452Y-91063958D01*
X100399450Y-91063957D01*
X100086578Y-90896723D01*
X99812339Y-90671661D01*
X99587277Y-90397423D01*
X99420043Y-90084549D01*
X99418966Y-90081000D01*
X99317059Y-89745057D01*
X99291000Y-89480474D01*
X99291001Y-87303525D01*
X99317060Y-87038942D01*
X99420043Y-86699452D01*
X99424728Y-86690687D01*
X99587278Y-86386578D01*
X99812340Y-86112339D01*
X100086579Y-85887277D01*
X100399451Y-85720043D01*
X100399453Y-85720042D01*
X100738943Y-85617059D01*
X101092000Y-85582286D01*
X101445058Y-85617059D01*
X101445058Y-85617059D01*
G37*
G36*
X118422823Y-87553313D02*
G01*
X118583242Y-87601976D01*
X118715906Y-87672886D01*
X118731078Y-87680996D01*
X118860659Y-87787341D01*
X118967004Y-87916922D01*
X118967005Y-87916924D01*
X119046024Y-88064758D01*
X119094687Y-88225177D01*
X119111117Y-88392000D01*
X119094687Y-88558823D01*
X119046024Y-88719242D01*
X118975114Y-88851906D01*
X118967004Y-88867078D01*
X118860659Y-88996659D01*
X118731078Y-89103004D01*
X118731076Y-89103005D01*
X118583242Y-89182024D01*
X118422823Y-89230687D01*
X118297804Y-89243000D01*
X117414196Y-89243000D01*
X117289177Y-89230687D01*
X117128758Y-89182024D01*
X116980924Y-89103005D01*
X116980922Y-89103004D01*
X116851341Y-88996659D01*
X116744996Y-88867078D01*
X116736886Y-88851906D01*
X116665976Y-88719242D01*
X116617313Y-88558823D01*
X116600883Y-88392000D01*
X116617313Y-88225177D01*
X116665976Y-88064758D01*
X116744995Y-87916924D01*
X116744996Y-87916922D01*
X116851341Y-87787341D01*
X116980922Y-87680996D01*
X116996094Y-87672886D01*
X117128758Y-87601976D01*
X117289177Y-87553313D01*
X117414196Y-87541000D01*
X118297804Y-87541000D01*
X118422823Y-87553313D01*
X118422823Y-87553313D01*
G37*
G36*
X126042823Y-87553313D02*
G01*
X126203242Y-87601976D01*
X126335906Y-87672886D01*
X126351078Y-87680996D01*
X126480659Y-87787341D01*
X126587004Y-87916922D01*
X126587005Y-87916924D01*
X126666024Y-88064758D01*
X126714687Y-88225177D01*
X126731117Y-88392000D01*
X126714687Y-88558823D01*
X126666024Y-88719242D01*
X126595114Y-88851906D01*
X126587004Y-88867078D01*
X126480659Y-88996659D01*
X126351078Y-89103004D01*
X126351076Y-89103005D01*
X126203242Y-89182024D01*
X126042823Y-89230687D01*
X125917804Y-89243000D01*
X125034196Y-89243000D01*
X124909177Y-89230687D01*
X124748758Y-89182024D01*
X124600924Y-89103005D01*
X124600922Y-89103004D01*
X124471341Y-88996659D01*
X124364996Y-88867078D01*
X124356886Y-88851906D01*
X124285976Y-88719242D01*
X124237313Y-88558823D01*
X124220883Y-88392000D01*
X124237313Y-88225177D01*
X124285976Y-88064758D01*
X124364995Y-87916924D01*
X124364996Y-87916922D01*
X124471341Y-87787341D01*
X124600922Y-87680996D01*
X124616094Y-87672886D01*
X124748758Y-87601976D01*
X124909177Y-87553313D01*
X125034196Y-87541000D01*
X125917804Y-87541000D01*
X126042823Y-87553313D01*
X126042823Y-87553313D01*
G37*
G36*
X126042823Y-85013313D02*
G01*
X126203242Y-85061976D01*
X126335906Y-85132886D01*
X126351078Y-85140996D01*
X126480659Y-85247341D01*
X126587004Y-85376922D01*
X126587005Y-85376924D01*
X126666024Y-85524758D01*
X126714687Y-85685177D01*
X126731117Y-85852000D01*
X126714687Y-86018823D01*
X126666024Y-86179242D01*
X126595114Y-86311906D01*
X126587004Y-86327078D01*
X126480659Y-86456659D01*
X126351078Y-86563004D01*
X126351076Y-86563005D01*
X126203242Y-86642024D01*
X126042823Y-86690687D01*
X125917804Y-86703000D01*
X125034196Y-86703000D01*
X124909177Y-86690687D01*
X124748758Y-86642024D01*
X124600924Y-86563005D01*
X124600922Y-86563004D01*
X124471341Y-86456659D01*
X124364996Y-86327078D01*
X124356886Y-86311906D01*
X124285976Y-86179242D01*
X124237313Y-86018823D01*
X124220883Y-85852000D01*
X124237313Y-85685177D01*
X124285976Y-85524758D01*
X124364995Y-85376924D01*
X124364996Y-85376922D01*
X124471341Y-85247341D01*
X124600922Y-85140996D01*
X124616094Y-85132886D01*
X124748758Y-85061976D01*
X124909177Y-85013313D01*
X125034196Y-85001000D01*
X125917804Y-85001000D01*
X126042823Y-85013313D01*
X126042823Y-85013313D01*
G37*
G36*
X118422823Y-85013313D02*
G01*
X118583242Y-85061976D01*
X118715906Y-85132886D01*
X118731078Y-85140996D01*
X118860659Y-85247341D01*
X118967004Y-85376922D01*
X118967005Y-85376924D01*
X119046024Y-85524758D01*
X119094687Y-85685177D01*
X119111117Y-85852000D01*
X119094687Y-86018823D01*
X119046024Y-86179242D01*
X118975114Y-86311906D01*
X118967004Y-86327078D01*
X118860659Y-86456659D01*
X118731078Y-86563004D01*
X118731076Y-86563005D01*
X118583242Y-86642024D01*
X118422823Y-86690687D01*
X118297804Y-86703000D01*
X117414196Y-86703000D01*
X117289177Y-86690687D01*
X117128758Y-86642024D01*
X116980924Y-86563005D01*
X116980922Y-86563004D01*
X116851341Y-86456659D01*
X116744996Y-86327078D01*
X116736886Y-86311906D01*
X116665976Y-86179242D01*
X116617313Y-86018823D01*
X116600883Y-85852000D01*
X116617313Y-85685177D01*
X116665976Y-85524758D01*
X116744995Y-85376924D01*
X116744996Y-85376922D01*
X116851341Y-85247341D01*
X116980922Y-85140996D01*
X116996094Y-85132886D01*
X117128758Y-85061976D01*
X117289177Y-85013313D01*
X117414196Y-85001000D01*
X118297804Y-85001000D01*
X118422823Y-85013313D01*
X118422823Y-85013313D01*
G37*
G36*
X118422823Y-82473313D02*
G01*
X118583242Y-82521976D01*
X118715906Y-82592886D01*
X118731078Y-82600996D01*
X118860659Y-82707341D01*
X118967004Y-82836922D01*
X118967005Y-82836924D01*
X119046024Y-82984758D01*
X119094687Y-83145177D01*
X119111117Y-83312000D01*
X119094687Y-83478823D01*
X119046024Y-83639242D01*
X118975114Y-83771906D01*
X118967004Y-83787078D01*
X118860659Y-83916659D01*
X118731078Y-84023004D01*
X118731076Y-84023005D01*
X118583242Y-84102024D01*
X118422823Y-84150687D01*
X118297804Y-84163000D01*
X117414196Y-84163000D01*
X117289177Y-84150687D01*
X117128758Y-84102024D01*
X116980924Y-84023005D01*
X116980922Y-84023004D01*
X116851341Y-83916659D01*
X116744996Y-83787078D01*
X116736886Y-83771906D01*
X116665976Y-83639242D01*
X116617313Y-83478823D01*
X116600883Y-83312000D01*
X116617313Y-83145177D01*
X116665976Y-82984758D01*
X116744995Y-82836924D01*
X116744996Y-82836922D01*
X116851341Y-82707341D01*
X116980922Y-82600996D01*
X116996094Y-82592886D01*
X117128758Y-82521976D01*
X117289177Y-82473313D01*
X117414196Y-82461000D01*
X118297804Y-82461000D01*
X118422823Y-82473313D01*
X118422823Y-82473313D01*
G37*
G36*
X126042823Y-82473313D02*
G01*
X126203242Y-82521976D01*
X126335906Y-82592886D01*
X126351078Y-82600996D01*
X126480659Y-82707341D01*
X126587004Y-82836922D01*
X126587005Y-82836924D01*
X126666024Y-82984758D01*
X126714687Y-83145177D01*
X126731117Y-83312000D01*
X126714687Y-83478823D01*
X126666024Y-83639242D01*
X126595114Y-83771906D01*
X126587004Y-83787078D01*
X126480659Y-83916659D01*
X126351078Y-84023004D01*
X126351076Y-84023005D01*
X126203242Y-84102024D01*
X126042823Y-84150687D01*
X125917804Y-84163000D01*
X125034196Y-84163000D01*
X124909177Y-84150687D01*
X124748758Y-84102024D01*
X124600924Y-84023005D01*
X124600922Y-84023004D01*
X124471341Y-83916659D01*
X124364996Y-83787078D01*
X124356886Y-83771906D01*
X124285976Y-83639242D01*
X124237313Y-83478823D01*
X124220883Y-83312000D01*
X124237313Y-83145177D01*
X124285976Y-82984758D01*
X124364995Y-82836924D01*
X124364996Y-82836922D01*
X124471341Y-82707341D01*
X124600922Y-82600996D01*
X124616094Y-82592886D01*
X124748758Y-82521976D01*
X124909177Y-82473313D01*
X125034196Y-82461000D01*
X125917804Y-82461000D01*
X126042823Y-82473313D01*
X126042823Y-82473313D01*
G37*
G36*
X118422823Y-79933313D02*
G01*
X118583242Y-79981976D01*
X118715906Y-80052886D01*
X118731078Y-80060996D01*
X118860659Y-80167341D01*
X118967004Y-80296922D01*
X118967005Y-80296924D01*
X119046024Y-80444758D01*
X119094687Y-80605177D01*
X119111117Y-80772000D01*
X119094687Y-80938823D01*
X119046024Y-81099242D01*
X118975114Y-81231906D01*
X118967004Y-81247078D01*
X118860659Y-81376659D01*
X118731078Y-81483004D01*
X118731076Y-81483005D01*
X118583242Y-81562024D01*
X118422823Y-81610687D01*
X118297804Y-81623000D01*
X117414196Y-81623000D01*
X117289177Y-81610687D01*
X117128758Y-81562024D01*
X116980924Y-81483005D01*
X116980922Y-81483004D01*
X116851341Y-81376659D01*
X116744996Y-81247078D01*
X116736886Y-81231906D01*
X116665976Y-81099242D01*
X116617313Y-80938823D01*
X116600883Y-80772000D01*
X116617313Y-80605177D01*
X116665976Y-80444758D01*
X116744995Y-80296924D01*
X116744996Y-80296922D01*
X116851341Y-80167341D01*
X116980922Y-80060996D01*
X116996094Y-80052886D01*
X117128758Y-79981976D01*
X117289177Y-79933313D01*
X117414196Y-79921000D01*
X118297804Y-79921000D01*
X118422823Y-79933313D01*
X118422823Y-79933313D01*
G37*
G36*
X126042823Y-79933313D02*
G01*
X126203242Y-79981976D01*
X126335906Y-80052886D01*
X126351078Y-80060996D01*
X126480659Y-80167341D01*
X126587004Y-80296922D01*
X126587005Y-80296924D01*
X126666024Y-80444758D01*
X126714687Y-80605177D01*
X126731117Y-80772000D01*
X126714687Y-80938823D01*
X126666024Y-81099242D01*
X126595114Y-81231906D01*
X126587004Y-81247078D01*
X126480659Y-81376659D01*
X126351078Y-81483004D01*
X126351076Y-81483005D01*
X126203242Y-81562024D01*
X126042823Y-81610687D01*
X125917804Y-81623000D01*
X125034196Y-81623000D01*
X124909177Y-81610687D01*
X124748758Y-81562024D01*
X124600924Y-81483005D01*
X124600922Y-81483004D01*
X124471341Y-81376659D01*
X124364996Y-81247078D01*
X124356886Y-81231906D01*
X124285976Y-81099242D01*
X124237313Y-80938823D01*
X124220883Y-80772000D01*
X124237313Y-80605177D01*
X124285976Y-80444758D01*
X124364995Y-80296924D01*
X124364996Y-80296922D01*
X124471341Y-80167341D01*
X124600922Y-80060996D01*
X124616094Y-80052886D01*
X124748758Y-79981976D01*
X124909177Y-79933313D01*
X125034196Y-79921000D01*
X125917804Y-79921000D01*
X126042823Y-79933313D01*
X126042823Y-79933313D01*
G37*
G36*
X126042823Y-77393313D02*
G01*
X126203242Y-77441976D01*
X126335906Y-77512886D01*
X126351078Y-77520996D01*
X126480659Y-77627341D01*
X126587004Y-77756922D01*
X126587005Y-77756924D01*
X126666024Y-77904758D01*
X126714687Y-78065177D01*
X126731117Y-78232000D01*
X126714687Y-78398823D01*
X126666024Y-78559242D01*
X126595114Y-78691906D01*
X126587004Y-78707078D01*
X126480659Y-78836659D01*
X126351078Y-78943004D01*
X126351076Y-78943005D01*
X126203242Y-79022024D01*
X126042823Y-79070687D01*
X125917804Y-79083000D01*
X125034196Y-79083000D01*
X124909177Y-79070687D01*
X124748758Y-79022024D01*
X124600924Y-78943005D01*
X124600922Y-78943004D01*
X124471341Y-78836659D01*
X124364996Y-78707078D01*
X124356886Y-78691906D01*
X124285976Y-78559242D01*
X124237313Y-78398823D01*
X124220883Y-78232000D01*
X124237313Y-78065177D01*
X124285976Y-77904758D01*
X124364995Y-77756924D01*
X124364996Y-77756922D01*
X124471341Y-77627341D01*
X124600922Y-77520996D01*
X124616094Y-77512886D01*
X124748758Y-77441976D01*
X124909177Y-77393313D01*
X125034196Y-77381000D01*
X125917804Y-77381000D01*
X126042823Y-77393313D01*
X126042823Y-77393313D01*
G37*
G36*
X118422823Y-77393313D02*
G01*
X118583242Y-77441976D01*
X118715906Y-77512886D01*
X118731078Y-77520996D01*
X118860659Y-77627341D01*
X118967004Y-77756922D01*
X118967005Y-77756924D01*
X119046024Y-77904758D01*
X119094687Y-78065177D01*
X119111117Y-78232000D01*
X119094687Y-78398823D01*
X119046024Y-78559242D01*
X118975114Y-78691906D01*
X118967004Y-78707078D01*
X118860659Y-78836659D01*
X118731078Y-78943004D01*
X118731076Y-78943005D01*
X118583242Y-79022024D01*
X118422823Y-79070687D01*
X118297804Y-79083000D01*
X117414196Y-79083000D01*
X117289177Y-79070687D01*
X117128758Y-79022024D01*
X116980924Y-78943005D01*
X116980922Y-78943004D01*
X116851341Y-78836659D01*
X116744996Y-78707078D01*
X116736886Y-78691906D01*
X116665976Y-78559242D01*
X116617313Y-78398823D01*
X116600883Y-78232000D01*
X116617313Y-78065177D01*
X116665976Y-77904758D01*
X116744995Y-77756924D01*
X116744996Y-77756922D01*
X116851341Y-77627341D01*
X116980922Y-77520996D01*
X116996094Y-77512886D01*
X117128758Y-77441976D01*
X117289177Y-77393313D01*
X117414196Y-77381000D01*
X118297804Y-77381000D01*
X118422823Y-77393313D01*
X118422823Y-77393313D01*
G37*
G36*
X119107000Y-76543000D02*
G01*
X116605000Y-76543000D01*
X116605000Y-74841000D01*
X119107000Y-74841000D01*
X119107000Y-76543000D01*
X119107000Y-76543000D01*
G37*
G36*
X126042823Y-74853313D02*
G01*
X126203242Y-74901976D01*
X126335906Y-74972886D01*
X126351078Y-74980996D01*
X126480659Y-75087341D01*
X126587004Y-75216922D01*
X126587005Y-75216924D01*
X126666024Y-75364758D01*
X126714687Y-75525177D01*
X126731117Y-75692000D01*
X126714687Y-75858823D01*
X126666024Y-76019242D01*
X126595114Y-76151906D01*
X126587004Y-76167078D01*
X126480659Y-76296659D01*
X126351078Y-76403004D01*
X126351076Y-76403005D01*
X126203242Y-76482024D01*
X126042823Y-76530687D01*
X125917804Y-76543000D01*
X125034196Y-76543000D01*
X124909177Y-76530687D01*
X124748758Y-76482024D01*
X124600924Y-76403005D01*
X124600922Y-76403004D01*
X124471341Y-76296659D01*
X124364996Y-76167078D01*
X124356886Y-76151906D01*
X124285976Y-76019242D01*
X124237313Y-75858823D01*
X124220883Y-75692000D01*
X124237313Y-75525177D01*
X124285976Y-75364758D01*
X124364995Y-75216924D01*
X124364996Y-75216922D01*
X124471341Y-75087341D01*
X124600922Y-74980996D01*
X124616094Y-74972886D01*
X124748758Y-74901976D01*
X124909177Y-74853313D01*
X125034196Y-74841000D01*
X125917804Y-74841000D01*
X126042823Y-74853313D01*
X126042823Y-74853313D01*
G37*
G36*
X120956626Y-62462037D02*
G01*
X121126465Y-62513557D01*
X121126467Y-62513558D01*
X121282989Y-62597221D01*
X121420186Y-62709814D01*
X121503448Y-62811271D01*
X121532778Y-62847009D01*
X121616443Y-63003534D01*
X121667963Y-63173373D01*
X121681000Y-63305742D01*
X121681000Y-64694258D01*
X121667963Y-64826627D01*
X121616443Y-64996466D01*
X121532778Y-65152991D01*
X121503448Y-65188729D01*
X121420186Y-65290186D01*
X121318729Y-65373448D01*
X121282991Y-65402778D01*
X121126466Y-65486443D01*
X120956627Y-65537963D01*
X120780000Y-65555359D01*
X120603374Y-65537963D01*
X120433535Y-65486443D01*
X120277010Y-65402778D01*
X120241272Y-65373448D01*
X120139815Y-65290186D01*
X120056553Y-65188729D01*
X120027223Y-65152991D01*
X119943558Y-64996466D01*
X119892038Y-64826627D01*
X119879001Y-64694258D01*
X119879000Y-63305743D01*
X119892037Y-63173374D01*
X119943557Y-63003535D01*
X120027222Y-62847010D01*
X120027223Y-62847009D01*
X120139814Y-62709814D01*
X120241271Y-62626552D01*
X120277009Y-62597222D01*
X120433534Y-62513557D01*
X120603373Y-62462037D01*
X120780000Y-62444641D01*
X120956626Y-62462037D01*
X120956626Y-62462037D01*
G37*
G36*
X133656626Y-62462037D02*
G01*
X133826465Y-62513557D01*
X133826467Y-62513558D01*
X133982989Y-62597221D01*
X134120186Y-62709814D01*
X134203448Y-62811271D01*
X134232778Y-62847009D01*
X134316443Y-63003534D01*
X134367963Y-63173373D01*
X134381000Y-63305742D01*
X134381000Y-64694258D01*
X134367963Y-64826627D01*
X134316443Y-64996466D01*
X134232778Y-65152991D01*
X134203448Y-65188729D01*
X134120186Y-65290186D01*
X134018729Y-65373448D01*
X133982991Y-65402778D01*
X133826466Y-65486443D01*
X133656627Y-65537963D01*
X133480000Y-65555359D01*
X133303374Y-65537963D01*
X133133535Y-65486443D01*
X132977010Y-65402778D01*
X132941272Y-65373448D01*
X132839815Y-65290186D01*
X132756553Y-65188729D01*
X132727223Y-65152991D01*
X132643558Y-64996466D01*
X132592038Y-64826627D01*
X132579001Y-64694258D01*
X132579000Y-63305743D01*
X132592037Y-63173374D01*
X132643557Y-63003535D01*
X132727222Y-62847010D01*
X132727223Y-62847009D01*
X132839814Y-62709814D01*
X132941271Y-62626552D01*
X132977009Y-62597222D01*
X133133534Y-62513557D01*
X133303373Y-62462037D01*
X133480000Y-62444641D01*
X133656626Y-62462037D01*
X133656626Y-62462037D01*
G37*
G36*
X138736626Y-62462037D02*
G01*
X138906465Y-62513557D01*
X138906467Y-62513558D01*
X139062989Y-62597221D01*
X139200186Y-62709814D01*
X139283448Y-62811271D01*
X139312778Y-62847009D01*
X139396443Y-63003534D01*
X139447963Y-63173373D01*
X139461000Y-63305742D01*
X139461000Y-64694258D01*
X139447963Y-64826627D01*
X139396443Y-64996466D01*
X139312778Y-65152991D01*
X139283448Y-65188729D01*
X139200186Y-65290186D01*
X139098729Y-65373448D01*
X139062991Y-65402778D01*
X138906466Y-65486443D01*
X138736627Y-65537963D01*
X138560000Y-65555359D01*
X138383374Y-65537963D01*
X138213535Y-65486443D01*
X138057010Y-65402778D01*
X138021272Y-65373448D01*
X137919815Y-65290186D01*
X137836553Y-65188729D01*
X137807223Y-65152991D01*
X137723558Y-64996466D01*
X137672038Y-64826627D01*
X137659001Y-64694258D01*
X137659000Y-63305743D01*
X137672037Y-63173374D01*
X137723557Y-63003535D01*
X137807222Y-62847010D01*
X137807223Y-62847009D01*
X137919814Y-62709814D01*
X138021271Y-62626552D01*
X138057009Y-62597222D01*
X138213534Y-62513557D01*
X138383373Y-62462037D01*
X138560000Y-62444641D01*
X138736626Y-62462037D01*
X138736626Y-62462037D01*
G37*
G36*
X136196626Y-62462037D02*
G01*
X136366465Y-62513557D01*
X136366467Y-62513558D01*
X136522989Y-62597221D01*
X136660186Y-62709814D01*
X136743448Y-62811271D01*
X136772778Y-62847009D01*
X136856443Y-63003534D01*
X136907963Y-63173373D01*
X136921000Y-63305742D01*
X136921000Y-64694258D01*
X136907963Y-64826627D01*
X136856443Y-64996466D01*
X136772778Y-65152991D01*
X136743448Y-65188729D01*
X136660186Y-65290186D01*
X136558729Y-65373448D01*
X136522991Y-65402778D01*
X136366466Y-65486443D01*
X136196627Y-65537963D01*
X136020000Y-65555359D01*
X135843374Y-65537963D01*
X135673535Y-65486443D01*
X135517010Y-65402778D01*
X135481272Y-65373448D01*
X135379815Y-65290186D01*
X135296553Y-65188729D01*
X135267223Y-65152991D01*
X135183558Y-64996466D01*
X135132038Y-64826627D01*
X135119001Y-64694258D01*
X135119000Y-63305743D01*
X135132037Y-63173374D01*
X135183557Y-63003535D01*
X135267222Y-62847010D01*
X135267223Y-62847009D01*
X135379814Y-62709814D01*
X135481271Y-62626552D01*
X135517009Y-62597222D01*
X135673534Y-62513557D01*
X135843373Y-62462037D01*
X136020000Y-62444641D01*
X136196626Y-62462037D01*
X136196626Y-62462037D01*
G37*
G36*
X131116626Y-62462037D02*
G01*
X131286465Y-62513557D01*
X131286467Y-62513558D01*
X131442989Y-62597221D01*
X131580186Y-62709814D01*
X131663448Y-62811271D01*
X131692778Y-62847009D01*
X131776443Y-63003534D01*
X131827963Y-63173373D01*
X131841000Y-63305742D01*
X131841000Y-64694258D01*
X131827963Y-64826627D01*
X131776443Y-64996466D01*
X131692778Y-65152991D01*
X131663448Y-65188729D01*
X131580186Y-65290186D01*
X131478729Y-65373448D01*
X131442991Y-65402778D01*
X131286466Y-65486443D01*
X131116627Y-65537963D01*
X130940000Y-65555359D01*
X130763374Y-65537963D01*
X130593535Y-65486443D01*
X130437010Y-65402778D01*
X130401272Y-65373448D01*
X130299815Y-65290186D01*
X130216553Y-65188729D01*
X130187223Y-65152991D01*
X130103558Y-64996466D01*
X130052038Y-64826627D01*
X130039001Y-64694258D01*
X130039000Y-63305743D01*
X130052037Y-63173374D01*
X130103557Y-63003535D01*
X130187222Y-62847010D01*
X130187223Y-62847009D01*
X130299814Y-62709814D01*
X130401271Y-62626552D01*
X130437009Y-62597222D01*
X130593534Y-62513557D01*
X130763373Y-62462037D01*
X130940000Y-62444641D01*
X131116626Y-62462037D01*
X131116626Y-62462037D01*
G37*
G36*
X128576626Y-62462037D02*
G01*
X128746465Y-62513557D01*
X128746467Y-62513558D01*
X128902989Y-62597221D01*
X129040186Y-62709814D01*
X129123448Y-62811271D01*
X129152778Y-62847009D01*
X129236443Y-63003534D01*
X129287963Y-63173373D01*
X129301000Y-63305742D01*
X129301000Y-64694258D01*
X129287963Y-64826627D01*
X129236443Y-64996466D01*
X129152778Y-65152991D01*
X129123448Y-65188729D01*
X129040186Y-65290186D01*
X128938729Y-65373448D01*
X128902991Y-65402778D01*
X128746466Y-65486443D01*
X128576627Y-65537963D01*
X128400000Y-65555359D01*
X128223374Y-65537963D01*
X128053535Y-65486443D01*
X127897010Y-65402778D01*
X127861272Y-65373448D01*
X127759815Y-65290186D01*
X127676553Y-65188729D01*
X127647223Y-65152991D01*
X127563558Y-64996466D01*
X127512038Y-64826627D01*
X127499001Y-64694258D01*
X127499000Y-63305743D01*
X127512037Y-63173374D01*
X127563557Y-63003535D01*
X127647222Y-62847010D01*
X127647223Y-62847009D01*
X127759814Y-62709814D01*
X127861271Y-62626552D01*
X127897009Y-62597222D01*
X128053534Y-62513557D01*
X128223373Y-62462037D01*
X128400000Y-62444641D01*
X128576626Y-62462037D01*
X128576626Y-62462037D01*
G37*
G36*
X126036626Y-62462037D02*
G01*
X126206465Y-62513557D01*
X126206467Y-62513558D01*
X126362989Y-62597221D01*
X126500186Y-62709814D01*
X126583448Y-62811271D01*
X126612778Y-62847009D01*
X126696443Y-63003534D01*
X126747963Y-63173373D01*
X126761000Y-63305742D01*
X126761000Y-64694258D01*
X126747963Y-64826627D01*
X126696443Y-64996466D01*
X126612778Y-65152991D01*
X126583448Y-65188729D01*
X126500186Y-65290186D01*
X126398729Y-65373448D01*
X126362991Y-65402778D01*
X126206466Y-65486443D01*
X126036627Y-65537963D01*
X125860000Y-65555359D01*
X125683374Y-65537963D01*
X125513535Y-65486443D01*
X125357010Y-65402778D01*
X125321272Y-65373448D01*
X125219815Y-65290186D01*
X125136553Y-65188729D01*
X125107223Y-65152991D01*
X125023558Y-64996466D01*
X124972038Y-64826627D01*
X124959001Y-64694258D01*
X124959000Y-63305743D01*
X124972037Y-63173374D01*
X125023557Y-63003535D01*
X125107222Y-62847010D01*
X125107223Y-62847009D01*
X125219814Y-62709814D01*
X125321271Y-62626552D01*
X125357009Y-62597222D01*
X125513534Y-62513557D01*
X125683373Y-62462037D01*
X125860000Y-62444641D01*
X126036626Y-62462037D01*
X126036626Y-62462037D01*
G37*
G36*
X123496626Y-62462037D02*
G01*
X123666465Y-62513557D01*
X123666467Y-62513558D01*
X123822989Y-62597221D01*
X123960186Y-62709814D01*
X124043448Y-62811271D01*
X124072778Y-62847009D01*
X124156443Y-63003534D01*
X124207963Y-63173373D01*
X124221000Y-63305742D01*
X124221000Y-64694258D01*
X124207963Y-64826627D01*
X124156443Y-64996466D01*
X124072778Y-65152991D01*
X124043448Y-65188729D01*
X123960186Y-65290186D01*
X123858729Y-65373448D01*
X123822991Y-65402778D01*
X123666466Y-65486443D01*
X123496627Y-65537963D01*
X123320000Y-65555359D01*
X123143374Y-65537963D01*
X122973535Y-65486443D01*
X122817010Y-65402778D01*
X122781272Y-65373448D01*
X122679815Y-65290186D01*
X122596553Y-65188729D01*
X122567223Y-65152991D01*
X122483558Y-64996466D01*
X122432038Y-64826627D01*
X122419001Y-64694258D01*
X122419000Y-63305743D01*
X122432037Y-63173374D01*
X122483557Y-63003535D01*
X122567222Y-62847010D01*
X122567223Y-62847009D01*
X122679814Y-62709814D01*
X122781271Y-62626552D01*
X122817009Y-62597222D01*
X122973534Y-62513557D01*
X123143373Y-62462037D01*
X123320000Y-62444641D01*
X123496626Y-62462037D01*
X123496626Y-62462037D01*
G37*
G36*
X118416626Y-62462037D02*
G01*
X118586465Y-62513557D01*
X118586467Y-62513558D01*
X118742989Y-62597221D01*
X118880186Y-62709814D01*
X118963448Y-62811271D01*
X118992778Y-62847009D01*
X119076443Y-63003534D01*
X119127963Y-63173373D01*
X119141000Y-63305742D01*
X119141000Y-64694258D01*
X119127963Y-64826627D01*
X119076443Y-64996466D01*
X118992778Y-65152991D01*
X118963448Y-65188729D01*
X118880186Y-65290186D01*
X118778729Y-65373448D01*
X118742991Y-65402778D01*
X118586466Y-65486443D01*
X118416627Y-65537963D01*
X118240000Y-65555359D01*
X118063374Y-65537963D01*
X117893535Y-65486443D01*
X117737010Y-65402778D01*
X117701272Y-65373448D01*
X117599815Y-65290186D01*
X117516553Y-65188729D01*
X117487223Y-65152991D01*
X117403558Y-64996466D01*
X117352038Y-64826627D01*
X117339001Y-64694258D01*
X117339000Y-63305743D01*
X117352037Y-63173374D01*
X117403557Y-63003535D01*
X117487222Y-62847010D01*
X117487223Y-62847009D01*
X117599814Y-62709814D01*
X117701271Y-62626552D01*
X117737009Y-62597222D01*
X117893534Y-62513557D01*
X118063373Y-62462037D01*
X118240000Y-62444641D01*
X118416626Y-62462037D01*
X118416626Y-62462037D01*
G37*
G36*
X115876626Y-62462037D02*
G01*
X116046465Y-62513557D01*
X116046467Y-62513558D01*
X116202989Y-62597221D01*
X116340186Y-62709814D01*
X116423448Y-62811271D01*
X116452778Y-62847009D01*
X116536443Y-63003534D01*
X116587963Y-63173373D01*
X116601000Y-63305742D01*
X116601000Y-64694258D01*
X116587963Y-64826627D01*
X116536443Y-64996466D01*
X116452778Y-65152991D01*
X116423448Y-65188729D01*
X116340186Y-65290186D01*
X116238729Y-65373448D01*
X116202991Y-65402778D01*
X116046466Y-65486443D01*
X115876627Y-65537963D01*
X115700000Y-65555359D01*
X115523374Y-65537963D01*
X115353535Y-65486443D01*
X115197010Y-65402778D01*
X115161272Y-65373448D01*
X115059815Y-65290186D01*
X114976553Y-65188729D01*
X114947223Y-65152991D01*
X114863558Y-64996466D01*
X114812038Y-64826627D01*
X114799001Y-64694258D01*
X114799000Y-63305743D01*
X114812037Y-63173374D01*
X114863557Y-63003535D01*
X114947222Y-62847010D01*
X114947223Y-62847009D01*
X115059814Y-62709814D01*
X115161271Y-62626552D01*
X115197009Y-62597222D01*
X115353534Y-62513557D01*
X115523373Y-62462037D01*
X115700000Y-62444641D01*
X115876626Y-62462037D01*
X115876626Y-62462037D01*
G37*
G36*
X113336626Y-62462037D02*
G01*
X113506465Y-62513557D01*
X113506467Y-62513558D01*
X113662989Y-62597221D01*
X113800186Y-62709814D01*
X113883448Y-62811271D01*
X113912778Y-62847009D01*
X113996443Y-63003534D01*
X114047963Y-63173373D01*
X114061000Y-63305742D01*
X114061000Y-64694258D01*
X114047963Y-64826627D01*
X113996443Y-64996466D01*
X113912778Y-65152991D01*
X113883448Y-65188729D01*
X113800186Y-65290186D01*
X113698729Y-65373448D01*
X113662991Y-65402778D01*
X113506466Y-65486443D01*
X113336627Y-65537963D01*
X113160000Y-65555359D01*
X112983374Y-65537963D01*
X112813535Y-65486443D01*
X112657010Y-65402778D01*
X112621272Y-65373448D01*
X112519815Y-65290186D01*
X112436553Y-65188729D01*
X112407223Y-65152991D01*
X112323558Y-64996466D01*
X112272038Y-64826627D01*
X112259001Y-64694258D01*
X112259000Y-63305743D01*
X112272037Y-63173374D01*
X112323557Y-63003535D01*
X112407222Y-62847010D01*
X112407223Y-62847009D01*
X112519814Y-62709814D01*
X112621271Y-62626552D01*
X112657009Y-62597222D01*
X112813534Y-62513557D01*
X112983373Y-62462037D01*
X113160000Y-62444641D01*
X113336626Y-62462037D01*
X113336626Y-62462037D01*
G37*
G36*
X110796626Y-62462037D02*
G01*
X110966465Y-62513557D01*
X110966467Y-62513558D01*
X111122989Y-62597221D01*
X111260186Y-62709814D01*
X111343448Y-62811271D01*
X111372778Y-62847009D01*
X111456443Y-63003534D01*
X111507963Y-63173373D01*
X111521000Y-63305742D01*
X111521000Y-64694258D01*
X111507963Y-64826627D01*
X111456443Y-64996466D01*
X111372778Y-65152991D01*
X111343448Y-65188729D01*
X111260186Y-65290186D01*
X111158729Y-65373448D01*
X111122991Y-65402778D01*
X110966466Y-65486443D01*
X110796627Y-65537963D01*
X110620000Y-65555359D01*
X110443374Y-65537963D01*
X110273535Y-65486443D01*
X110117010Y-65402778D01*
X110081272Y-65373448D01*
X109979815Y-65290186D01*
X109896553Y-65188729D01*
X109867223Y-65152991D01*
X109783558Y-64996466D01*
X109732038Y-64826627D01*
X109719001Y-64694258D01*
X109719000Y-63305743D01*
X109732037Y-63173374D01*
X109783557Y-63003535D01*
X109867222Y-62847010D01*
X109867223Y-62847009D01*
X109979814Y-62709814D01*
X110081271Y-62626552D01*
X110117009Y-62597222D01*
X110273534Y-62513557D01*
X110443373Y-62462037D01*
X110620000Y-62444641D01*
X110796626Y-62462037D01*
X110796626Y-62462037D01*
G37*
G36*
X105716626Y-62462037D02*
G01*
X105886465Y-62513557D01*
X105886467Y-62513558D01*
X106042989Y-62597221D01*
X106180186Y-62709814D01*
X106263448Y-62811271D01*
X106292778Y-62847009D01*
X106376443Y-63003534D01*
X106427963Y-63173373D01*
X106441000Y-63305742D01*
X106441000Y-64694258D01*
X106427963Y-64826627D01*
X106376443Y-64996466D01*
X106292778Y-65152991D01*
X106263448Y-65188729D01*
X106180186Y-65290186D01*
X106078729Y-65373448D01*
X106042991Y-65402778D01*
X105886466Y-65486443D01*
X105716627Y-65537963D01*
X105540000Y-65555359D01*
X105363374Y-65537963D01*
X105193535Y-65486443D01*
X105037010Y-65402778D01*
X105001272Y-65373448D01*
X104899815Y-65290186D01*
X104816553Y-65188729D01*
X104787223Y-65152991D01*
X104703558Y-64996466D01*
X104652038Y-64826627D01*
X104639001Y-64694258D01*
X104639000Y-63305743D01*
X104652037Y-63173374D01*
X104703557Y-63003535D01*
X104787222Y-62847010D01*
X104787223Y-62847009D01*
X104899814Y-62709814D01*
X105001271Y-62626552D01*
X105037009Y-62597222D01*
X105193534Y-62513557D01*
X105363373Y-62462037D01*
X105540000Y-62444641D01*
X105716626Y-62462037D01*
X105716626Y-62462037D01*
G37*
G36*
X108256626Y-62462037D02*
G01*
X108426465Y-62513557D01*
X108426467Y-62513558D01*
X108582989Y-62597221D01*
X108720186Y-62709814D01*
X108803448Y-62811271D01*
X108832778Y-62847009D01*
X108916443Y-63003534D01*
X108967963Y-63173373D01*
X108981000Y-63305742D01*
X108981000Y-64694258D01*
X108967963Y-64826627D01*
X108916443Y-64996466D01*
X108832778Y-65152991D01*
X108803448Y-65188729D01*
X108720186Y-65290186D01*
X108618729Y-65373448D01*
X108582991Y-65402778D01*
X108426466Y-65486443D01*
X108256627Y-65537963D01*
X108080000Y-65555359D01*
X107903374Y-65537963D01*
X107733535Y-65486443D01*
X107577010Y-65402778D01*
X107541272Y-65373448D01*
X107439815Y-65290186D01*
X107356553Y-65188729D01*
X107327223Y-65152991D01*
X107243558Y-64996466D01*
X107192038Y-64826627D01*
X107179001Y-64694258D01*
X107179000Y-63305743D01*
X107192037Y-63173374D01*
X107243557Y-63003535D01*
X107327222Y-62847010D01*
X107327223Y-62847009D01*
X107439814Y-62709814D01*
X107541271Y-62626552D01*
X107577009Y-62597222D01*
X107733534Y-62513557D01*
X107903373Y-62462037D01*
X108080000Y-62444641D01*
X108256626Y-62462037D01*
X108256626Y-62462037D01*
G37*
G36*
X103901000Y-65551000D02*
G01*
X102099000Y-65551000D01*
X102099000Y-62449000D01*
X103901000Y-62449000D01*
X103901000Y-65551000D01*
X103901000Y-65551000D01*
G37*
G36*
X82226756Y-57941598D02*
G01*
X82333079Y-57962747D01*
X82633542Y-58087203D01*
X82903951Y-58267885D01*
X83133915Y-58497849D01*
X83314597Y-58768258D01*
X83436411Y-59062342D01*
X83439053Y-59068722D01*
X83502500Y-59387689D01*
X83502500Y-59712911D01*
X83482491Y-59813501D01*
X83439053Y-60031879D01*
X83314597Y-60332342D01*
X83133915Y-60602751D01*
X82903951Y-60832715D01*
X82633542Y-61013397D01*
X82333079Y-61137853D01*
X82226756Y-61159002D01*
X82014111Y-61201300D01*
X81688889Y-61201300D01*
X81476244Y-61159002D01*
X81369921Y-61137853D01*
X81069458Y-61013397D01*
X80799049Y-60832715D01*
X80569085Y-60602751D01*
X80388403Y-60332342D01*
X80263947Y-60031879D01*
X80220509Y-59813501D01*
X80200500Y-59712911D01*
X80200500Y-59387689D01*
X80263947Y-59068722D01*
X80266590Y-59062342D01*
X80388403Y-58768258D01*
X80569085Y-58497849D01*
X80799049Y-58267885D01*
X81069458Y-58087203D01*
X81369921Y-57962747D01*
X81476244Y-57941598D01*
X81688889Y-57899300D01*
X82014111Y-57899300D01*
X82226756Y-57941598D01*
X82226756Y-57941598D01*
G37*
G36*
X108286031Y-57464207D02*
G01*
X108484145Y-57524305D01*
X108484148Y-57524306D01*
X108550030Y-57559521D01*
X108666729Y-57621897D01*
X108826765Y-57753235D01*
X108958103Y-57913271D01*
X108958104Y-57913273D01*
X109055694Y-58095851D01*
X109055694Y-58095852D01*
X109055695Y-58095854D01*
X109115793Y-58293968D01*
X109131000Y-58448370D01*
X109131000Y-59551630D01*
X109115793Y-59706032D01*
X109056203Y-59902471D01*
X109055694Y-59904149D01*
X109023832Y-59963758D01*
X108958103Y-60086729D01*
X108826765Y-60246765D01*
X108666729Y-60378103D01*
X108580975Y-60423939D01*
X108484149Y-60475694D01*
X108484146Y-60475695D01*
X108286032Y-60535793D01*
X108080000Y-60556085D01*
X107873969Y-60535793D01*
X107675855Y-60475695D01*
X107675852Y-60475694D01*
X107579026Y-60423939D01*
X107493272Y-60378103D01*
X107333236Y-60246765D01*
X107201898Y-60086729D01*
X107152868Y-59995000D01*
X107104305Y-59904147D01*
X107044207Y-59706030D01*
X107029000Y-59551631D01*
X107029000Y-58448370D01*
X107044207Y-58293971D01*
X107044207Y-58293969D01*
X107104305Y-58095855D01*
X107104306Y-58095852D01*
X107175452Y-57962747D01*
X107201897Y-57913271D01*
X107333235Y-57753235D01*
X107493271Y-57621897D01*
X107579025Y-57576061D01*
X107675851Y-57524306D01*
X107675854Y-57524305D01*
X107873968Y-57464207D01*
X108080000Y-57443915D01*
X108286031Y-57464207D01*
X108286031Y-57464207D01*
G37*
G36*
X126066031Y-57464207D02*
G01*
X126264145Y-57524305D01*
X126264148Y-57524306D01*
X126330030Y-57559521D01*
X126446729Y-57621897D01*
X126606765Y-57753235D01*
X126738103Y-57913271D01*
X126738104Y-57913273D01*
X126835694Y-58095851D01*
X126835694Y-58095852D01*
X126835695Y-58095854D01*
X126895793Y-58293968D01*
X126911000Y-58448370D01*
X126911000Y-59551630D01*
X126895793Y-59706032D01*
X126836203Y-59902471D01*
X126835694Y-59904149D01*
X126803832Y-59963758D01*
X126738103Y-60086729D01*
X126606765Y-60246765D01*
X126446729Y-60378103D01*
X126360975Y-60423939D01*
X126264149Y-60475694D01*
X126264146Y-60475695D01*
X126066032Y-60535793D01*
X125860000Y-60556085D01*
X125653969Y-60535793D01*
X125455855Y-60475695D01*
X125455852Y-60475694D01*
X125359026Y-60423939D01*
X125273272Y-60378103D01*
X125113236Y-60246765D01*
X124981898Y-60086729D01*
X124932868Y-59995000D01*
X124884305Y-59904147D01*
X124824207Y-59706030D01*
X124809000Y-59551631D01*
X124809000Y-58448370D01*
X124824207Y-58293971D01*
X124824207Y-58293969D01*
X124884305Y-58095855D01*
X124884306Y-58095852D01*
X124955452Y-57962747D01*
X124981897Y-57913271D01*
X125113235Y-57753235D01*
X125273271Y-57621897D01*
X125359025Y-57576061D01*
X125455851Y-57524306D01*
X125455854Y-57524305D01*
X125653968Y-57464207D01*
X125860000Y-57443915D01*
X126066031Y-57464207D01*
X126066031Y-57464207D01*
G37*
G36*
X110826031Y-57464207D02*
G01*
X111024145Y-57524305D01*
X111024148Y-57524306D01*
X111090030Y-57559521D01*
X111206729Y-57621897D01*
X111366765Y-57753235D01*
X111498103Y-57913271D01*
X111498104Y-57913273D01*
X111595694Y-58095851D01*
X111595694Y-58095852D01*
X111595695Y-58095854D01*
X111655793Y-58293968D01*
X111671000Y-58448370D01*
X111671000Y-59551630D01*
X111655793Y-59706032D01*
X111596203Y-59902471D01*
X111595694Y-59904149D01*
X111563832Y-59963758D01*
X111498103Y-60086729D01*
X111366765Y-60246765D01*
X111206729Y-60378103D01*
X111120975Y-60423939D01*
X111024149Y-60475694D01*
X111024146Y-60475695D01*
X110826032Y-60535793D01*
X110620000Y-60556085D01*
X110413969Y-60535793D01*
X110215855Y-60475695D01*
X110215852Y-60475694D01*
X110119026Y-60423939D01*
X110033272Y-60378103D01*
X109873236Y-60246765D01*
X109741898Y-60086729D01*
X109692868Y-59995000D01*
X109644305Y-59904147D01*
X109584207Y-59706030D01*
X109569000Y-59551631D01*
X109569000Y-58448370D01*
X109584207Y-58293971D01*
X109584207Y-58293969D01*
X109644305Y-58095855D01*
X109644306Y-58095852D01*
X109715452Y-57962747D01*
X109741897Y-57913271D01*
X109873235Y-57753235D01*
X110033271Y-57621897D01*
X110119025Y-57576061D01*
X110215851Y-57524306D01*
X110215854Y-57524305D01*
X110413968Y-57464207D01*
X110620000Y-57443915D01*
X110826031Y-57464207D01*
X110826031Y-57464207D01*
G37*
G36*
X113366031Y-57464207D02*
G01*
X113564145Y-57524305D01*
X113564148Y-57524306D01*
X113630030Y-57559521D01*
X113746729Y-57621897D01*
X113906765Y-57753235D01*
X114038103Y-57913271D01*
X114038104Y-57913273D01*
X114135694Y-58095851D01*
X114135694Y-58095852D01*
X114135695Y-58095854D01*
X114195793Y-58293968D01*
X114211000Y-58448370D01*
X114211000Y-59551630D01*
X114195793Y-59706032D01*
X114136203Y-59902471D01*
X114135694Y-59904149D01*
X114103832Y-59963758D01*
X114038103Y-60086729D01*
X113906765Y-60246765D01*
X113746729Y-60378103D01*
X113660975Y-60423939D01*
X113564149Y-60475694D01*
X113564146Y-60475695D01*
X113366032Y-60535793D01*
X113160000Y-60556085D01*
X112953969Y-60535793D01*
X112755855Y-60475695D01*
X112755852Y-60475694D01*
X112659026Y-60423939D01*
X112573272Y-60378103D01*
X112413236Y-60246765D01*
X112281898Y-60086729D01*
X112232868Y-59995000D01*
X112184305Y-59904147D01*
X112124207Y-59706030D01*
X112109000Y-59551631D01*
X112109000Y-58448370D01*
X112124207Y-58293971D01*
X112124207Y-58293969D01*
X112184305Y-58095855D01*
X112184306Y-58095852D01*
X112255452Y-57962747D01*
X112281897Y-57913271D01*
X112413235Y-57753235D01*
X112573271Y-57621897D01*
X112659025Y-57576061D01*
X112755851Y-57524306D01*
X112755854Y-57524305D01*
X112953968Y-57464207D01*
X113160000Y-57443915D01*
X113366031Y-57464207D01*
X113366031Y-57464207D01*
G37*
G36*
X115906031Y-57464207D02*
G01*
X116104145Y-57524305D01*
X116104148Y-57524306D01*
X116170030Y-57559521D01*
X116286729Y-57621897D01*
X116446765Y-57753235D01*
X116578103Y-57913271D01*
X116578104Y-57913273D01*
X116675694Y-58095851D01*
X116675694Y-58095852D01*
X116675695Y-58095854D01*
X116735793Y-58293968D01*
X116751000Y-58448370D01*
X116751000Y-59551630D01*
X116735793Y-59706032D01*
X116676203Y-59902471D01*
X116675694Y-59904149D01*
X116643832Y-59963758D01*
X116578103Y-60086729D01*
X116446765Y-60246765D01*
X116286729Y-60378103D01*
X116200975Y-60423939D01*
X116104149Y-60475694D01*
X116104146Y-60475695D01*
X115906032Y-60535793D01*
X115700000Y-60556085D01*
X115493969Y-60535793D01*
X115295855Y-60475695D01*
X115295852Y-60475694D01*
X115199026Y-60423939D01*
X115113272Y-60378103D01*
X114953236Y-60246765D01*
X114821898Y-60086729D01*
X114772868Y-59995000D01*
X114724305Y-59904147D01*
X114664207Y-59706030D01*
X114649000Y-59551631D01*
X114649000Y-58448370D01*
X114664207Y-58293971D01*
X114664207Y-58293969D01*
X114724305Y-58095855D01*
X114724306Y-58095852D01*
X114795452Y-57962747D01*
X114821897Y-57913271D01*
X114953235Y-57753235D01*
X115113271Y-57621897D01*
X115199025Y-57576061D01*
X115295851Y-57524306D01*
X115295854Y-57524305D01*
X115493968Y-57464207D01*
X115700000Y-57443915D01*
X115906031Y-57464207D01*
X115906031Y-57464207D01*
G37*
G36*
X118446031Y-57464207D02*
G01*
X118644145Y-57524305D01*
X118644148Y-57524306D01*
X118710030Y-57559521D01*
X118826729Y-57621897D01*
X118986765Y-57753235D01*
X119118103Y-57913271D01*
X119118104Y-57913273D01*
X119215694Y-58095851D01*
X119215694Y-58095852D01*
X119215695Y-58095854D01*
X119275793Y-58293968D01*
X119291000Y-58448370D01*
X119291000Y-59551630D01*
X119275793Y-59706032D01*
X119216203Y-59902471D01*
X119215694Y-59904149D01*
X119183832Y-59963758D01*
X119118103Y-60086729D01*
X118986765Y-60246765D01*
X118826729Y-60378103D01*
X118740975Y-60423939D01*
X118644149Y-60475694D01*
X118644146Y-60475695D01*
X118446032Y-60535793D01*
X118240000Y-60556085D01*
X118033969Y-60535793D01*
X117835855Y-60475695D01*
X117835852Y-60475694D01*
X117739026Y-60423939D01*
X117653272Y-60378103D01*
X117493236Y-60246765D01*
X117361898Y-60086729D01*
X117312868Y-59995000D01*
X117264305Y-59904147D01*
X117204207Y-59706030D01*
X117189000Y-59551631D01*
X117189000Y-58448370D01*
X117204207Y-58293971D01*
X117204207Y-58293969D01*
X117264305Y-58095855D01*
X117264306Y-58095852D01*
X117335452Y-57962747D01*
X117361897Y-57913271D01*
X117493235Y-57753235D01*
X117653271Y-57621897D01*
X117739025Y-57576061D01*
X117835851Y-57524306D01*
X117835854Y-57524305D01*
X118033968Y-57464207D01*
X118240000Y-57443915D01*
X118446031Y-57464207D01*
X118446031Y-57464207D01*
G37*
G36*
X120986031Y-57464207D02*
G01*
X121184145Y-57524305D01*
X121184148Y-57524306D01*
X121250030Y-57559521D01*
X121366729Y-57621897D01*
X121526765Y-57753235D01*
X121658103Y-57913271D01*
X121658104Y-57913273D01*
X121755694Y-58095851D01*
X121755694Y-58095852D01*
X121755695Y-58095854D01*
X121815793Y-58293968D01*
X121831000Y-58448370D01*
X121831000Y-59551630D01*
X121815793Y-59706032D01*
X121756203Y-59902471D01*
X121755694Y-59904149D01*
X121723832Y-59963758D01*
X121658103Y-60086729D01*
X121526765Y-60246765D01*
X121366729Y-60378103D01*
X121280975Y-60423939D01*
X121184149Y-60475694D01*
X121184146Y-60475695D01*
X120986032Y-60535793D01*
X120780000Y-60556085D01*
X120573969Y-60535793D01*
X120375855Y-60475695D01*
X120375852Y-60475694D01*
X120279026Y-60423939D01*
X120193272Y-60378103D01*
X120033236Y-60246765D01*
X119901898Y-60086729D01*
X119852868Y-59995000D01*
X119804305Y-59904147D01*
X119744207Y-59706030D01*
X119729000Y-59551631D01*
X119729000Y-58448370D01*
X119744207Y-58293971D01*
X119744207Y-58293969D01*
X119804305Y-58095855D01*
X119804306Y-58095852D01*
X119875452Y-57962747D01*
X119901897Y-57913271D01*
X120033235Y-57753235D01*
X120193271Y-57621897D01*
X120279025Y-57576061D01*
X120375851Y-57524306D01*
X120375854Y-57524305D01*
X120573968Y-57464207D01*
X120780000Y-57443915D01*
X120986031Y-57464207D01*
X120986031Y-57464207D01*
G37*
G36*
X138766031Y-57464207D02*
G01*
X138964145Y-57524305D01*
X138964148Y-57524306D01*
X139030030Y-57559521D01*
X139146729Y-57621897D01*
X139306765Y-57753235D01*
X139438103Y-57913271D01*
X139438104Y-57913273D01*
X139535694Y-58095851D01*
X139535694Y-58095852D01*
X139535695Y-58095854D01*
X139595793Y-58293968D01*
X139611000Y-58448370D01*
X139611000Y-59551630D01*
X139595793Y-59706032D01*
X139536203Y-59902471D01*
X139535694Y-59904149D01*
X139503832Y-59963758D01*
X139438103Y-60086729D01*
X139306765Y-60246765D01*
X139146729Y-60378103D01*
X139060975Y-60423939D01*
X138964149Y-60475694D01*
X138964146Y-60475695D01*
X138766032Y-60535793D01*
X138560000Y-60556085D01*
X138353969Y-60535793D01*
X138155855Y-60475695D01*
X138155852Y-60475694D01*
X138059026Y-60423939D01*
X137973272Y-60378103D01*
X137813236Y-60246765D01*
X137681898Y-60086729D01*
X137632868Y-59995000D01*
X137584305Y-59904147D01*
X137524207Y-59706030D01*
X137509000Y-59551631D01*
X137509000Y-58448370D01*
X137524207Y-58293971D01*
X137524207Y-58293969D01*
X137584305Y-58095855D01*
X137584306Y-58095852D01*
X137655452Y-57962747D01*
X137681897Y-57913271D01*
X137813235Y-57753235D01*
X137973271Y-57621897D01*
X138059025Y-57576061D01*
X138155851Y-57524306D01*
X138155854Y-57524305D01*
X138353968Y-57464207D01*
X138560000Y-57443915D01*
X138766031Y-57464207D01*
X138766031Y-57464207D01*
G37*
G36*
X136226031Y-57464207D02*
G01*
X136424145Y-57524305D01*
X136424148Y-57524306D01*
X136490030Y-57559521D01*
X136606729Y-57621897D01*
X136766765Y-57753235D01*
X136898103Y-57913271D01*
X136898104Y-57913273D01*
X136995694Y-58095851D01*
X136995694Y-58095852D01*
X136995695Y-58095854D01*
X137055793Y-58293968D01*
X137071000Y-58448370D01*
X137071000Y-59551630D01*
X137055793Y-59706032D01*
X136996203Y-59902471D01*
X136995694Y-59904149D01*
X136963832Y-59963758D01*
X136898103Y-60086729D01*
X136766765Y-60246765D01*
X136606729Y-60378103D01*
X136520975Y-60423939D01*
X136424149Y-60475694D01*
X136424146Y-60475695D01*
X136226032Y-60535793D01*
X136020000Y-60556085D01*
X135813969Y-60535793D01*
X135615855Y-60475695D01*
X135615852Y-60475694D01*
X135519026Y-60423939D01*
X135433272Y-60378103D01*
X135273236Y-60246765D01*
X135141898Y-60086729D01*
X135092868Y-59995000D01*
X135044305Y-59904147D01*
X134984207Y-59706030D01*
X134969000Y-59551631D01*
X134969000Y-58448370D01*
X134984207Y-58293971D01*
X134984207Y-58293969D01*
X135044305Y-58095855D01*
X135044306Y-58095852D01*
X135115452Y-57962747D01*
X135141897Y-57913271D01*
X135273235Y-57753235D01*
X135433271Y-57621897D01*
X135519025Y-57576061D01*
X135615851Y-57524306D01*
X135615854Y-57524305D01*
X135813968Y-57464207D01*
X136020000Y-57443915D01*
X136226031Y-57464207D01*
X136226031Y-57464207D01*
G37*
G36*
X133686031Y-57464207D02*
G01*
X133884145Y-57524305D01*
X133884148Y-57524306D01*
X133950030Y-57559521D01*
X134066729Y-57621897D01*
X134226765Y-57753235D01*
X134358103Y-57913271D01*
X134358104Y-57913273D01*
X134455694Y-58095851D01*
X134455694Y-58095852D01*
X134455695Y-58095854D01*
X134515793Y-58293968D01*
X134531000Y-58448370D01*
X134531000Y-59551630D01*
X134515793Y-59706032D01*
X134456203Y-59902471D01*
X134455694Y-59904149D01*
X134423832Y-59963758D01*
X134358103Y-60086729D01*
X134226765Y-60246765D01*
X134066729Y-60378103D01*
X133980975Y-60423939D01*
X133884149Y-60475694D01*
X133884146Y-60475695D01*
X133686032Y-60535793D01*
X133480000Y-60556085D01*
X133273969Y-60535793D01*
X133075855Y-60475695D01*
X133075852Y-60475694D01*
X132979026Y-60423939D01*
X132893272Y-60378103D01*
X132733236Y-60246765D01*
X132601898Y-60086729D01*
X132552868Y-59995000D01*
X132504305Y-59904147D01*
X132444207Y-59706030D01*
X132429000Y-59551631D01*
X132429000Y-58448370D01*
X132444207Y-58293971D01*
X132444207Y-58293969D01*
X132504305Y-58095855D01*
X132504306Y-58095852D01*
X132575452Y-57962747D01*
X132601897Y-57913271D01*
X132733235Y-57753235D01*
X132893271Y-57621897D01*
X132979025Y-57576061D01*
X133075851Y-57524306D01*
X133075854Y-57524305D01*
X133273968Y-57464207D01*
X133480000Y-57443915D01*
X133686031Y-57464207D01*
X133686031Y-57464207D01*
G37*
G36*
X131146031Y-57464207D02*
G01*
X131344145Y-57524305D01*
X131344148Y-57524306D01*
X131410030Y-57559521D01*
X131526729Y-57621897D01*
X131686765Y-57753235D01*
X131818103Y-57913271D01*
X131818104Y-57913273D01*
X131915694Y-58095851D01*
X131915694Y-58095852D01*
X131915695Y-58095854D01*
X131975793Y-58293968D01*
X131991000Y-58448370D01*
X131991000Y-59551630D01*
X131975793Y-59706032D01*
X131916203Y-59902471D01*
X131915694Y-59904149D01*
X131883832Y-59963758D01*
X131818103Y-60086729D01*
X131686765Y-60246765D01*
X131526729Y-60378103D01*
X131440975Y-60423939D01*
X131344149Y-60475694D01*
X131344146Y-60475695D01*
X131146032Y-60535793D01*
X130940000Y-60556085D01*
X130733969Y-60535793D01*
X130535855Y-60475695D01*
X130535852Y-60475694D01*
X130439026Y-60423939D01*
X130353272Y-60378103D01*
X130193236Y-60246765D01*
X130061898Y-60086729D01*
X130012868Y-59995000D01*
X129964305Y-59904147D01*
X129904207Y-59706030D01*
X129889000Y-59551631D01*
X129889000Y-58448370D01*
X129904207Y-58293971D01*
X129904207Y-58293969D01*
X129964305Y-58095855D01*
X129964306Y-58095852D01*
X130035452Y-57962747D01*
X130061897Y-57913271D01*
X130193235Y-57753235D01*
X130353271Y-57621897D01*
X130439025Y-57576061D01*
X130535851Y-57524306D01*
X130535854Y-57524305D01*
X130733968Y-57464207D01*
X130940000Y-57443915D01*
X131146031Y-57464207D01*
X131146031Y-57464207D01*
G37*
G36*
X128606031Y-57464207D02*
G01*
X128804145Y-57524305D01*
X128804148Y-57524306D01*
X128870030Y-57559521D01*
X128986729Y-57621897D01*
X129146765Y-57753235D01*
X129278103Y-57913271D01*
X129278104Y-57913273D01*
X129375694Y-58095851D01*
X129375694Y-58095852D01*
X129375695Y-58095854D01*
X129435793Y-58293968D01*
X129451000Y-58448370D01*
X129451000Y-59551630D01*
X129435793Y-59706032D01*
X129376203Y-59902471D01*
X129375694Y-59904149D01*
X129343832Y-59963758D01*
X129278103Y-60086729D01*
X129146765Y-60246765D01*
X128986729Y-60378103D01*
X128900975Y-60423939D01*
X128804149Y-60475694D01*
X128804146Y-60475695D01*
X128606032Y-60535793D01*
X128400000Y-60556085D01*
X128193969Y-60535793D01*
X127995855Y-60475695D01*
X127995852Y-60475694D01*
X127899026Y-60423939D01*
X127813272Y-60378103D01*
X127653236Y-60246765D01*
X127521898Y-60086729D01*
X127472868Y-59995000D01*
X127424305Y-59904147D01*
X127364207Y-59706030D01*
X127349000Y-59551631D01*
X127349000Y-58448370D01*
X127364207Y-58293971D01*
X127364207Y-58293969D01*
X127424305Y-58095855D01*
X127424306Y-58095852D01*
X127495452Y-57962747D01*
X127521897Y-57913271D01*
X127653235Y-57753235D01*
X127813271Y-57621897D01*
X127899025Y-57576061D01*
X127995851Y-57524306D01*
X127995854Y-57524305D01*
X128193968Y-57464207D01*
X128400000Y-57443915D01*
X128606031Y-57464207D01*
X128606031Y-57464207D01*
G37*
G36*
X123526031Y-57464207D02*
G01*
X123724145Y-57524305D01*
X123724148Y-57524306D01*
X123790030Y-57559521D01*
X123906729Y-57621897D01*
X124066765Y-57753235D01*
X124198103Y-57913271D01*
X124198104Y-57913273D01*
X124295694Y-58095851D01*
X124295694Y-58095852D01*
X124295695Y-58095854D01*
X124355793Y-58293968D01*
X124371000Y-58448370D01*
X124371000Y-59551630D01*
X124355793Y-59706032D01*
X124296203Y-59902471D01*
X124295694Y-59904149D01*
X124263832Y-59963758D01*
X124198103Y-60086729D01*
X124066765Y-60246765D01*
X123906729Y-60378103D01*
X123820975Y-60423939D01*
X123724149Y-60475694D01*
X123724146Y-60475695D01*
X123526032Y-60535793D01*
X123320000Y-60556085D01*
X123113969Y-60535793D01*
X122915855Y-60475695D01*
X122915852Y-60475694D01*
X122819026Y-60423939D01*
X122733272Y-60378103D01*
X122573236Y-60246765D01*
X122441898Y-60086729D01*
X122392868Y-59995000D01*
X122344305Y-59904147D01*
X122284207Y-59706030D01*
X122269000Y-59551631D01*
X122269000Y-58448370D01*
X122284207Y-58293971D01*
X122284207Y-58293969D01*
X122344305Y-58095855D01*
X122344306Y-58095852D01*
X122415452Y-57962747D01*
X122441897Y-57913271D01*
X122573235Y-57753235D01*
X122733271Y-57621897D01*
X122819025Y-57576061D01*
X122915851Y-57524306D01*
X122915854Y-57524305D01*
X123113968Y-57464207D01*
X123320000Y-57443915D01*
X123526031Y-57464207D01*
X123526031Y-57464207D01*
G37*
G36*
X105746031Y-57464207D02*
G01*
X105944145Y-57524305D01*
X105944148Y-57524306D01*
X106010030Y-57559521D01*
X106126729Y-57621897D01*
X106286765Y-57753235D01*
X106418103Y-57913271D01*
X106418104Y-57913273D01*
X106515694Y-58095851D01*
X106515694Y-58095852D01*
X106515695Y-58095854D01*
X106575793Y-58293968D01*
X106591000Y-58448370D01*
X106591000Y-59551630D01*
X106575793Y-59706032D01*
X106516203Y-59902471D01*
X106515694Y-59904149D01*
X106483832Y-59963758D01*
X106418103Y-60086729D01*
X106286765Y-60246765D01*
X106126729Y-60378103D01*
X106040975Y-60423939D01*
X105944149Y-60475694D01*
X105944146Y-60475695D01*
X105746032Y-60535793D01*
X105540000Y-60556085D01*
X105333969Y-60535793D01*
X105135855Y-60475695D01*
X105135852Y-60475694D01*
X105039026Y-60423939D01*
X104953272Y-60378103D01*
X104793236Y-60246765D01*
X104661898Y-60086729D01*
X104612868Y-59995000D01*
X104564305Y-59904147D01*
X104504207Y-59706030D01*
X104489000Y-59551631D01*
X104489000Y-58448370D01*
X104504207Y-58293971D01*
X104504207Y-58293969D01*
X104564305Y-58095855D01*
X104564306Y-58095852D01*
X104635452Y-57962747D01*
X104661897Y-57913271D01*
X104793235Y-57753235D01*
X104953271Y-57621897D01*
X105039025Y-57576061D01*
X105135851Y-57524306D01*
X105135854Y-57524305D01*
X105333968Y-57464207D01*
X105540000Y-57443915D01*
X105746031Y-57464207D01*
X105746031Y-57464207D01*
G37*
G36*
X104051000Y-60551000D02*
G01*
X101949000Y-60551000D01*
X101949000Y-57449000D01*
X104051000Y-57449000D01*
X104051000Y-60551000D01*
X104051000Y-60551000D01*
G37*
G36*
X154853142Y-58400242D02*
G01*
X155001101Y-58461529D01*
X155134255Y-58550499D01*
X155247501Y-58663745D01*
X155336471Y-58796899D01*
X155397758Y-58944858D01*
X155429000Y-59101925D01*
X155429000Y-59262075D01*
X155397758Y-59419142D01*
X155336471Y-59567101D01*
X155247501Y-59700255D01*
X155134255Y-59813501D01*
X155001101Y-59902471D01*
X154853142Y-59963758D01*
X154696075Y-59995000D01*
X154535925Y-59995000D01*
X154378858Y-59963758D01*
X154230899Y-59902471D01*
X154097745Y-59813501D01*
X153984499Y-59700255D01*
X153895529Y-59567101D01*
X153834242Y-59419142D01*
X153803000Y-59262075D01*
X153803000Y-59101925D01*
X153834242Y-58944858D01*
X153895529Y-58796899D01*
X153984499Y-58663745D01*
X154097745Y-58550499D01*
X154230899Y-58461529D01*
X154378858Y-58400242D01*
X154535925Y-58369000D01*
X154696075Y-58369000D01*
X154853142Y-58400242D01*
X154853142Y-58400242D01*
G37*
G36*
X151853142Y-58400242D02*
G01*
X152001101Y-58461529D01*
X152134255Y-58550499D01*
X152247501Y-58663745D01*
X152336471Y-58796899D01*
X152397758Y-58944858D01*
X152429000Y-59101925D01*
X152429000Y-59262075D01*
X152397758Y-59419142D01*
X152336471Y-59567101D01*
X152247501Y-59700255D01*
X152134255Y-59813501D01*
X152001101Y-59902471D01*
X151853142Y-59963758D01*
X151696075Y-59995000D01*
X151535925Y-59995000D01*
X151378858Y-59963758D01*
X151230899Y-59902471D01*
X151097745Y-59813501D01*
X150984499Y-59700255D01*
X150895529Y-59567101D01*
X150834242Y-59419142D01*
X150803000Y-59262075D01*
X150803000Y-59101925D01*
X150834242Y-58944858D01*
X150895529Y-58796899D01*
X150984499Y-58663745D01*
X151097745Y-58550499D01*
X151230899Y-58461529D01*
X151378858Y-58400242D01*
X151535925Y-58369000D01*
X151696075Y-58369000D01*
X151853142Y-58400242D01*
X151853142Y-58400242D01*
G37*
G36*
X91064142Y-58400242D02*
G01*
X91212101Y-58461529D01*
X91345255Y-58550499D01*
X91458501Y-58663745D01*
X91547471Y-58796899D01*
X91608758Y-58944858D01*
X91640000Y-59101925D01*
X91640000Y-59262075D01*
X91608758Y-59419142D01*
X91547471Y-59567101D01*
X91458501Y-59700255D01*
X91345255Y-59813501D01*
X91212101Y-59902471D01*
X91064142Y-59963758D01*
X90907075Y-59995000D01*
X90746925Y-59995000D01*
X90589858Y-59963758D01*
X90441899Y-59902471D01*
X90308745Y-59813501D01*
X90195499Y-59700255D01*
X90106529Y-59567101D01*
X90045242Y-59419142D01*
X90014000Y-59262075D01*
X90014000Y-59101925D01*
X90045242Y-58944858D01*
X90106529Y-58796899D01*
X90195499Y-58663745D01*
X90308745Y-58550499D01*
X90441899Y-58461529D01*
X90589858Y-58400242D01*
X90746925Y-58369000D01*
X90907075Y-58369000D01*
X91064142Y-58400242D01*
X91064142Y-58400242D01*
G37*
G36*
X88064142Y-58400242D02*
G01*
X88212101Y-58461529D01*
X88345255Y-58550499D01*
X88458501Y-58663745D01*
X88547471Y-58796899D01*
X88608758Y-58944858D01*
X88640000Y-59101925D01*
X88640000Y-59262075D01*
X88608758Y-59419142D01*
X88547471Y-59567101D01*
X88458501Y-59700255D01*
X88345255Y-59813501D01*
X88212101Y-59902471D01*
X88064142Y-59963758D01*
X87907075Y-59995000D01*
X87746925Y-59995000D01*
X87589858Y-59963758D01*
X87441899Y-59902471D01*
X87308745Y-59813501D01*
X87195499Y-59700255D01*
X87106529Y-59567101D01*
X87045242Y-59419142D01*
X87014000Y-59262075D01*
X87014000Y-59101925D01*
X87045242Y-58944858D01*
X87106529Y-58796899D01*
X87195499Y-58663745D01*
X87308745Y-58550499D01*
X87441899Y-58461529D01*
X87589858Y-58400242D01*
X87746925Y-58369000D01*
X87907075Y-58369000D01*
X88064142Y-58400242D01*
X88064142Y-58400242D01*
G37*
G36*
X160967256Y-56671598D02*
G01*
X161073579Y-56692747D01*
X161374042Y-56817203D01*
X161644451Y-56997885D01*
X161874415Y-57227849D01*
X162055097Y-57498258D01*
X162055098Y-57498260D01*
X162179553Y-57798722D01*
X162243000Y-58117689D01*
X162243000Y-58442911D01*
X162221599Y-58550499D01*
X162179553Y-58761879D01*
X162055097Y-59062342D01*
X161874415Y-59332751D01*
X161644451Y-59562715D01*
X161374042Y-59743397D01*
X161073579Y-59867853D01*
X160967256Y-59889002D01*
X160754611Y-59931300D01*
X160429389Y-59931300D01*
X160216744Y-59889002D01*
X160110421Y-59867853D01*
X159809958Y-59743397D01*
X159539549Y-59562715D01*
X159309585Y-59332751D01*
X159128903Y-59062342D01*
X159004447Y-58761879D01*
X158962401Y-58550499D01*
X158941000Y-58442911D01*
X158941000Y-58117689D01*
X159004447Y-57798722D01*
X159128902Y-57498260D01*
X159128903Y-57498258D01*
X159309585Y-57227849D01*
X159539549Y-56997885D01*
X159809958Y-56817203D01*
X160110421Y-56692747D01*
X160216744Y-56671598D01*
X160429389Y-56629300D01*
X160754611Y-56629300D01*
X160967256Y-56671598D01*
X160967256Y-56671598D01*
G37*
G36*
X113366031Y-42224207D02*
G01*
X113564145Y-42284305D01*
X113564148Y-42284306D01*
X113630030Y-42319521D01*
X113746729Y-42381897D01*
X113906765Y-42513235D01*
X114038103Y-42673271D01*
X114038104Y-42673273D01*
X114135694Y-42855851D01*
X114135694Y-42855852D01*
X114135695Y-42855854D01*
X114195793Y-43053968D01*
X114211000Y-43208370D01*
X114211000Y-44311630D01*
X114195793Y-44466032D01*
X114135695Y-44664146D01*
X114135694Y-44664149D01*
X114083939Y-44760975D01*
X114038103Y-44846729D01*
X113906765Y-45006765D01*
X113746729Y-45138103D01*
X113660975Y-45183939D01*
X113564149Y-45235694D01*
X113564146Y-45235695D01*
X113366032Y-45295793D01*
X113160000Y-45316085D01*
X112953969Y-45295793D01*
X112755855Y-45235695D01*
X112755852Y-45235694D01*
X112659026Y-45183939D01*
X112573272Y-45138103D01*
X112413236Y-45006765D01*
X112281898Y-44846729D01*
X112259184Y-44804234D01*
X112184305Y-44664147D01*
X112124207Y-44466030D01*
X112109000Y-44311631D01*
X112109000Y-43208370D01*
X112124207Y-43053971D01*
X112124207Y-43053969D01*
X112184305Y-42855855D01*
X112184306Y-42855852D01*
X112219521Y-42789970D01*
X112281897Y-42673271D01*
X112413235Y-42513235D01*
X112573271Y-42381897D01*
X112659025Y-42336061D01*
X112755851Y-42284306D01*
X112755854Y-42284305D01*
X112953968Y-42224207D01*
X113160000Y-42203915D01*
X113366031Y-42224207D01*
X113366031Y-42224207D01*
G37*
G36*
X138766031Y-42224207D02*
G01*
X138964145Y-42284305D01*
X138964148Y-42284306D01*
X139030030Y-42319521D01*
X139146729Y-42381897D01*
X139306765Y-42513235D01*
X139438103Y-42673271D01*
X139438104Y-42673273D01*
X139535694Y-42855851D01*
X139535694Y-42855852D01*
X139535695Y-42855854D01*
X139595793Y-43053968D01*
X139611000Y-43208370D01*
X139611000Y-44311630D01*
X139595793Y-44466032D01*
X139535695Y-44664146D01*
X139535694Y-44664149D01*
X139483939Y-44760975D01*
X139438103Y-44846729D01*
X139306765Y-45006765D01*
X139146729Y-45138103D01*
X139060975Y-45183939D01*
X138964149Y-45235694D01*
X138964146Y-45235695D01*
X138766032Y-45295793D01*
X138560000Y-45316085D01*
X138353969Y-45295793D01*
X138155855Y-45235695D01*
X138155852Y-45235694D01*
X138059026Y-45183939D01*
X137973272Y-45138103D01*
X137813236Y-45006765D01*
X137681898Y-44846729D01*
X137659184Y-44804234D01*
X137584305Y-44664147D01*
X137524207Y-44466030D01*
X137509000Y-44311631D01*
X137509000Y-43208370D01*
X137524207Y-43053971D01*
X137524207Y-43053969D01*
X137584305Y-42855855D01*
X137584306Y-42855852D01*
X137619521Y-42789970D01*
X137681897Y-42673271D01*
X137813235Y-42513235D01*
X137973271Y-42381897D01*
X138059025Y-42336061D01*
X138155851Y-42284306D01*
X138155854Y-42284305D01*
X138353968Y-42224207D01*
X138560000Y-42203915D01*
X138766031Y-42224207D01*
X138766031Y-42224207D01*
G37*
G36*
X133686031Y-42224207D02*
G01*
X133884145Y-42284305D01*
X133884148Y-42284306D01*
X133950030Y-42319521D01*
X134066729Y-42381897D01*
X134226765Y-42513235D01*
X134358103Y-42673271D01*
X134358104Y-42673273D01*
X134455694Y-42855851D01*
X134455694Y-42855852D01*
X134455695Y-42855854D01*
X134515793Y-43053968D01*
X134531000Y-43208370D01*
X134531000Y-44311630D01*
X134515793Y-44466032D01*
X134455695Y-44664146D01*
X134455694Y-44664149D01*
X134403939Y-44760975D01*
X134358103Y-44846729D01*
X134226765Y-45006765D01*
X134066729Y-45138103D01*
X133980975Y-45183939D01*
X133884149Y-45235694D01*
X133884146Y-45235695D01*
X133686032Y-45295793D01*
X133480000Y-45316085D01*
X133273969Y-45295793D01*
X133075855Y-45235695D01*
X133075852Y-45235694D01*
X132979026Y-45183939D01*
X132893272Y-45138103D01*
X132733236Y-45006765D01*
X132601898Y-44846729D01*
X132579184Y-44804234D01*
X132504305Y-44664147D01*
X132444207Y-44466030D01*
X132429000Y-44311631D01*
X132429000Y-43208370D01*
X132444207Y-43053971D01*
X132444207Y-43053969D01*
X132504305Y-42855855D01*
X132504306Y-42855852D01*
X132539521Y-42789970D01*
X132601897Y-42673271D01*
X132733235Y-42513235D01*
X132893271Y-42381897D01*
X132979025Y-42336061D01*
X133075851Y-42284306D01*
X133075854Y-42284305D01*
X133273968Y-42224207D01*
X133480000Y-42203915D01*
X133686031Y-42224207D01*
X133686031Y-42224207D01*
G37*
G36*
X131146031Y-42224207D02*
G01*
X131344145Y-42284305D01*
X131344148Y-42284306D01*
X131410030Y-42319521D01*
X131526729Y-42381897D01*
X131686765Y-42513235D01*
X131818103Y-42673271D01*
X131818104Y-42673273D01*
X131915694Y-42855851D01*
X131915694Y-42855852D01*
X131915695Y-42855854D01*
X131975793Y-43053968D01*
X131991000Y-43208370D01*
X131991000Y-44311630D01*
X131975793Y-44466032D01*
X131915695Y-44664146D01*
X131915694Y-44664149D01*
X131863939Y-44760975D01*
X131818103Y-44846729D01*
X131686765Y-45006765D01*
X131526729Y-45138103D01*
X131440975Y-45183939D01*
X131344149Y-45235694D01*
X131344146Y-45235695D01*
X131146032Y-45295793D01*
X130940000Y-45316085D01*
X130733969Y-45295793D01*
X130535855Y-45235695D01*
X130535852Y-45235694D01*
X130439026Y-45183939D01*
X130353272Y-45138103D01*
X130193236Y-45006765D01*
X130061898Y-44846729D01*
X130039184Y-44804234D01*
X129964305Y-44664147D01*
X129904207Y-44466030D01*
X129889000Y-44311631D01*
X129889000Y-43208370D01*
X129904207Y-43053971D01*
X129904207Y-43053969D01*
X129964305Y-42855855D01*
X129964306Y-42855852D01*
X129999521Y-42789970D01*
X130061897Y-42673271D01*
X130193235Y-42513235D01*
X130353271Y-42381897D01*
X130439025Y-42336061D01*
X130535851Y-42284306D01*
X130535854Y-42284305D01*
X130733968Y-42224207D01*
X130940000Y-42203915D01*
X131146031Y-42224207D01*
X131146031Y-42224207D01*
G37*
G36*
X128606031Y-42224207D02*
G01*
X128804145Y-42284305D01*
X128804148Y-42284306D01*
X128870030Y-42319521D01*
X128986729Y-42381897D01*
X129146765Y-42513235D01*
X129278103Y-42673271D01*
X129278104Y-42673273D01*
X129375694Y-42855851D01*
X129375694Y-42855852D01*
X129375695Y-42855854D01*
X129435793Y-43053968D01*
X129451000Y-43208370D01*
X129451000Y-44311630D01*
X129435793Y-44466032D01*
X129375695Y-44664146D01*
X129375694Y-44664149D01*
X129323939Y-44760975D01*
X129278103Y-44846729D01*
X129146765Y-45006765D01*
X128986729Y-45138103D01*
X128900975Y-45183939D01*
X128804149Y-45235694D01*
X128804146Y-45235695D01*
X128606032Y-45295793D01*
X128400000Y-45316085D01*
X128193969Y-45295793D01*
X127995855Y-45235695D01*
X127995852Y-45235694D01*
X127899026Y-45183939D01*
X127813272Y-45138103D01*
X127653236Y-45006765D01*
X127521898Y-44846729D01*
X127499184Y-44804234D01*
X127424305Y-44664147D01*
X127364207Y-44466030D01*
X127349000Y-44311631D01*
X127349000Y-43208370D01*
X127364207Y-43053971D01*
X127364207Y-43053969D01*
X127424305Y-42855855D01*
X127424306Y-42855852D01*
X127459521Y-42789970D01*
X127521897Y-42673271D01*
X127653235Y-42513235D01*
X127813271Y-42381897D01*
X127899025Y-42336061D01*
X127995851Y-42284306D01*
X127995854Y-42284305D01*
X128193968Y-42224207D01*
X128400000Y-42203915D01*
X128606031Y-42224207D01*
X128606031Y-42224207D01*
G37*
G36*
X126066031Y-42224207D02*
G01*
X126264145Y-42284305D01*
X126264148Y-42284306D01*
X126330030Y-42319521D01*
X126446729Y-42381897D01*
X126606765Y-42513235D01*
X126738103Y-42673271D01*
X126738104Y-42673273D01*
X126835694Y-42855851D01*
X126835694Y-42855852D01*
X126835695Y-42855854D01*
X126895793Y-43053968D01*
X126911000Y-43208370D01*
X126911000Y-44311630D01*
X126895793Y-44466032D01*
X126835695Y-44664146D01*
X126835694Y-44664149D01*
X126783939Y-44760975D01*
X126738103Y-44846729D01*
X126606765Y-45006765D01*
X126446729Y-45138103D01*
X126360975Y-45183939D01*
X126264149Y-45235694D01*
X126264146Y-45235695D01*
X126066032Y-45295793D01*
X125860000Y-45316085D01*
X125653969Y-45295793D01*
X125455855Y-45235695D01*
X125455852Y-45235694D01*
X125359026Y-45183939D01*
X125273272Y-45138103D01*
X125113236Y-45006765D01*
X124981898Y-44846729D01*
X124959184Y-44804234D01*
X124884305Y-44664147D01*
X124824207Y-44466030D01*
X124809000Y-44311631D01*
X124809000Y-43208370D01*
X124824207Y-43053971D01*
X124824207Y-43053969D01*
X124884305Y-42855855D01*
X124884306Y-42855852D01*
X124919521Y-42789970D01*
X124981897Y-42673271D01*
X125113235Y-42513235D01*
X125273271Y-42381897D01*
X125359025Y-42336061D01*
X125455851Y-42284306D01*
X125455854Y-42284305D01*
X125653968Y-42224207D01*
X125860000Y-42203915D01*
X126066031Y-42224207D01*
X126066031Y-42224207D01*
G37*
G36*
X123526031Y-42224207D02*
G01*
X123724145Y-42284305D01*
X123724148Y-42284306D01*
X123790030Y-42319521D01*
X123906729Y-42381897D01*
X124066765Y-42513235D01*
X124198103Y-42673271D01*
X124198104Y-42673273D01*
X124295694Y-42855851D01*
X124295694Y-42855852D01*
X124295695Y-42855854D01*
X124355793Y-43053968D01*
X124371000Y-43208370D01*
X124371000Y-44311630D01*
X124355793Y-44466032D01*
X124295695Y-44664146D01*
X124295694Y-44664149D01*
X124243939Y-44760975D01*
X124198103Y-44846729D01*
X124066765Y-45006765D01*
X123906729Y-45138103D01*
X123820975Y-45183939D01*
X123724149Y-45235694D01*
X123724146Y-45235695D01*
X123526032Y-45295793D01*
X123320000Y-45316085D01*
X123113969Y-45295793D01*
X122915855Y-45235695D01*
X122915852Y-45235694D01*
X122819026Y-45183939D01*
X122733272Y-45138103D01*
X122573236Y-45006765D01*
X122441898Y-44846729D01*
X122419184Y-44804234D01*
X122344305Y-44664147D01*
X122284207Y-44466030D01*
X122269000Y-44311631D01*
X122269000Y-43208370D01*
X122284207Y-43053971D01*
X122284207Y-43053969D01*
X122344305Y-42855855D01*
X122344306Y-42855852D01*
X122379521Y-42789970D01*
X122441897Y-42673271D01*
X122573235Y-42513235D01*
X122733271Y-42381897D01*
X122819025Y-42336061D01*
X122915851Y-42284306D01*
X122915854Y-42284305D01*
X123113968Y-42224207D01*
X123320000Y-42203915D01*
X123526031Y-42224207D01*
X123526031Y-42224207D01*
G37*
G36*
X136226031Y-42224207D02*
G01*
X136424145Y-42284305D01*
X136424148Y-42284306D01*
X136490030Y-42319521D01*
X136606729Y-42381897D01*
X136766765Y-42513235D01*
X136898103Y-42673271D01*
X136898104Y-42673273D01*
X136995694Y-42855851D01*
X136995694Y-42855852D01*
X136995695Y-42855854D01*
X137055793Y-43053968D01*
X137071000Y-43208370D01*
X137071000Y-44311630D01*
X137055793Y-44466032D01*
X136995695Y-44664146D01*
X136995694Y-44664149D01*
X136943939Y-44760975D01*
X136898103Y-44846729D01*
X136766765Y-45006765D01*
X136606729Y-45138103D01*
X136520975Y-45183939D01*
X136424149Y-45235694D01*
X136424146Y-45235695D01*
X136226032Y-45295793D01*
X136020000Y-45316085D01*
X135813969Y-45295793D01*
X135615855Y-45235695D01*
X135615852Y-45235694D01*
X135519026Y-45183939D01*
X135433272Y-45138103D01*
X135273236Y-45006765D01*
X135141898Y-44846729D01*
X135119184Y-44804234D01*
X135044305Y-44664147D01*
X134984207Y-44466030D01*
X134969000Y-44311631D01*
X134969000Y-43208370D01*
X134984207Y-43053971D01*
X134984207Y-43053969D01*
X135044305Y-42855855D01*
X135044306Y-42855852D01*
X135079521Y-42789970D01*
X135141897Y-42673271D01*
X135273235Y-42513235D01*
X135433271Y-42381897D01*
X135519025Y-42336061D01*
X135615851Y-42284306D01*
X135615854Y-42284305D01*
X135813968Y-42224207D01*
X136020000Y-42203915D01*
X136226031Y-42224207D01*
X136226031Y-42224207D01*
G37*
G36*
X103206031Y-42224207D02*
G01*
X103404145Y-42284305D01*
X103404148Y-42284306D01*
X103470030Y-42319521D01*
X103586729Y-42381897D01*
X103746765Y-42513235D01*
X103878103Y-42673271D01*
X103878104Y-42673273D01*
X103975694Y-42855851D01*
X103975694Y-42855852D01*
X103975695Y-42855854D01*
X104035793Y-43053968D01*
X104051000Y-43208370D01*
X104051000Y-44311630D01*
X104035793Y-44466032D01*
X103975695Y-44664146D01*
X103975694Y-44664149D01*
X103923939Y-44760975D01*
X103878103Y-44846729D01*
X103746765Y-45006765D01*
X103586729Y-45138103D01*
X103500975Y-45183939D01*
X103404149Y-45235694D01*
X103404146Y-45235695D01*
X103206032Y-45295793D01*
X103000000Y-45316085D01*
X102793969Y-45295793D01*
X102595855Y-45235695D01*
X102595852Y-45235694D01*
X102499026Y-45183939D01*
X102413272Y-45138103D01*
X102253236Y-45006765D01*
X102121898Y-44846729D01*
X102099184Y-44804234D01*
X102024305Y-44664147D01*
X101964207Y-44466030D01*
X101949000Y-44311631D01*
X101949000Y-43208370D01*
X101964207Y-43053971D01*
X101964207Y-43053969D01*
X102024305Y-42855855D01*
X102024306Y-42855852D01*
X102059521Y-42789970D01*
X102121897Y-42673271D01*
X102253235Y-42513235D01*
X102413271Y-42381897D01*
X102499025Y-42336061D01*
X102595851Y-42284306D01*
X102595854Y-42284305D01*
X102793968Y-42224207D01*
X103000000Y-42203915D01*
X103206031Y-42224207D01*
X103206031Y-42224207D01*
G37*
G36*
X120986031Y-42224207D02*
G01*
X121184145Y-42284305D01*
X121184148Y-42284306D01*
X121250030Y-42319521D01*
X121366729Y-42381897D01*
X121526765Y-42513235D01*
X121658103Y-42673271D01*
X121658104Y-42673273D01*
X121755694Y-42855851D01*
X121755694Y-42855852D01*
X121755695Y-42855854D01*
X121815793Y-43053968D01*
X121831000Y-43208370D01*
X121831000Y-44311630D01*
X121815793Y-44466032D01*
X121755695Y-44664146D01*
X121755694Y-44664149D01*
X121703939Y-44760975D01*
X121658103Y-44846729D01*
X121526765Y-45006765D01*
X121366729Y-45138103D01*
X121280975Y-45183939D01*
X121184149Y-45235694D01*
X121184146Y-45235695D01*
X120986032Y-45295793D01*
X120780000Y-45316085D01*
X120573969Y-45295793D01*
X120375855Y-45235695D01*
X120375852Y-45235694D01*
X120279026Y-45183939D01*
X120193272Y-45138103D01*
X120033236Y-45006765D01*
X119901898Y-44846729D01*
X119879184Y-44804234D01*
X119804305Y-44664147D01*
X119744207Y-44466030D01*
X119729000Y-44311631D01*
X119729000Y-43208370D01*
X119744207Y-43053971D01*
X119744207Y-43053969D01*
X119804305Y-42855855D01*
X119804306Y-42855852D01*
X119839521Y-42789970D01*
X119901897Y-42673271D01*
X120033235Y-42513235D01*
X120193271Y-42381897D01*
X120279025Y-42336061D01*
X120375851Y-42284306D01*
X120375854Y-42284305D01*
X120573968Y-42224207D01*
X120780000Y-42203915D01*
X120986031Y-42224207D01*
X120986031Y-42224207D01*
G37*
G36*
X105746031Y-42224207D02*
G01*
X105944145Y-42284305D01*
X105944148Y-42284306D01*
X106010030Y-42319521D01*
X106126729Y-42381897D01*
X106286765Y-42513235D01*
X106418103Y-42673271D01*
X106418104Y-42673273D01*
X106515694Y-42855851D01*
X106515694Y-42855852D01*
X106515695Y-42855854D01*
X106575793Y-43053968D01*
X106591000Y-43208370D01*
X106591000Y-44311630D01*
X106575793Y-44466032D01*
X106515695Y-44664146D01*
X106515694Y-44664149D01*
X106463939Y-44760975D01*
X106418103Y-44846729D01*
X106286765Y-45006765D01*
X106126729Y-45138103D01*
X106040975Y-45183939D01*
X105944149Y-45235694D01*
X105944146Y-45235695D01*
X105746032Y-45295793D01*
X105540000Y-45316085D01*
X105333969Y-45295793D01*
X105135855Y-45235695D01*
X105135852Y-45235694D01*
X105039026Y-45183939D01*
X104953272Y-45138103D01*
X104793236Y-45006765D01*
X104661898Y-44846729D01*
X104639184Y-44804234D01*
X104564305Y-44664147D01*
X104504207Y-44466030D01*
X104489000Y-44311631D01*
X104489000Y-43208370D01*
X104504207Y-43053971D01*
X104504207Y-43053969D01*
X104564305Y-42855855D01*
X104564306Y-42855852D01*
X104599521Y-42789970D01*
X104661897Y-42673271D01*
X104793235Y-42513235D01*
X104953271Y-42381897D01*
X105039025Y-42336061D01*
X105135851Y-42284306D01*
X105135854Y-42284305D01*
X105333968Y-42224207D01*
X105540000Y-42203915D01*
X105746031Y-42224207D01*
X105746031Y-42224207D01*
G37*
G36*
X118446031Y-42224207D02*
G01*
X118644145Y-42284305D01*
X118644148Y-42284306D01*
X118710030Y-42319521D01*
X118826729Y-42381897D01*
X118986765Y-42513235D01*
X119118103Y-42673271D01*
X119118104Y-42673273D01*
X119215694Y-42855851D01*
X119215694Y-42855852D01*
X119215695Y-42855854D01*
X119275793Y-43053968D01*
X119291000Y-43208370D01*
X119291000Y-44311630D01*
X119275793Y-44466032D01*
X119215695Y-44664146D01*
X119215694Y-44664149D01*
X119163939Y-44760975D01*
X119118103Y-44846729D01*
X118986765Y-45006765D01*
X118826729Y-45138103D01*
X118740975Y-45183939D01*
X118644149Y-45235694D01*
X118644146Y-45235695D01*
X118446032Y-45295793D01*
X118240000Y-45316085D01*
X118033969Y-45295793D01*
X117835855Y-45235695D01*
X117835852Y-45235694D01*
X117739026Y-45183939D01*
X117653272Y-45138103D01*
X117493236Y-45006765D01*
X117361898Y-44846729D01*
X117339184Y-44804234D01*
X117264305Y-44664147D01*
X117204207Y-44466030D01*
X117189000Y-44311631D01*
X117189000Y-43208370D01*
X117204207Y-43053971D01*
X117204207Y-43053969D01*
X117264305Y-42855855D01*
X117264306Y-42855852D01*
X117299521Y-42789970D01*
X117361897Y-42673271D01*
X117493235Y-42513235D01*
X117653271Y-42381897D01*
X117739025Y-42336061D01*
X117835851Y-42284306D01*
X117835854Y-42284305D01*
X118033968Y-42224207D01*
X118240000Y-42203915D01*
X118446031Y-42224207D01*
X118446031Y-42224207D01*
G37*
G36*
X108286031Y-42224207D02*
G01*
X108484145Y-42284305D01*
X108484148Y-42284306D01*
X108550030Y-42319521D01*
X108666729Y-42381897D01*
X108826765Y-42513235D01*
X108958103Y-42673271D01*
X108958104Y-42673273D01*
X109055694Y-42855851D01*
X109055694Y-42855852D01*
X109055695Y-42855854D01*
X109115793Y-43053968D01*
X109131000Y-43208370D01*
X109131000Y-44311630D01*
X109115793Y-44466032D01*
X109055695Y-44664146D01*
X109055694Y-44664149D01*
X109003939Y-44760975D01*
X108958103Y-44846729D01*
X108826765Y-45006765D01*
X108666729Y-45138103D01*
X108580975Y-45183939D01*
X108484149Y-45235694D01*
X108484146Y-45235695D01*
X108286032Y-45295793D01*
X108080000Y-45316085D01*
X107873969Y-45295793D01*
X107675855Y-45235695D01*
X107675852Y-45235694D01*
X107579026Y-45183939D01*
X107493272Y-45138103D01*
X107333236Y-45006765D01*
X107201898Y-44846729D01*
X107179184Y-44804234D01*
X107104305Y-44664147D01*
X107044207Y-44466030D01*
X107029000Y-44311631D01*
X107029000Y-43208370D01*
X107044207Y-43053971D01*
X107044207Y-43053969D01*
X107104305Y-42855855D01*
X107104306Y-42855852D01*
X107139521Y-42789970D01*
X107201897Y-42673271D01*
X107333235Y-42513235D01*
X107493271Y-42381897D01*
X107579025Y-42336061D01*
X107675851Y-42284306D01*
X107675854Y-42284305D01*
X107873968Y-42224207D01*
X108080000Y-42203915D01*
X108286031Y-42224207D01*
X108286031Y-42224207D01*
G37*
G36*
X115906031Y-42224207D02*
G01*
X116104145Y-42284305D01*
X116104148Y-42284306D01*
X116170030Y-42319521D01*
X116286729Y-42381897D01*
X116446765Y-42513235D01*
X116578103Y-42673271D01*
X116578104Y-42673273D01*
X116675694Y-42855851D01*
X116675694Y-42855852D01*
X116675695Y-42855854D01*
X116735793Y-43053968D01*
X116751000Y-43208370D01*
X116751000Y-44311630D01*
X116735793Y-44466032D01*
X116675695Y-44664146D01*
X116675694Y-44664149D01*
X116623939Y-44760975D01*
X116578103Y-44846729D01*
X116446765Y-45006765D01*
X116286729Y-45138103D01*
X116200975Y-45183939D01*
X116104149Y-45235694D01*
X116104146Y-45235695D01*
X115906032Y-45295793D01*
X115700000Y-45316085D01*
X115493969Y-45295793D01*
X115295855Y-45235695D01*
X115295852Y-45235694D01*
X115199026Y-45183939D01*
X115113272Y-45138103D01*
X114953236Y-45006765D01*
X114821898Y-44846729D01*
X114799184Y-44804234D01*
X114724305Y-44664147D01*
X114664207Y-44466030D01*
X114649000Y-44311631D01*
X114649000Y-43208370D01*
X114664207Y-43053971D01*
X114664207Y-43053969D01*
X114724305Y-42855855D01*
X114724306Y-42855852D01*
X114759521Y-42789970D01*
X114821897Y-42673271D01*
X114953235Y-42513235D01*
X115113271Y-42381897D01*
X115199025Y-42336061D01*
X115295851Y-42284306D01*
X115295854Y-42284305D01*
X115493968Y-42224207D01*
X115700000Y-42203915D01*
X115906031Y-42224207D01*
X115906031Y-42224207D01*
G37*
G36*
X110826031Y-42224207D02*
G01*
X111024145Y-42284305D01*
X111024148Y-42284306D01*
X111090030Y-42319521D01*
X111206729Y-42381897D01*
X111366765Y-42513235D01*
X111498103Y-42673271D01*
X111498104Y-42673273D01*
X111595694Y-42855851D01*
X111595694Y-42855852D01*
X111595695Y-42855854D01*
X111655793Y-43053968D01*
X111671000Y-43208370D01*
X111671000Y-44311630D01*
X111655793Y-44466032D01*
X111595695Y-44664146D01*
X111595694Y-44664149D01*
X111543939Y-44760975D01*
X111498103Y-44846729D01*
X111366765Y-45006765D01*
X111206729Y-45138103D01*
X111120975Y-45183939D01*
X111024149Y-45235694D01*
X111024146Y-45235695D01*
X110826032Y-45295793D01*
X110620000Y-45316085D01*
X110413969Y-45295793D01*
X110215855Y-45235695D01*
X110215852Y-45235694D01*
X110119026Y-45183939D01*
X110033272Y-45138103D01*
X109873236Y-45006765D01*
X109741898Y-44846729D01*
X109719184Y-44804234D01*
X109644305Y-44664147D01*
X109584207Y-44466030D01*
X109569000Y-44311631D01*
X109569000Y-43208370D01*
X109584207Y-43053971D01*
X109584207Y-43053969D01*
X109644305Y-42855855D01*
X109644306Y-42855852D01*
X109679521Y-42789970D01*
X109741897Y-42673271D01*
X109873235Y-42513235D01*
X110033271Y-42381897D01*
X110119025Y-42336061D01*
X110215851Y-42284306D01*
X110215854Y-42284305D01*
X110413968Y-42224207D01*
X110620000Y-42203915D01*
X110826031Y-42224207D01*
X110826031Y-42224207D01*
G37*
G36*
X113336626Y-37462037D02*
G01*
X113506465Y-37513557D01*
X113506467Y-37513558D01*
X113662989Y-37597221D01*
X113800186Y-37709814D01*
X113883448Y-37811271D01*
X113912778Y-37847009D01*
X113996443Y-38003534D01*
X114047963Y-38173373D01*
X114061000Y-38305742D01*
X114061000Y-39694258D01*
X114047963Y-39826627D01*
X113996443Y-39996466D01*
X113912778Y-40152991D01*
X113883448Y-40188729D01*
X113800186Y-40290186D01*
X113698729Y-40373448D01*
X113662991Y-40402778D01*
X113506466Y-40486443D01*
X113336627Y-40537963D01*
X113160000Y-40555359D01*
X112983374Y-40537963D01*
X112813535Y-40486443D01*
X112657010Y-40402778D01*
X112621272Y-40373448D01*
X112519815Y-40290186D01*
X112436553Y-40188729D01*
X112407223Y-40152991D01*
X112323558Y-39996466D01*
X112272038Y-39826627D01*
X112259001Y-39694258D01*
X112259000Y-38305743D01*
X112272037Y-38173374D01*
X112323557Y-38003535D01*
X112407222Y-37847010D01*
X112407223Y-37847009D01*
X112519814Y-37709814D01*
X112621271Y-37626552D01*
X112657009Y-37597222D01*
X112813534Y-37513557D01*
X112983373Y-37462037D01*
X113160000Y-37444641D01*
X113336626Y-37462037D01*
X113336626Y-37462037D01*
G37*
G36*
X115876626Y-37462037D02*
G01*
X116046465Y-37513557D01*
X116046467Y-37513558D01*
X116202989Y-37597221D01*
X116340186Y-37709814D01*
X116423448Y-37811271D01*
X116452778Y-37847009D01*
X116536443Y-38003534D01*
X116587963Y-38173373D01*
X116601000Y-38305742D01*
X116601000Y-39694258D01*
X116587963Y-39826627D01*
X116536443Y-39996466D01*
X116452778Y-40152991D01*
X116423448Y-40188729D01*
X116340186Y-40290186D01*
X116238729Y-40373448D01*
X116202991Y-40402778D01*
X116046466Y-40486443D01*
X115876627Y-40537963D01*
X115700000Y-40555359D01*
X115523374Y-40537963D01*
X115353535Y-40486443D01*
X115197010Y-40402778D01*
X115161272Y-40373448D01*
X115059815Y-40290186D01*
X114976553Y-40188729D01*
X114947223Y-40152991D01*
X114863558Y-39996466D01*
X114812038Y-39826627D01*
X114799001Y-39694258D01*
X114799000Y-38305743D01*
X114812037Y-38173374D01*
X114863557Y-38003535D01*
X114947222Y-37847010D01*
X114947223Y-37847009D01*
X115059814Y-37709814D01*
X115161271Y-37626552D01*
X115197009Y-37597222D01*
X115353534Y-37513557D01*
X115523373Y-37462037D01*
X115700000Y-37444641D01*
X115876626Y-37462037D01*
X115876626Y-37462037D01*
G37*
G36*
X118416626Y-37462037D02*
G01*
X118586465Y-37513557D01*
X118586467Y-37513558D01*
X118742989Y-37597221D01*
X118880186Y-37709814D01*
X118963448Y-37811271D01*
X118992778Y-37847009D01*
X119076443Y-38003534D01*
X119127963Y-38173373D01*
X119141000Y-38305742D01*
X119141000Y-39694258D01*
X119127963Y-39826627D01*
X119076443Y-39996466D01*
X118992778Y-40152991D01*
X118963448Y-40188729D01*
X118880186Y-40290186D01*
X118778729Y-40373448D01*
X118742991Y-40402778D01*
X118586466Y-40486443D01*
X118416627Y-40537963D01*
X118240000Y-40555359D01*
X118063374Y-40537963D01*
X117893535Y-40486443D01*
X117737010Y-40402778D01*
X117701272Y-40373448D01*
X117599815Y-40290186D01*
X117516553Y-40188729D01*
X117487223Y-40152991D01*
X117403558Y-39996466D01*
X117352038Y-39826627D01*
X117339001Y-39694258D01*
X117339000Y-38305743D01*
X117352037Y-38173374D01*
X117403557Y-38003535D01*
X117487222Y-37847010D01*
X117487223Y-37847009D01*
X117599814Y-37709814D01*
X117701271Y-37626552D01*
X117737009Y-37597222D01*
X117893534Y-37513557D01*
X118063373Y-37462037D01*
X118240000Y-37444641D01*
X118416626Y-37462037D01*
X118416626Y-37462037D01*
G37*
G36*
X120956626Y-37462037D02*
G01*
X121126465Y-37513557D01*
X121126467Y-37513558D01*
X121282989Y-37597221D01*
X121420186Y-37709814D01*
X121503448Y-37811271D01*
X121532778Y-37847009D01*
X121616443Y-38003534D01*
X121667963Y-38173373D01*
X121681000Y-38305742D01*
X121681000Y-39694258D01*
X121667963Y-39826627D01*
X121616443Y-39996466D01*
X121532778Y-40152991D01*
X121503448Y-40188729D01*
X121420186Y-40290186D01*
X121318729Y-40373448D01*
X121282991Y-40402778D01*
X121126466Y-40486443D01*
X120956627Y-40537963D01*
X120780000Y-40555359D01*
X120603374Y-40537963D01*
X120433535Y-40486443D01*
X120277010Y-40402778D01*
X120241272Y-40373448D01*
X120139815Y-40290186D01*
X120056553Y-40188729D01*
X120027223Y-40152991D01*
X119943558Y-39996466D01*
X119892038Y-39826627D01*
X119879001Y-39694258D01*
X119879000Y-38305743D01*
X119892037Y-38173374D01*
X119943557Y-38003535D01*
X120027222Y-37847010D01*
X120027223Y-37847009D01*
X120139814Y-37709814D01*
X120241271Y-37626552D01*
X120277009Y-37597222D01*
X120433534Y-37513557D01*
X120603373Y-37462037D01*
X120780000Y-37444641D01*
X120956626Y-37462037D01*
X120956626Y-37462037D01*
G37*
G36*
X123496626Y-37462037D02*
G01*
X123666465Y-37513557D01*
X123666467Y-37513558D01*
X123822989Y-37597221D01*
X123960186Y-37709814D01*
X124043448Y-37811271D01*
X124072778Y-37847009D01*
X124156443Y-38003534D01*
X124207963Y-38173373D01*
X124221000Y-38305742D01*
X124221000Y-39694258D01*
X124207963Y-39826627D01*
X124156443Y-39996466D01*
X124072778Y-40152991D01*
X124043448Y-40188729D01*
X123960186Y-40290186D01*
X123858729Y-40373448D01*
X123822991Y-40402778D01*
X123666466Y-40486443D01*
X123496627Y-40537963D01*
X123320000Y-40555359D01*
X123143374Y-40537963D01*
X122973535Y-40486443D01*
X122817010Y-40402778D01*
X122781272Y-40373448D01*
X122679815Y-40290186D01*
X122596553Y-40188729D01*
X122567223Y-40152991D01*
X122483558Y-39996466D01*
X122432038Y-39826627D01*
X122419001Y-39694258D01*
X122419000Y-38305743D01*
X122432037Y-38173374D01*
X122483557Y-38003535D01*
X122567222Y-37847010D01*
X122567223Y-37847009D01*
X122679814Y-37709814D01*
X122781271Y-37626552D01*
X122817009Y-37597222D01*
X122973534Y-37513557D01*
X123143373Y-37462037D01*
X123320000Y-37444641D01*
X123496626Y-37462037D01*
X123496626Y-37462037D01*
G37*
G36*
X133656626Y-37462037D02*
G01*
X133826465Y-37513557D01*
X133826467Y-37513558D01*
X133982989Y-37597221D01*
X134120186Y-37709814D01*
X134203448Y-37811271D01*
X134232778Y-37847009D01*
X134316443Y-38003534D01*
X134367963Y-38173373D01*
X134381000Y-38305742D01*
X134381000Y-39694258D01*
X134367963Y-39826627D01*
X134316443Y-39996466D01*
X134232778Y-40152991D01*
X134203448Y-40188729D01*
X134120186Y-40290186D01*
X134018729Y-40373448D01*
X133982991Y-40402778D01*
X133826466Y-40486443D01*
X133656627Y-40537963D01*
X133480000Y-40555359D01*
X133303374Y-40537963D01*
X133133535Y-40486443D01*
X132977010Y-40402778D01*
X132941272Y-40373448D01*
X132839815Y-40290186D01*
X132756553Y-40188729D01*
X132727223Y-40152991D01*
X132643558Y-39996466D01*
X132592038Y-39826627D01*
X132579001Y-39694258D01*
X132579000Y-38305743D01*
X132592037Y-38173374D01*
X132643557Y-38003535D01*
X132727222Y-37847010D01*
X132727223Y-37847009D01*
X132839814Y-37709814D01*
X132941271Y-37626552D01*
X132977009Y-37597222D01*
X133133534Y-37513557D01*
X133303373Y-37462037D01*
X133480000Y-37444641D01*
X133656626Y-37462037D01*
X133656626Y-37462037D01*
G37*
G36*
X126036626Y-37462037D02*
G01*
X126206465Y-37513557D01*
X126206467Y-37513558D01*
X126362989Y-37597221D01*
X126500186Y-37709814D01*
X126583448Y-37811271D01*
X126612778Y-37847009D01*
X126696443Y-38003534D01*
X126747963Y-38173373D01*
X126761000Y-38305742D01*
X126761000Y-39694258D01*
X126747963Y-39826627D01*
X126696443Y-39996466D01*
X126612778Y-40152991D01*
X126583448Y-40188729D01*
X126500186Y-40290186D01*
X126398729Y-40373448D01*
X126362991Y-40402778D01*
X126206466Y-40486443D01*
X126036627Y-40537963D01*
X125860000Y-40555359D01*
X125683374Y-40537963D01*
X125513535Y-40486443D01*
X125357010Y-40402778D01*
X125321272Y-40373448D01*
X125219815Y-40290186D01*
X125136553Y-40188729D01*
X125107223Y-40152991D01*
X125023558Y-39996466D01*
X124972038Y-39826627D01*
X124959001Y-39694258D01*
X124959000Y-38305743D01*
X124972037Y-38173374D01*
X125023557Y-38003535D01*
X125107222Y-37847010D01*
X125107223Y-37847009D01*
X125219814Y-37709814D01*
X125321271Y-37626552D01*
X125357009Y-37597222D01*
X125513534Y-37513557D01*
X125683373Y-37462037D01*
X125860000Y-37444641D01*
X126036626Y-37462037D01*
X126036626Y-37462037D01*
G37*
G36*
X110796626Y-37462037D02*
G01*
X110966465Y-37513557D01*
X110966467Y-37513558D01*
X111122989Y-37597221D01*
X111260186Y-37709814D01*
X111343448Y-37811271D01*
X111372778Y-37847009D01*
X111456443Y-38003534D01*
X111507963Y-38173373D01*
X111521000Y-38305742D01*
X111521000Y-39694258D01*
X111507963Y-39826627D01*
X111456443Y-39996466D01*
X111372778Y-40152991D01*
X111343448Y-40188729D01*
X111260186Y-40290186D01*
X111158729Y-40373448D01*
X111122991Y-40402778D01*
X110966466Y-40486443D01*
X110796627Y-40537963D01*
X110620000Y-40555359D01*
X110443374Y-40537963D01*
X110273535Y-40486443D01*
X110117010Y-40402778D01*
X110081272Y-40373448D01*
X109979815Y-40290186D01*
X109896553Y-40188729D01*
X109867223Y-40152991D01*
X109783558Y-39996466D01*
X109732038Y-39826627D01*
X109719001Y-39694258D01*
X109719000Y-38305743D01*
X109732037Y-38173374D01*
X109783557Y-38003535D01*
X109867222Y-37847010D01*
X109867223Y-37847009D01*
X109979814Y-37709814D01*
X110081271Y-37626552D01*
X110117009Y-37597222D01*
X110273534Y-37513557D01*
X110443373Y-37462037D01*
X110620000Y-37444641D01*
X110796626Y-37462037D01*
X110796626Y-37462037D01*
G37*
G36*
X131116626Y-37462037D02*
G01*
X131286465Y-37513557D01*
X131286467Y-37513558D01*
X131442989Y-37597221D01*
X131580186Y-37709814D01*
X131663448Y-37811271D01*
X131692778Y-37847009D01*
X131776443Y-38003534D01*
X131827963Y-38173373D01*
X131841000Y-38305742D01*
X131841000Y-39694258D01*
X131827963Y-39826627D01*
X131776443Y-39996466D01*
X131692778Y-40152991D01*
X131663448Y-40188729D01*
X131580186Y-40290186D01*
X131478729Y-40373448D01*
X131442991Y-40402778D01*
X131286466Y-40486443D01*
X131116627Y-40537963D01*
X130940000Y-40555359D01*
X130763374Y-40537963D01*
X130593535Y-40486443D01*
X130437010Y-40402778D01*
X130401272Y-40373448D01*
X130299815Y-40290186D01*
X130216553Y-40188729D01*
X130187223Y-40152991D01*
X130103558Y-39996466D01*
X130052038Y-39826627D01*
X130039001Y-39694258D01*
X130039000Y-38305743D01*
X130052037Y-38173374D01*
X130103557Y-38003535D01*
X130187222Y-37847010D01*
X130187223Y-37847009D01*
X130299814Y-37709814D01*
X130401271Y-37626552D01*
X130437009Y-37597222D01*
X130593534Y-37513557D01*
X130763373Y-37462037D01*
X130940000Y-37444641D01*
X131116626Y-37462037D01*
X131116626Y-37462037D01*
G37*
G36*
X136196626Y-37462037D02*
G01*
X136366465Y-37513557D01*
X136366467Y-37513558D01*
X136522989Y-37597221D01*
X136660186Y-37709814D01*
X136743448Y-37811271D01*
X136772778Y-37847009D01*
X136856443Y-38003534D01*
X136907963Y-38173373D01*
X136921000Y-38305742D01*
X136921000Y-39694258D01*
X136907963Y-39826627D01*
X136856443Y-39996466D01*
X136772778Y-40152991D01*
X136743448Y-40188729D01*
X136660186Y-40290186D01*
X136558729Y-40373448D01*
X136522991Y-40402778D01*
X136366466Y-40486443D01*
X136196627Y-40537963D01*
X136020000Y-40555359D01*
X135843374Y-40537963D01*
X135673535Y-40486443D01*
X135517010Y-40402778D01*
X135481272Y-40373448D01*
X135379815Y-40290186D01*
X135296553Y-40188729D01*
X135267223Y-40152991D01*
X135183558Y-39996466D01*
X135132038Y-39826627D01*
X135119001Y-39694258D01*
X135119000Y-38305743D01*
X135132037Y-38173374D01*
X135183557Y-38003535D01*
X135267222Y-37847010D01*
X135267223Y-37847009D01*
X135379814Y-37709814D01*
X135481271Y-37626552D01*
X135517009Y-37597222D01*
X135673534Y-37513557D01*
X135843373Y-37462037D01*
X136020000Y-37444641D01*
X136196626Y-37462037D01*
X136196626Y-37462037D01*
G37*
G36*
X138736626Y-37462037D02*
G01*
X138906465Y-37513557D01*
X138906467Y-37513558D01*
X139062989Y-37597221D01*
X139200186Y-37709814D01*
X139283448Y-37811271D01*
X139312778Y-37847009D01*
X139396443Y-38003534D01*
X139447963Y-38173373D01*
X139461000Y-38305742D01*
X139461000Y-39694258D01*
X139447963Y-39826627D01*
X139396443Y-39996466D01*
X139312778Y-40152991D01*
X139283448Y-40188729D01*
X139200186Y-40290186D01*
X139098729Y-40373448D01*
X139062991Y-40402778D01*
X138906466Y-40486443D01*
X138736627Y-40537963D01*
X138560000Y-40555359D01*
X138383374Y-40537963D01*
X138213535Y-40486443D01*
X138057010Y-40402778D01*
X138021272Y-40373448D01*
X137919815Y-40290186D01*
X137836553Y-40188729D01*
X137807223Y-40152991D01*
X137723558Y-39996466D01*
X137672038Y-39826627D01*
X137659001Y-39694258D01*
X137659000Y-38305743D01*
X137672037Y-38173374D01*
X137723557Y-38003535D01*
X137807222Y-37847010D01*
X137807223Y-37847009D01*
X137919814Y-37709814D01*
X138021271Y-37626552D01*
X138057009Y-37597222D01*
X138213534Y-37513557D01*
X138383373Y-37462037D01*
X138560000Y-37444641D01*
X138736626Y-37462037D01*
X138736626Y-37462037D01*
G37*
G36*
X105716626Y-37462037D02*
G01*
X105886465Y-37513557D01*
X105886467Y-37513558D01*
X106042989Y-37597221D01*
X106180186Y-37709814D01*
X106263448Y-37811271D01*
X106292778Y-37847009D01*
X106376443Y-38003534D01*
X106427963Y-38173373D01*
X106441000Y-38305742D01*
X106441000Y-39694258D01*
X106427963Y-39826627D01*
X106376443Y-39996466D01*
X106292778Y-40152991D01*
X106263448Y-40188729D01*
X106180186Y-40290186D01*
X106078729Y-40373448D01*
X106042991Y-40402778D01*
X105886466Y-40486443D01*
X105716627Y-40537963D01*
X105540000Y-40555359D01*
X105363374Y-40537963D01*
X105193535Y-40486443D01*
X105037010Y-40402778D01*
X105001272Y-40373448D01*
X104899815Y-40290186D01*
X104816553Y-40188729D01*
X104787223Y-40152991D01*
X104703558Y-39996466D01*
X104652038Y-39826627D01*
X104639001Y-39694258D01*
X104639000Y-38305743D01*
X104652037Y-38173374D01*
X104703557Y-38003535D01*
X104787222Y-37847010D01*
X104787223Y-37847009D01*
X104899814Y-37709814D01*
X105001271Y-37626552D01*
X105037009Y-37597222D01*
X105193534Y-37513557D01*
X105363373Y-37462037D01*
X105540000Y-37444641D01*
X105716626Y-37462037D01*
X105716626Y-37462037D01*
G37*
G36*
X108256626Y-37462037D02*
G01*
X108426465Y-37513557D01*
X108426467Y-37513558D01*
X108582989Y-37597221D01*
X108720186Y-37709814D01*
X108803448Y-37811271D01*
X108832778Y-37847009D01*
X108916443Y-38003534D01*
X108967963Y-38173373D01*
X108981000Y-38305742D01*
X108981000Y-39694258D01*
X108967963Y-39826627D01*
X108916443Y-39996466D01*
X108832778Y-40152991D01*
X108803448Y-40188729D01*
X108720186Y-40290186D01*
X108618729Y-40373448D01*
X108582991Y-40402778D01*
X108426466Y-40486443D01*
X108256627Y-40537963D01*
X108080000Y-40555359D01*
X107903374Y-40537963D01*
X107733535Y-40486443D01*
X107577010Y-40402778D01*
X107541272Y-40373448D01*
X107439815Y-40290186D01*
X107356553Y-40188729D01*
X107327223Y-40152991D01*
X107243558Y-39996466D01*
X107192038Y-39826627D01*
X107179001Y-39694258D01*
X107179000Y-38305743D01*
X107192037Y-38173374D01*
X107243557Y-38003535D01*
X107327222Y-37847010D01*
X107327223Y-37847009D01*
X107439814Y-37709814D01*
X107541271Y-37626552D01*
X107577009Y-37597222D01*
X107733534Y-37513557D01*
X107903373Y-37462037D01*
X108080000Y-37444641D01*
X108256626Y-37462037D01*
X108256626Y-37462037D01*
G37*
G36*
X128576626Y-37462037D02*
G01*
X128746465Y-37513557D01*
X128746467Y-37513558D01*
X128902989Y-37597221D01*
X129040186Y-37709814D01*
X129123448Y-37811271D01*
X129152778Y-37847009D01*
X129236443Y-38003534D01*
X129287963Y-38173373D01*
X129301000Y-38305742D01*
X129301000Y-39694258D01*
X129287963Y-39826627D01*
X129236443Y-39996466D01*
X129152778Y-40152991D01*
X129123448Y-40188729D01*
X129040186Y-40290186D01*
X128938729Y-40373448D01*
X128902991Y-40402778D01*
X128746466Y-40486443D01*
X128576627Y-40537963D01*
X128400000Y-40555359D01*
X128223374Y-40537963D01*
X128053535Y-40486443D01*
X127897010Y-40402778D01*
X127861272Y-40373448D01*
X127759815Y-40290186D01*
X127676553Y-40188729D01*
X127647223Y-40152991D01*
X127563558Y-39996466D01*
X127512038Y-39826627D01*
X127499001Y-39694258D01*
X127499000Y-38305743D01*
X127512037Y-38173374D01*
X127563557Y-38003535D01*
X127647222Y-37847010D01*
X127647223Y-37847009D01*
X127759814Y-37709814D01*
X127861271Y-37626552D01*
X127897009Y-37597222D01*
X128053534Y-37513557D01*
X128223373Y-37462037D01*
X128400000Y-37444641D01*
X128576626Y-37462037D01*
X128576626Y-37462037D01*
G37*
G36*
X103901000Y-40551000D02*
G01*
X102099000Y-40551000D01*
X102099000Y-37449000D01*
X103901000Y-37449000D01*
X103901000Y-40551000D01*
X103901000Y-40551000D01*
G37*
G36*
X130542626Y-30453338D02*
G01*
X130712465Y-30504858D01*
X130712467Y-30504859D01*
X130868989Y-30588522D01*
X131006186Y-30701115D01*
X131089448Y-30802572D01*
X131118778Y-30838310D01*
X131202443Y-30994835D01*
X131253963Y-31164674D01*
X131267000Y-31297043D01*
X131267000Y-32685557D01*
X131253963Y-32817926D01*
X131202443Y-32987765D01*
X131118778Y-33144290D01*
X131089448Y-33180028D01*
X131006186Y-33281485D01*
X130904729Y-33364747D01*
X130868991Y-33394077D01*
X130712466Y-33477742D01*
X130542627Y-33529262D01*
X130366000Y-33546658D01*
X130189374Y-33529262D01*
X130019535Y-33477742D01*
X129863010Y-33394077D01*
X129827272Y-33364747D01*
X129725815Y-33281485D01*
X129642553Y-33180028D01*
X129613223Y-33144290D01*
X129529558Y-32987765D01*
X129478038Y-32817926D01*
X129465001Y-32685557D01*
X129465000Y-31297044D01*
X129478037Y-31164675D01*
X129529557Y-30994836D01*
X129613222Y-30838311D01*
X129613223Y-30838310D01*
X129725814Y-30701115D01*
X129827271Y-30617853D01*
X129863009Y-30588523D01*
X130019534Y-30504858D01*
X130189373Y-30453338D01*
X130366000Y-30435942D01*
X130542626Y-30453338D01*
X130542626Y-30453338D01*
G37*
G36*
X115302626Y-30453338D02*
G01*
X115472465Y-30504858D01*
X115472467Y-30504859D01*
X115628989Y-30588522D01*
X115766186Y-30701115D01*
X115849448Y-30802572D01*
X115878778Y-30838310D01*
X115962443Y-30994835D01*
X116013963Y-31164674D01*
X116027000Y-31297043D01*
X116027000Y-32685557D01*
X116013963Y-32817926D01*
X115962443Y-32987765D01*
X115878778Y-33144290D01*
X115849448Y-33180028D01*
X115766186Y-33281485D01*
X115664729Y-33364747D01*
X115628991Y-33394077D01*
X115472466Y-33477742D01*
X115302627Y-33529262D01*
X115126000Y-33546658D01*
X114949374Y-33529262D01*
X114779535Y-33477742D01*
X114623010Y-33394077D01*
X114587272Y-33364747D01*
X114485815Y-33281485D01*
X114402553Y-33180028D01*
X114373223Y-33144290D01*
X114289558Y-32987765D01*
X114238038Y-32817926D01*
X114225001Y-32685557D01*
X114225000Y-31297044D01*
X114238037Y-31164675D01*
X114289557Y-30994836D01*
X114373222Y-30838311D01*
X114373223Y-30838310D01*
X114485814Y-30701115D01*
X114587271Y-30617853D01*
X114623009Y-30588523D01*
X114779534Y-30504858D01*
X114949373Y-30453338D01*
X115126000Y-30435942D01*
X115302626Y-30453338D01*
X115302626Y-30453338D01*
G37*
G36*
X120382626Y-30453338D02*
G01*
X120552465Y-30504858D01*
X120552467Y-30504859D01*
X120708989Y-30588522D01*
X120846186Y-30701115D01*
X120929448Y-30802572D01*
X120958778Y-30838310D01*
X121042443Y-30994835D01*
X121093963Y-31164674D01*
X121107000Y-31297043D01*
X121107000Y-32685557D01*
X121093963Y-32817926D01*
X121042443Y-32987765D01*
X120958778Y-33144290D01*
X120929448Y-33180028D01*
X120846186Y-33281485D01*
X120744729Y-33364747D01*
X120708991Y-33394077D01*
X120552466Y-33477742D01*
X120382627Y-33529262D01*
X120206000Y-33546658D01*
X120029374Y-33529262D01*
X119859535Y-33477742D01*
X119703010Y-33394077D01*
X119667272Y-33364747D01*
X119565815Y-33281485D01*
X119482553Y-33180028D01*
X119453223Y-33144290D01*
X119369558Y-32987765D01*
X119318038Y-32817926D01*
X119305001Y-32685557D01*
X119305000Y-31297044D01*
X119318037Y-31164675D01*
X119369557Y-30994836D01*
X119453222Y-30838311D01*
X119453223Y-30838310D01*
X119565814Y-30701115D01*
X119667271Y-30617853D01*
X119703009Y-30588523D01*
X119859534Y-30504858D01*
X120029373Y-30453338D01*
X120206000Y-30435942D01*
X120382626Y-30453338D01*
X120382626Y-30453338D01*
G37*
G36*
X125462626Y-30453338D02*
G01*
X125632465Y-30504858D01*
X125632467Y-30504859D01*
X125788989Y-30588522D01*
X125926186Y-30701115D01*
X126009448Y-30802572D01*
X126038778Y-30838310D01*
X126122443Y-30994835D01*
X126173963Y-31164674D01*
X126187000Y-31297043D01*
X126187000Y-32685557D01*
X126173963Y-32817926D01*
X126122443Y-32987765D01*
X126038778Y-33144290D01*
X126009448Y-33180028D01*
X125926186Y-33281485D01*
X125824729Y-33364747D01*
X125788991Y-33394077D01*
X125632466Y-33477742D01*
X125462627Y-33529262D01*
X125286000Y-33546658D01*
X125109374Y-33529262D01*
X124939535Y-33477742D01*
X124783010Y-33394077D01*
X124747272Y-33364747D01*
X124645815Y-33281485D01*
X124562553Y-33180028D01*
X124533223Y-33144290D01*
X124449558Y-32987765D01*
X124398038Y-32817926D01*
X124385001Y-32685557D01*
X124385000Y-31297044D01*
X124398037Y-31164675D01*
X124449557Y-30994836D01*
X124533222Y-30838311D01*
X124533223Y-30838310D01*
X124645814Y-30701115D01*
X124747271Y-30617853D01*
X124783009Y-30588523D01*
X124939534Y-30504858D01*
X125109373Y-30453338D01*
X125286000Y-30435942D01*
X125462626Y-30453338D01*
X125462626Y-30453338D01*
G37*
G36*
X117842626Y-30199338D02*
G01*
X118012465Y-30250858D01*
X118012467Y-30250859D01*
X118168989Y-30334522D01*
X118306186Y-30447115D01*
X118389448Y-30548572D01*
X118418778Y-30584310D01*
X118502443Y-30740835D01*
X118553963Y-30910674D01*
X118567000Y-31043043D01*
X118567000Y-32431557D01*
X118553963Y-32563926D01*
X118502443Y-32733765D01*
X118418778Y-32890290D01*
X118389448Y-32926028D01*
X118306186Y-33027485D01*
X118204729Y-33110747D01*
X118168991Y-33140077D01*
X118012466Y-33223742D01*
X117842627Y-33275262D01*
X117666000Y-33292658D01*
X117489374Y-33275262D01*
X117319535Y-33223742D01*
X117163010Y-33140077D01*
X117127272Y-33110747D01*
X117025815Y-33027485D01*
X116942553Y-32926028D01*
X116913223Y-32890290D01*
X116829558Y-32733765D01*
X116778038Y-32563926D01*
X116765001Y-32431557D01*
X116765000Y-31043044D01*
X116778037Y-30910675D01*
X116829557Y-30740836D01*
X116850788Y-30701115D01*
X116913221Y-30584312D01*
X117025814Y-30447115D01*
X117127271Y-30363853D01*
X117163009Y-30334523D01*
X117319534Y-30250858D01*
X117489373Y-30199338D01*
X117666000Y-30181942D01*
X117842626Y-30199338D01*
X117842626Y-30199338D01*
G37*
G36*
X122922626Y-30199338D02*
G01*
X123092465Y-30250858D01*
X123092467Y-30250859D01*
X123248989Y-30334522D01*
X123386186Y-30447115D01*
X123469448Y-30548572D01*
X123498778Y-30584310D01*
X123582443Y-30740835D01*
X123633963Y-30910674D01*
X123647000Y-31043043D01*
X123647000Y-32431557D01*
X123633963Y-32563926D01*
X123582443Y-32733765D01*
X123498778Y-32890290D01*
X123469448Y-32926028D01*
X123386186Y-33027485D01*
X123284729Y-33110747D01*
X123248991Y-33140077D01*
X123092466Y-33223742D01*
X122922627Y-33275262D01*
X122746000Y-33292658D01*
X122569374Y-33275262D01*
X122399535Y-33223742D01*
X122243010Y-33140077D01*
X122207272Y-33110747D01*
X122105815Y-33027485D01*
X122022553Y-32926028D01*
X121993223Y-32890290D01*
X121909558Y-32733765D01*
X121858038Y-32563926D01*
X121845001Y-32431557D01*
X121845000Y-31043044D01*
X121858037Y-30910675D01*
X121909557Y-30740836D01*
X121930788Y-30701115D01*
X121993221Y-30584312D01*
X122105814Y-30447115D01*
X122207271Y-30363853D01*
X122243009Y-30334523D01*
X122399534Y-30250858D01*
X122569373Y-30199338D01*
X122746000Y-30181942D01*
X122922626Y-30199338D01*
X122922626Y-30199338D01*
G37*
G36*
X128002626Y-30199338D02*
G01*
X128172465Y-30250858D01*
X128172467Y-30250859D01*
X128328989Y-30334522D01*
X128466186Y-30447115D01*
X128549448Y-30548572D01*
X128578778Y-30584310D01*
X128662443Y-30740835D01*
X128713963Y-30910674D01*
X128727000Y-31043043D01*
X128727000Y-32431557D01*
X128713963Y-32563926D01*
X128662443Y-32733765D01*
X128578778Y-32890290D01*
X128549448Y-32926028D01*
X128466186Y-33027485D01*
X128364729Y-33110747D01*
X128328991Y-33140077D01*
X128172466Y-33223742D01*
X128002627Y-33275262D01*
X127826000Y-33292658D01*
X127649374Y-33275262D01*
X127479535Y-33223742D01*
X127323010Y-33140077D01*
X127287272Y-33110747D01*
X127185815Y-33027485D01*
X127102553Y-32926028D01*
X127073223Y-32890290D01*
X126989558Y-32733765D01*
X126938038Y-32563926D01*
X126925001Y-32431557D01*
X126925000Y-31043044D01*
X126938037Y-30910675D01*
X126989557Y-30740836D01*
X127010788Y-30701115D01*
X127073221Y-30584312D01*
X127185814Y-30447115D01*
X127287271Y-30363853D01*
X127323009Y-30334523D01*
X127479534Y-30250858D01*
X127649373Y-30199338D01*
X127826000Y-30181942D01*
X128002626Y-30199338D01*
X128002626Y-30199338D01*
G37*
G36*
X113487000Y-33288299D02*
G01*
X111685000Y-33288299D01*
X111685000Y-30186301D01*
X113487000Y-30186301D01*
X113487000Y-33288299D01*
X113487000Y-33288299D01*
G37*
G36*
X106357256Y-26191598D02*
G01*
X106463579Y-26212747D01*
X106764042Y-26337203D01*
X107034451Y-26517885D01*
X107264415Y-26747849D01*
X107445097Y-27018258D01*
X107569553Y-27318721D01*
X107633000Y-27637691D01*
X107633000Y-27962909D01*
X107569553Y-28281879D01*
X107445097Y-28582342D01*
X107264415Y-28852751D01*
X107034451Y-29082715D01*
X106764042Y-29263397D01*
X106463579Y-29387853D01*
X106357256Y-29409002D01*
X106144611Y-29451300D01*
X105819389Y-29451300D01*
X105606744Y-29409002D01*
X105500421Y-29387853D01*
X105199958Y-29263397D01*
X104929549Y-29082715D01*
X104699585Y-28852751D01*
X104518903Y-28582342D01*
X104394447Y-28281879D01*
X104331000Y-27962909D01*
X104331000Y-27637691D01*
X104394447Y-27318721D01*
X104518903Y-27018258D01*
X104699585Y-26747849D01*
X104929549Y-26517885D01*
X105199958Y-26337203D01*
X105500421Y-26212747D01*
X105606744Y-26191598D01*
X105819389Y-26149300D01*
X106144611Y-26149300D01*
X106357256Y-26191598D01*
X106357256Y-26191598D01*
G37*
G36*
X138107256Y-26191598D02*
G01*
X138213579Y-26212747D01*
X138514042Y-26337203D01*
X138784451Y-26517885D01*
X139014415Y-26747849D01*
X139195097Y-27018258D01*
X139319553Y-27318721D01*
X139383000Y-27637691D01*
X139383000Y-27962909D01*
X139319553Y-28281879D01*
X139195097Y-28582342D01*
X139014415Y-28852751D01*
X138784451Y-29082715D01*
X138514042Y-29263397D01*
X138213579Y-29387853D01*
X138107256Y-29409002D01*
X137894611Y-29451300D01*
X137569389Y-29451300D01*
X137356744Y-29409002D01*
X137250421Y-29387853D01*
X136949958Y-29263397D01*
X136679549Y-29082715D01*
X136449585Y-28852751D01*
X136268903Y-28582342D01*
X136144447Y-28281879D01*
X136081000Y-27962909D01*
X136081000Y-27637691D01*
X136144447Y-27318721D01*
X136268903Y-27018258D01*
X136449585Y-26747849D01*
X136679549Y-26517885D01*
X136949958Y-26337203D01*
X137250421Y-26212747D01*
X137356744Y-26191598D01*
X137569389Y-26149300D01*
X137894611Y-26149300D01*
X138107256Y-26191598D01*
X138107256Y-26191598D01*
G37*
G36*
X121596756Y-21111598D02*
G01*
X121703079Y-21132747D01*
X122003542Y-21257203D01*
X122273951Y-21437885D01*
X122503915Y-21667849D01*
X122684597Y-21938258D01*
X122809053Y-22238721D01*
X122872500Y-22557691D01*
X122872500Y-22882909D01*
X122809053Y-23201879D01*
X122684597Y-23502342D01*
X122503915Y-23772751D01*
X122273951Y-24002715D01*
X122003542Y-24183397D01*
X121703079Y-24307853D01*
X121596756Y-24329002D01*
X121384111Y-24371300D01*
X121058889Y-24371300D01*
X120846244Y-24329002D01*
X120739921Y-24307853D01*
X120439458Y-24183397D01*
X120169049Y-24002715D01*
X119939085Y-23772751D01*
X119758403Y-23502342D01*
X119633947Y-23201879D01*
X119570500Y-22882909D01*
X119570500Y-22557691D01*
X119633947Y-22238721D01*
X119758403Y-21938258D01*
X119939085Y-21667849D01*
X120169049Y-21437885D01*
X120439458Y-21257203D01*
X120739921Y-21132747D01*
X120846244Y-21111598D01*
X121058889Y-21069300D01*
X121384111Y-21069300D01*
X121596756Y-21111598D01*
X121596756Y-21111598D01*
G37*
M02*
