M48
; DRILL file {KiCad 5.1.3-ffb9f22~84~ubuntu19.04.1} date Wed 31 Jul 2019 01:22:47 PM EDT
; FORMAT={-:-/ absolute / inch / decimal}
; #@! TF.CreationDate,2019-07-31T13:22:47-04:00
; #@! TF.GenerationSoftware,Kicad,Pcbnew,5.1.3-ffb9f22~84~ubuntu19.04.1
; #@! TF.FileFunction,Plated,1,2,PTH
FMAT,2
INCH
T1C0.0157
T2C0.0295
T3C0.0300
T4C0.0315
T5C0.0354
T6C0.0394
T7C0.0472
T8C0.0720
T9C0.1181
T10C0.1575
T11C0.1654
%
G90
G05
T1
X5.9055Y-4.0157
X6.1024Y-3.9764
T2
X5.58Y-5.445
X5.63Y-5.395
X5.68Y-5.445
T3
X5.665Y-3.6339
X5.9691Y-2.33
X6.0872Y-2.33
X6.3914Y-3.6339
X3.1536Y-3.6339
X3.4578Y-2.33
X3.5759Y-2.33
X3.88Y-3.6339
X5.93Y-5.41
X6.28Y-5.41
X3.925Y-5.355
X3.925Y-5.705
T4
X4.0551Y-1.7228
X4.0551Y-2.3228
X4.1551Y-1.7228
X4.1551Y-2.3228
X4.2551Y-1.7228
X4.2551Y-2.3228
X4.3551Y-1.7228
X4.3551Y-2.3228
X4.4551Y-1.7228
X4.4551Y-2.3228
X4.5551Y-1.7228
X4.5551Y-2.3228
X4.6551Y-1.7228
X4.6551Y-2.3228
X4.7551Y-1.7228
X4.7551Y-2.3228
X4.8551Y-1.7228
X4.8551Y-2.3228
X4.9551Y-1.7228
X4.9551Y-2.3228
X5.0551Y-1.7228
X5.0551Y-2.3228
X5.1551Y-1.7228
X5.1551Y-2.3228
X5.2551Y-1.7228
X5.2551Y-2.3228
X5.3551Y-1.7228
X5.3551Y-2.3228
X5.4551Y-1.7228
X5.4551Y-2.3228
X3.925Y-5.9281
X3.925Y-6.125
X4.64Y-2.98
X4.64Y-3.08
X4.64Y-3.18
X4.64Y-3.28
X4.64Y-3.38
X4.64Y-3.48
X4.64Y-3.58
X4.64Y-3.68
X4.94Y-2.98
X4.94Y-3.08
X4.94Y-3.18
X4.94Y-3.28
X4.94Y-3.38
X4.94Y-3.48
X4.94Y-3.58
X4.94Y-3.68
X3.34Y-5.485
X3.34Y-5.585
X3.34Y-5.685
X3.34Y-5.785
X3.34Y-5.885
X3.34Y-5.985
X3.34Y-6.085
X3.34Y-6.185
X3.64Y-5.485
X3.64Y-5.585
X3.64Y-5.685
X3.64Y-5.785
X3.64Y-5.885
X3.64Y-5.985
X3.64Y-6.085
X3.64Y-6.185
X4.6938Y-4.0206
X4.6938Y-4.0994
X4.7725Y-4.0206
X4.7725Y-4.0994
X4.8512Y-4.0206
X4.8512Y-4.0994
T5
X4.1913Y-6.9291
X4.2913Y-6.9291
X5.2362Y-6.965
X5.3362Y-6.965
T6
X4.4325Y-1.2495
X4.5325Y-1.2595
X4.6325Y-1.2495
X4.7325Y-1.2595
X4.8325Y-1.2495
X4.9325Y-1.2595
X5.0325Y-1.2495
X5.1325Y-1.2595
X4.0551Y-2.5197
X4.1551Y-2.5197
X4.2551Y-2.5197
X4.3551Y-2.5197
X4.4551Y-2.5197
X4.5551Y-2.5197
X4.6551Y-2.5197
X4.7551Y-2.5197
X4.8551Y-2.5197
X4.9551Y-2.5197
X5.0551Y-2.5197
X5.1551Y-2.5197
X5.2551Y-2.5197
X5.3551Y-2.5197
X5.4551Y-2.5197
X4.0551Y-1.5354
X4.1551Y-1.5354
X4.2551Y-1.5354
X4.3551Y-1.5354
X4.4551Y-1.5354
X4.5551Y-1.5354
X4.6551Y-1.5354
X4.7551Y-1.5354
X4.8551Y-1.5354
X4.9551Y-1.5354
X5.0551Y-1.5354
X5.1551Y-1.5354
X5.2551Y-1.5354
X5.3551Y-1.5354
X5.4551Y-1.5354
X6.015Y-5.18
X6.115Y-5.18
X3.43Y-5.18
X3.53Y-5.18
T7
X4.5835Y-4.06
X4.9615Y-4.06
X5.3395Y-5.6188
X5.3395Y-5.7188
X5.3395Y-6.07
X5.3395Y-6.17
X6.245Y-5.6188
X6.245Y-6.17
T8
X4.6725Y-4.9445
X4.6725Y-6.8445
X4.7725Y-4.6445
X4.7725Y-7.1445
X4.8725Y-4.9445
X4.8725Y-6.8445
T10
X4.2017Y-5.4417
X4.2017Y-6.3472
X5.3434Y-5.4417
X5.3434Y-6.3472
T11
X3.99Y-6.5545
X5.5648Y-6.5545
T9
G00X5.565Y-3.5194
M15
G01X5.565Y-3.4406
M16
G05
G00X5.565Y-4.5194
M15
G01X5.565Y-4.4406
M16
G05
G00X3.98Y-3.5194
M15
G01X3.98Y-3.4406
M16
G05
G00X3.98Y-4.5194
M15
G01X3.98Y-4.4406
M16
G05
T0
M30
